G04 EAGLE Gerber RS-274X export*
G75*
%MOMM*%
%FSLAX34Y34*%
%LPD*%
%INBottom Copper*%
%IPPOS*%
%AMOC8*
5,1,8,0,0,1.08239X$1,22.5*%
G01*
%ADD10P,1.539592X8X292.500000*%
%ADD11C,0.152400*%
%ADD12C,0.756400*%

G36*
X723142Y213361D02*
X723142Y213361D01*
X723142Y213362D01*
X723142Y713638D01*
X723139Y713642D01*
X723138Y713642D01*
X124462Y713642D01*
X124458Y713639D01*
X124458Y713638D01*
X124458Y213362D01*
X124461Y213358D01*
X124462Y213358D01*
X723138Y213358D01*
X723142Y213361D01*
G37*
%LPC*%
G36*
X480636Y269524D02*
X480636Y269524D01*
X477006Y271028D01*
X475491Y272543D01*
X475489Y272543D01*
X475488Y272544D01*
X201836Y272544D01*
X199317Y273588D01*
X146588Y326317D01*
X145544Y328836D01*
X145544Y420464D01*
X146588Y422983D01*
X161217Y437612D01*
X163736Y438656D01*
X177290Y438656D01*
X177294Y438659D01*
X177294Y438660D01*
X177294Y510413D01*
X177293Y510414D01*
X177293Y510416D01*
X175778Y511931D01*
X174274Y515561D01*
X174274Y519489D01*
X175778Y523119D01*
X178556Y525897D01*
X182186Y527401D01*
X186114Y527401D01*
X189744Y525897D01*
X192522Y523119D01*
X194026Y519489D01*
X194026Y515561D01*
X192522Y511931D01*
X191007Y510416D01*
X191007Y510414D01*
X191006Y510413D01*
X191006Y435485D01*
X191009Y435481D01*
X191010Y435481D01*
X335671Y435481D01*
X335673Y435482D01*
X335675Y435483D01*
X335675Y435484D01*
X335676Y435484D01*
X335674Y435486D01*
X335673Y435489D01*
X334131Y436128D01*
X331353Y438906D01*
X329849Y442536D01*
X329849Y446464D01*
X331353Y450094D01*
X334131Y452872D01*
X337761Y454376D01*
X338098Y454376D01*
X338099Y454377D01*
X338100Y454377D01*
X338100Y454378D01*
X338102Y454379D01*
X338100Y454381D01*
X338101Y454383D01*
X337703Y454781D01*
X336199Y458411D01*
X336199Y460553D01*
X336198Y460555D01*
X336198Y460556D01*
X330536Y466218D01*
X330534Y466218D01*
X330533Y466219D01*
X210312Y466219D01*
X210311Y466218D01*
X210309Y466218D01*
X208794Y464703D01*
X205164Y463199D01*
X201236Y463199D01*
X197606Y464703D01*
X194828Y467481D01*
X193324Y471111D01*
X193324Y475039D01*
X194828Y478669D01*
X197606Y481447D01*
X201236Y482951D01*
X205164Y482951D01*
X208794Y481447D01*
X210309Y479932D01*
X210311Y479932D01*
X210312Y479931D01*
X334739Y479931D01*
X337258Y478887D01*
X345894Y470252D01*
X345896Y470252D01*
X345897Y470251D01*
X348039Y470251D01*
X351669Y468747D01*
X352970Y467446D01*
X352976Y467446D01*
X352976Y467447D01*
X352976Y467446D01*
X448212Y562683D01*
X450142Y564612D01*
X452661Y565656D01*
X704088Y565656D01*
X704089Y565657D01*
X704091Y565657D01*
X705606Y567172D01*
X709236Y568676D01*
X713164Y568676D01*
X716794Y567172D01*
X719572Y564394D01*
X721076Y560764D01*
X721076Y556836D01*
X719572Y553206D01*
X716794Y550428D01*
X713164Y548924D01*
X709236Y548924D01*
X705606Y550428D01*
X704091Y551943D01*
X704089Y551943D01*
X704088Y551944D01*
X533755Y551944D01*
X533751Y551941D01*
X533751Y551940D01*
X533751Y550486D01*
X532247Y546856D01*
X529469Y544078D01*
X525839Y542574D01*
X523696Y542574D01*
X523695Y542573D01*
X523693Y542573D01*
X438502Y457382D01*
X438502Y457380D01*
X438501Y457379D01*
X438501Y455236D01*
X436997Y451606D01*
X435696Y450305D01*
X435696Y450299D01*
X435697Y450299D01*
X435696Y450299D01*
X444164Y441832D01*
X444166Y441832D01*
X444167Y441831D01*
X446913Y441831D01*
X446914Y441832D01*
X446916Y441832D01*
X448431Y443347D01*
X452061Y444851D01*
X455989Y444851D01*
X459619Y443347D01*
X462397Y440569D01*
X463901Y436939D01*
X463901Y435485D01*
X463904Y435481D01*
X463905Y435481D01*
X612013Y435481D01*
X612014Y435482D01*
X612016Y435482D01*
X613531Y436997D01*
X617161Y438501D01*
X621089Y438501D01*
X624719Y436997D01*
X627497Y434219D01*
X629001Y430589D01*
X629001Y426758D01*
X629002Y426757D01*
X629002Y426755D01*
X629003Y426755D01*
X629004Y426754D01*
X629006Y426755D01*
X629008Y426755D01*
X631003Y428750D01*
X634994Y428750D01*
X634994Y419106D01*
X625350Y419106D01*
X625350Y420874D01*
X625349Y420875D01*
X625349Y420876D01*
X625348Y420876D01*
X625347Y420878D01*
X625345Y420876D01*
X625343Y420877D01*
X624719Y420253D01*
X622808Y419461D01*
X622807Y419458D01*
X622806Y419457D01*
X622806Y413630D01*
X615579Y406403D01*
X615579Y406400D01*
X615578Y406400D01*
X615579Y406400D01*
X615578Y406397D01*
X615579Y406397D01*
X622297Y399679D01*
X622303Y399678D01*
X622303Y399679D01*
X629530Y406906D01*
X640470Y406906D01*
X648206Y399170D01*
X648206Y390880D01*
X648209Y390876D01*
X648210Y390876D01*
X649664Y390876D01*
X653294Y389372D01*
X656072Y386594D01*
X657576Y382964D01*
X657576Y379036D01*
X656072Y375406D01*
X653294Y372628D01*
X649664Y371124D01*
X648210Y371124D01*
X648206Y371121D01*
X648206Y371120D01*
X648206Y362830D01*
X640470Y355094D01*
X631492Y355094D01*
X631490Y355093D01*
X631489Y355093D01*
X629358Y352963D01*
X626839Y351919D01*
X619267Y351919D01*
X619266Y351918D01*
X619264Y351918D01*
X619264Y351917D01*
X619263Y351916D01*
X619264Y351914D01*
X619264Y351912D01*
X622806Y348370D01*
X622806Y337430D01*
X615070Y329694D01*
X604130Y329694D01*
X596394Y337430D01*
X596394Y339215D01*
X596391Y339219D01*
X596390Y339219D01*
X424057Y339219D01*
X424056Y339218D01*
X424055Y339218D01*
X424055Y339217D01*
X424053Y339216D01*
X424055Y339214D01*
X424054Y339212D01*
X424297Y338969D01*
X425801Y335339D01*
X425801Y331411D01*
X424297Y327781D01*
X421519Y325003D01*
X417889Y323499D01*
X414489Y323499D01*
X414488Y323499D01*
X414487Y323499D01*
X414114Y323344D01*
X201836Y323344D01*
X199317Y324388D01*
X194011Y329693D01*
X194009Y329693D01*
X194009Y329694D01*
X194008Y329694D01*
X185030Y329694D01*
X177294Y337430D01*
X177294Y348370D01*
X184521Y355597D01*
X184522Y355603D01*
X184521Y355603D01*
X177294Y362830D01*
X177294Y373770D01*
X184521Y380997D01*
X184522Y381003D01*
X184521Y381003D01*
X177294Y388230D01*
X177294Y399170D01*
X184521Y406397D01*
X184521Y406398D01*
X184522Y406399D01*
X184521Y406399D01*
X184522Y406403D01*
X184521Y406403D01*
X177294Y413630D01*
X177294Y424570D01*
X177661Y424937D01*
X177661Y424938D01*
X177662Y424939D01*
X177661Y424941D01*
X177662Y424943D01*
X177660Y424943D01*
X177658Y424944D01*
X167942Y424944D01*
X167940Y424943D01*
X167939Y424943D01*
X159257Y416261D01*
X159257Y416260D01*
X159256Y416259D01*
X159256Y416258D01*
X159256Y333042D01*
X159257Y333040D01*
X159257Y333039D01*
X206039Y286257D01*
X206041Y286257D01*
X206042Y286256D01*
X475488Y286256D01*
X475489Y286257D01*
X475491Y286257D01*
X477006Y287772D01*
X480636Y289276D01*
X484564Y289276D01*
X488194Y287772D01*
X489709Y286257D01*
X489711Y286257D01*
X489712Y286256D01*
X551688Y286256D01*
X551689Y286257D01*
X551691Y286257D01*
X553206Y287772D01*
X556836Y289276D01*
X560764Y289276D01*
X564394Y287772D01*
X567172Y284994D01*
X568676Y281364D01*
X568676Y277436D01*
X567172Y273806D01*
X564394Y271028D01*
X560764Y269524D01*
X556836Y269524D01*
X553206Y271028D01*
X551691Y272543D01*
X551689Y272543D01*
X551688Y272544D01*
X489712Y272544D01*
X489711Y272543D01*
X489709Y272543D01*
X488194Y271028D01*
X484564Y269524D01*
X480636Y269524D01*
G37*
%LPD*%
G36*
X385569Y400557D02*
X385569Y400557D01*
X385570Y400557D01*
X385570Y400558D01*
X385572Y400559D01*
X385570Y400561D01*
X385571Y400563D01*
X385328Y400806D01*
X383824Y404436D01*
X383824Y408364D01*
X385328Y411994D01*
X388106Y414772D01*
X391736Y416276D01*
X395664Y416276D01*
X399294Y414772D01*
X402072Y411994D01*
X403576Y408364D01*
X403576Y404436D01*
X402072Y400806D01*
X401829Y400563D01*
X401829Y400562D01*
X401829Y400561D01*
X401828Y400561D01*
X401829Y400559D01*
X401829Y400557D01*
X401831Y400557D01*
X401832Y400556D01*
X597778Y400556D01*
X597780Y400557D01*
X597781Y400557D01*
X603621Y406397D01*
X603621Y406398D01*
X603622Y406399D01*
X603621Y406399D01*
X603622Y406403D01*
X603621Y406403D01*
X596394Y413630D01*
X596394Y421765D01*
X596391Y421769D01*
X596390Y421769D01*
X383818Y421769D01*
X383815Y421767D01*
X383814Y421767D01*
X383022Y419856D01*
X380244Y417078D01*
X377607Y415985D01*
X377606Y415983D01*
X377605Y415983D01*
X377287Y415217D01*
X375358Y413288D01*
X372839Y412244D01*
X370111Y412244D01*
X367592Y413288D01*
X365306Y415573D01*
X365304Y415573D01*
X365303Y415574D01*
X363161Y415574D01*
X362307Y415928D01*
X362306Y415928D01*
X362304Y415927D01*
X362301Y415926D01*
X362302Y415925D01*
X362301Y415924D01*
X362301Y413961D01*
X361142Y411164D01*
X361143Y411163D01*
X361142Y411163D01*
X361143Y411162D01*
X361142Y411161D01*
X362301Y408364D01*
X362301Y404436D01*
X360797Y400806D01*
X360554Y400563D01*
X360554Y400562D01*
X360554Y400561D01*
X360553Y400561D01*
X360554Y400559D01*
X360554Y400557D01*
X360556Y400557D01*
X360557Y400556D01*
X385568Y400556D01*
X385569Y400557D01*
G37*
%LPC*%
G36*
X200185Y226142D02*
X200185Y226142D01*
X194614Y228450D01*
X190350Y232714D01*
X188042Y238285D01*
X188042Y244315D01*
X190350Y249886D01*
X194614Y254150D01*
X200185Y256458D01*
X206215Y256458D01*
X211786Y254150D01*
X216050Y249886D01*
X218358Y244315D01*
X218358Y238285D01*
X216050Y232714D01*
X211786Y228450D01*
X206215Y226142D01*
X200185Y226142D01*
G37*
%LPD*%
%LPC*%
G36*
X149385Y657942D02*
X149385Y657942D01*
X143814Y660250D01*
X139550Y664514D01*
X137242Y670085D01*
X137242Y676115D01*
X139550Y681686D01*
X143814Y685950D01*
X149385Y688258D01*
X155415Y688258D01*
X160986Y685950D01*
X165250Y681686D01*
X167558Y676115D01*
X167558Y670085D01*
X165250Y664514D01*
X160986Y660250D01*
X155415Y657942D01*
X149385Y657942D01*
G37*
%LPD*%
%LPC*%
G36*
X695485Y442042D02*
X695485Y442042D01*
X689914Y444350D01*
X685650Y448614D01*
X683342Y454185D01*
X683342Y460215D01*
X685650Y465786D01*
X689914Y470050D01*
X695485Y472358D01*
X701515Y472358D01*
X707086Y470050D01*
X711350Y465786D01*
X713658Y460215D01*
X713658Y454185D01*
X711350Y448614D01*
X707086Y444350D01*
X701515Y442042D01*
X695485Y442042D01*
G37*
%LPD*%
%LPC*%
G36*
X695485Y226142D02*
X695485Y226142D01*
X689914Y228450D01*
X685650Y232714D01*
X683342Y238285D01*
X683342Y244315D01*
X685650Y249886D01*
X689914Y254150D01*
X695485Y256458D01*
X701515Y256458D01*
X707086Y254150D01*
X711350Y249886D01*
X713658Y244315D01*
X713658Y238285D01*
X711350Y232714D01*
X707086Y228450D01*
X701515Y226142D01*
X695485Y226142D01*
G37*
%LPD*%
%LPC*%
G36*
X695485Y670642D02*
X695485Y670642D01*
X689914Y672950D01*
X685650Y677214D01*
X683342Y682785D01*
X683342Y688815D01*
X685650Y694386D01*
X689914Y698650D01*
X695485Y700958D01*
X701515Y700958D01*
X707086Y698650D01*
X711350Y694386D01*
X713658Y688815D01*
X713658Y682785D01*
X711350Y677214D01*
X707086Y672950D01*
X701515Y670642D01*
X695485Y670642D01*
G37*
%LPD*%
%LPC*%
G36*
X149385Y607142D02*
X149385Y607142D01*
X143814Y609450D01*
X139550Y613714D01*
X137242Y619285D01*
X137242Y625315D01*
X139550Y630886D01*
X143814Y635150D01*
X149385Y637458D01*
X155415Y637458D01*
X160986Y635150D01*
X165250Y630886D01*
X167558Y625315D01*
X167558Y619285D01*
X165250Y613714D01*
X160986Y609450D01*
X155415Y607142D01*
X149385Y607142D01*
G37*
%LPD*%
%LPC*%
G36*
X149385Y264242D02*
X149385Y264242D01*
X143814Y266550D01*
X139550Y270814D01*
X137242Y276385D01*
X137242Y282415D01*
X139550Y287986D01*
X143814Y292250D01*
X149385Y294558D01*
X155415Y294558D01*
X160986Y292250D01*
X165250Y287986D01*
X167558Y282415D01*
X167558Y276385D01*
X165250Y270814D01*
X160986Y266550D01*
X155415Y264242D01*
X149385Y264242D01*
G37*
%LPD*%
%LPC*%
G36*
X635006Y342906D02*
X635006Y342906D01*
X635006Y352550D01*
X638997Y352550D01*
X644650Y346897D01*
X644650Y342906D01*
X635006Y342906D01*
G37*
%LPD*%
%LPC*%
G36*
X635006Y419106D02*
X635006Y419106D01*
X635006Y428750D01*
X638997Y428750D01*
X644650Y423097D01*
X644650Y419106D01*
X635006Y419106D01*
G37*
%LPD*%
%LPC*%
G36*
X625350Y342906D02*
X625350Y342906D01*
X625350Y346897D01*
X631003Y352550D01*
X634994Y352550D01*
X634994Y342906D01*
X625350Y342906D01*
G37*
%LPD*%
%LPC*%
G36*
X635006Y333250D02*
X635006Y333250D01*
X635006Y342894D01*
X644650Y342894D01*
X644650Y338903D01*
X638997Y333250D01*
X635006Y333250D01*
G37*
%LPD*%
%LPC*%
G36*
X635006Y409450D02*
X635006Y409450D01*
X635006Y419094D01*
X644650Y419094D01*
X644650Y415103D01*
X638997Y409450D01*
X635006Y409450D01*
G37*
%LPD*%
%LPC*%
G36*
X631003Y333250D02*
X631003Y333250D01*
X625350Y338903D01*
X625350Y342894D01*
X634994Y342894D01*
X634994Y333250D01*
X631003Y333250D01*
G37*
%LPD*%
%LPC*%
G36*
X631003Y409450D02*
X631003Y409450D01*
X625350Y415103D01*
X625350Y419094D01*
X634994Y419094D01*
X634994Y409450D01*
X631003Y409450D01*
G37*
%LPD*%
D10*
X190500Y419100D03*
X215900Y419100D03*
X190500Y393700D03*
X215900Y393700D03*
X190500Y368300D03*
X215900Y368300D03*
X215900Y342900D03*
X190500Y342900D03*
X609600Y419100D03*
X635000Y419100D03*
X609600Y393700D03*
X635000Y393700D03*
X609600Y368300D03*
X635000Y368300D03*
X635000Y342900D03*
X609600Y342900D03*
D11*
X352425Y415925D02*
X339725Y403225D01*
X200025Y403225D01*
X190500Y393700D01*
D12*
X352425Y415925D03*
D11*
X352425Y406400D02*
X342900Y396875D01*
X304800Y396875D01*
X282575Y374650D01*
D12*
X352425Y406400D03*
X282575Y374650D03*
D11*
X346075Y460375D02*
X333375Y473075D01*
X203200Y473075D01*
D12*
X346075Y460375D03*
X203200Y473075D03*
D11*
X374650Y425450D02*
X377825Y428625D01*
X619125Y428625D01*
D12*
X374650Y425450D03*
X619125Y428625D03*
D11*
X384175Y346075D02*
X374650Y336550D01*
X384175Y346075D02*
X596900Y346075D01*
X609600Y358775D01*
X625475Y358775D01*
X635000Y368300D01*
D12*
X374650Y336550D03*
D11*
X352425Y374650D02*
X349250Y377825D01*
X339725Y377825D01*
X336550Y381000D01*
X336550Y393700D01*
X609600Y393700D01*
D12*
X352425Y374650D03*
D11*
X342900Y384175D02*
X349250Y390525D01*
X596900Y390525D01*
X603250Y384175D01*
X625475Y384175D01*
X635000Y393700D01*
D12*
X342900Y384175D03*
D11*
X295275Y358775D02*
X279400Y342900D01*
X215900Y342900D01*
D12*
X295275Y358775D03*
D11*
X644525Y409575D02*
X654050Y400050D01*
X644525Y409575D02*
X635000Y419100D01*
X654050Y400050D02*
X654050Y342900D01*
X635000Y342900D01*
X644525Y409575D02*
X441325Y409575D01*
D12*
X441325Y409575D03*
X177800Y266700D03*
X254000Y228600D03*
X711200Y279400D03*
X698500Y482600D03*
X190500Y622300D03*
X177800Y660400D03*
X558800Y482600D03*
X546100Y635000D03*
X685800Y635000D03*
X609600Y609600D03*
D11*
X441325Y409575D02*
X409575Y409575D01*
X406400Y406400D01*
X393700Y406400D01*
X428625Y457200D02*
X523875Y552450D01*
D12*
X428625Y457200D03*
X523875Y552450D03*
D11*
X434975Y361950D02*
X444500Y352425D01*
X434975Y361950D02*
X434975Y374650D01*
D12*
X444500Y352425D03*
X434975Y374650D03*
D11*
X419100Y368300D02*
X434975Y352425D01*
X419100Y368300D02*
X215900Y368300D01*
D12*
X434975Y352425D03*
D11*
X415925Y333375D02*
X412750Y330200D01*
X203200Y330200D01*
X190500Y342900D01*
D12*
X415925Y333375D03*
D11*
X371475Y419100D02*
X365125Y425450D01*
X184150Y428625D02*
X184150Y431800D01*
X184150Y517525D01*
X184150Y428625D02*
X361950Y428625D01*
X365125Y425450D01*
D12*
X365125Y425450D03*
X184150Y517525D03*
X482600Y279400D03*
D11*
X558800Y279400D01*
D12*
X558800Y279400D03*
D11*
X482600Y279400D02*
X203200Y279400D01*
X152400Y330200D01*
X152400Y419100D01*
X165100Y431800D01*
X184150Y431800D01*
X393700Y482600D02*
X441325Y434975D01*
X454025Y434975D01*
D12*
X393700Y482600D03*
X454025Y434975D03*
D11*
X355600Y381000D02*
X352425Y384175D01*
X355600Y381000D02*
X647700Y381000D01*
D12*
X352425Y384175D03*
X647700Y381000D03*
D11*
X454025Y558800D02*
X339725Y444500D01*
X454025Y558800D02*
X711200Y558800D01*
D12*
X339725Y444500D03*
X711200Y558800D03*
D11*
X450850Y374650D02*
X441325Y365125D01*
X450850Y374650D02*
X527050Y374650D01*
D12*
X441325Y365125D03*
X527050Y374650D03*
X393700Y406400D03*
M02*
