G04 EAGLE Gerber RS-274X export*
G75*
%MOMM*%
%FSLAX34Y34*%
%LPD*%
%INTop Copper*%
%IPPOS*%
%AMOC8*
5,1,8,0,0,1.08239X$1,22.5*%
G01*
%ADD10R,1.100000X1.000000*%
%ADD11R,1.200000X0.270000*%
%ADD12R,3.000000X8.100000*%
%ADD13R,0.635000X1.270000*%
%ADD14P,1.539592X8X292.500000*%
%ADD15R,1.800000X3.200000*%
%ADD16R,3.200000X1.800000*%
%ADD17R,1.000000X0.900000*%
%ADD18R,1.100000X0.900000*%
%ADD19C,0.152400*%
%ADD20C,0.756400*%

G36*
X723142Y213361D02*
X723142Y213361D01*
X723142Y213362D01*
X723142Y562102D01*
X723139Y562106D01*
X723138Y562106D01*
X720660Y562106D01*
X720656Y562103D01*
X720656Y562102D01*
X720656Y561779D01*
X720657Y561778D01*
X720656Y561778D01*
X721076Y560764D01*
X721076Y556836D01*
X719572Y553206D01*
X716794Y550428D01*
X713164Y548924D01*
X709236Y548924D01*
X705606Y550428D01*
X702828Y553206D01*
X701324Y556836D01*
X701324Y560764D01*
X702129Y562706D01*
X702127Y562711D01*
X702126Y562711D01*
X702126Y562712D01*
X701348Y563034D01*
X699634Y564748D01*
X698706Y566988D01*
X698706Y601412D01*
X699634Y603652D01*
X701348Y605366D01*
X703588Y606294D01*
X723138Y606294D01*
X723142Y606297D01*
X723142Y606298D01*
X723142Y713638D01*
X723139Y713642D01*
X723138Y713642D01*
X124462Y713642D01*
X124458Y713639D01*
X124458Y713638D01*
X124458Y213362D01*
X124461Y213358D01*
X124462Y213358D01*
X723138Y213358D01*
X723142Y213361D01*
G37*
%LPC*%
G36*
X640088Y244606D02*
X640088Y244606D01*
X637848Y245534D01*
X636134Y247248D01*
X635206Y249488D01*
X635206Y283912D01*
X636134Y286152D01*
X637848Y287866D01*
X640088Y288794D01*
X640840Y288794D01*
X640844Y288797D01*
X640844Y288798D01*
X640844Y335087D01*
X640843Y335088D01*
X640843Y335090D01*
X640842Y335090D01*
X640841Y335091D01*
X640839Y335090D01*
X640837Y335090D01*
X638997Y333250D01*
X635006Y333250D01*
X635006Y342898D01*
X635004Y342900D01*
X635006Y342902D01*
X635006Y352550D01*
X638997Y352550D01*
X640837Y350710D01*
X640838Y350710D01*
X640839Y350709D01*
X640841Y350710D01*
X640843Y350709D01*
X640843Y350711D01*
X640844Y350713D01*
X640844Y355458D01*
X640843Y355459D01*
X640843Y355461D01*
X640842Y355461D01*
X640841Y355462D01*
X640840Y355462D01*
X640839Y355461D01*
X640837Y355461D01*
X640470Y355094D01*
X631374Y355094D01*
X631371Y355092D01*
X631370Y355092D01*
X631287Y354892D01*
X629358Y352962D01*
X622807Y346412D01*
X622807Y346410D01*
X622806Y346409D01*
X622806Y337430D01*
X615070Y329694D01*
X604130Y329694D01*
X596394Y337430D01*
X596394Y348370D01*
X603621Y355597D01*
X603622Y355603D01*
X603621Y355603D01*
X596394Y362830D01*
X596394Y373770D01*
X603621Y380997D01*
X603622Y381003D01*
X603621Y381003D01*
X596394Y388230D01*
X596394Y396188D01*
X596393Y396190D01*
X596393Y396191D01*
X596392Y396191D01*
X596391Y396193D01*
X596389Y396191D01*
X596387Y396191D01*
X543099Y342903D01*
X543098Y342897D01*
X543099Y342897D01*
X548136Y337860D01*
X548141Y337859D01*
X548141Y337860D01*
X548142Y337860D01*
X548948Y338666D01*
X551188Y339594D01*
X571612Y339594D01*
X573852Y338666D01*
X575566Y336952D01*
X576494Y334712D01*
X576494Y300288D01*
X575566Y298048D01*
X573852Y296334D01*
X571612Y295406D01*
X565660Y295406D01*
X565656Y295403D01*
X565656Y295402D01*
X565656Y286512D01*
X565657Y286511D01*
X565657Y286509D01*
X567172Y284994D01*
X568676Y281364D01*
X568676Y277436D01*
X567172Y273806D01*
X564394Y271028D01*
X560764Y269524D01*
X556836Y269524D01*
X553206Y271028D01*
X550428Y273806D01*
X548924Y277436D01*
X548924Y281364D01*
X550428Y284994D01*
X550671Y285237D01*
X550671Y285238D01*
X550672Y285239D01*
X550671Y285241D01*
X550671Y285243D01*
X550669Y285243D01*
X550668Y285244D01*
X532036Y285244D01*
X529517Y286288D01*
X527588Y288217D01*
X526544Y290736D01*
X526544Y340058D01*
X526543Y340060D01*
X526543Y340061D01*
X514888Y351717D01*
X513844Y354236D01*
X513844Y424940D01*
X513841Y424944D01*
X513840Y424944D01*
X485436Y424944D01*
X482917Y425988D01*
X475499Y433405D01*
X475497Y433405D01*
X475496Y433406D01*
X467388Y433406D01*
X465148Y434334D01*
X463908Y435574D01*
X463907Y435574D01*
X463906Y435575D01*
X463904Y435574D01*
X463902Y435574D01*
X463902Y435572D01*
X463901Y435571D01*
X463901Y434797D01*
X463902Y434795D01*
X463902Y434794D01*
X510637Y388058D01*
X511681Y385539D01*
X511681Y339598D01*
X511684Y339594D01*
X511685Y339594D01*
X515612Y339594D01*
X517852Y338666D01*
X519566Y336952D01*
X520494Y334712D01*
X520494Y300288D01*
X519566Y298048D01*
X517852Y296334D01*
X515612Y295406D01*
X495188Y295406D01*
X492948Y296334D01*
X491234Y298048D01*
X490306Y300288D01*
X490306Y334712D01*
X491234Y336952D01*
X492948Y338666D01*
X495188Y339594D01*
X497965Y339594D01*
X497969Y339597D01*
X497969Y339598D01*
X497969Y381333D01*
X497968Y381335D01*
X497968Y381336D01*
X454538Y424766D01*
X454537Y424767D01*
X454536Y424768D01*
X454534Y424767D01*
X454532Y424767D01*
X454532Y424765D01*
X454531Y424763D01*
X454531Y357411D01*
X453828Y355715D01*
X453829Y355713D01*
X453828Y355712D01*
X454376Y354389D01*
X454376Y350461D01*
X452872Y346831D01*
X450094Y344053D01*
X448224Y343278D01*
X448224Y343277D01*
X448223Y343277D01*
X433520Y328574D01*
X433520Y328573D01*
X433519Y328572D01*
X433520Y328572D01*
X433519Y328570D01*
X433520Y328570D01*
X433520Y328569D01*
X433522Y328569D01*
X433523Y328568D01*
X433524Y328568D01*
X433525Y328568D01*
X433588Y328594D01*
X447012Y328594D01*
X449252Y327666D01*
X450966Y325952D01*
X451894Y323712D01*
X451894Y319803D01*
X451895Y319802D01*
X451895Y319800D01*
X482419Y289277D01*
X482421Y289277D01*
X482422Y289276D01*
X484564Y289276D01*
X488194Y287772D01*
X490972Y284994D01*
X492476Y281364D01*
X492476Y277436D01*
X490972Y273806D01*
X488194Y271028D01*
X484564Y269524D01*
X480636Y269524D01*
X477006Y271028D01*
X474228Y273806D01*
X472724Y277436D01*
X472724Y279578D01*
X472723Y279580D01*
X472723Y279581D01*
X446732Y305573D01*
X446731Y305573D01*
X446729Y305573D01*
X446726Y305573D01*
X446726Y305572D01*
X446725Y305571D01*
X446112Y304092D01*
X444183Y302163D01*
X441664Y301119D01*
X408211Y301119D01*
X405692Y302163D01*
X403763Y304092D01*
X402719Y306611D01*
X402719Y334402D01*
X402716Y334406D01*
X402715Y334406D01*
X384454Y334406D01*
X384452Y334404D01*
X384450Y334404D01*
X383022Y330956D01*
X380244Y328178D01*
X376614Y326674D01*
X372686Y326674D01*
X369056Y328178D01*
X366278Y330956D01*
X364774Y334586D01*
X364774Y337802D01*
X364771Y337806D01*
X364770Y337806D01*
X363378Y337806D01*
X363377Y337805D01*
X363375Y337805D01*
X307438Y281867D01*
X305508Y279938D01*
X302989Y278894D01*
X236761Y278894D01*
X234242Y279938D01*
X232313Y281867D01*
X231269Y284386D01*
X231269Y301958D01*
X231268Y301960D01*
X231268Y301961D01*
X199756Y333474D01*
X199754Y333474D01*
X199753Y333474D01*
X199750Y333474D01*
X195970Y329694D01*
X185030Y329694D01*
X177294Y337430D01*
X177294Y348370D01*
X184521Y355597D01*
X184522Y355603D01*
X184521Y355603D01*
X177294Y362830D01*
X177294Y371808D01*
X177293Y371810D01*
X177293Y371811D01*
X171988Y377117D01*
X170944Y379636D01*
X170944Y429989D01*
X171988Y432508D01*
X173917Y434438D01*
X202671Y463192D01*
X202672Y463193D01*
X202673Y463194D01*
X202672Y463196D01*
X202672Y463198D01*
X202670Y463198D01*
X202668Y463199D01*
X201236Y463199D01*
X197606Y464703D01*
X194828Y467481D01*
X193324Y471111D01*
X193324Y473202D01*
X193321Y473206D01*
X193320Y473206D01*
X182888Y473206D01*
X180648Y474134D01*
X178934Y475848D01*
X178006Y478088D01*
X178006Y509701D01*
X178005Y509702D01*
X178005Y509704D01*
X175778Y511931D01*
X174274Y515561D01*
X174274Y519489D01*
X175778Y523119D01*
X177293Y524634D01*
X177293Y524636D01*
X177294Y524637D01*
X177294Y547702D01*
X177291Y547706D01*
X177290Y547706D01*
X175288Y547706D01*
X173048Y548634D01*
X171334Y550348D01*
X170406Y552588D01*
X170406Y565012D01*
X171334Y567252D01*
X173048Y568966D01*
X175288Y569894D01*
X188712Y569894D01*
X190952Y568966D01*
X192666Y567252D01*
X193044Y566340D01*
X193046Y566339D01*
X193047Y566338D01*
X198994Y566338D01*
X198994Y558806D01*
X193598Y558806D01*
X193594Y558802D01*
X193594Y558798D01*
X193597Y558794D01*
X193598Y558794D01*
X198994Y558794D01*
X198994Y551262D01*
X193047Y551262D01*
X193045Y551260D01*
X193044Y551260D01*
X192666Y550348D01*
X191007Y548689D01*
X191007Y548687D01*
X191006Y548686D01*
X191006Y524637D01*
X191007Y524636D01*
X191007Y524634D01*
X192522Y523119D01*
X194026Y519489D01*
X194026Y517398D01*
X194029Y517394D01*
X194030Y517394D01*
X202690Y517394D01*
X202694Y517397D01*
X202694Y517398D01*
X202694Y551258D01*
X202691Y551262D01*
X202690Y551262D01*
X199006Y551262D01*
X199006Y558798D01*
X199004Y558800D01*
X199006Y558802D01*
X199006Y566338D01*
X202690Y566338D01*
X202694Y566341D01*
X202694Y566342D01*
X202694Y693514D01*
X203738Y696033D01*
X205667Y697962D01*
X208186Y699006D01*
X277589Y699006D01*
X280108Y697962D01*
X282037Y696033D01*
X283081Y693514D01*
X283081Y647367D01*
X283082Y647365D01*
X283082Y647364D01*
X321289Y609156D01*
X321292Y609156D01*
X321294Y609155D01*
X321749Y609344D01*
X338651Y609344D01*
X339106Y609155D01*
X339109Y609156D01*
X339111Y609156D01*
X401405Y671451D01*
X401405Y671453D01*
X401406Y671454D01*
X401406Y677612D01*
X401956Y678938D01*
X401955Y678939D01*
X401956Y678939D01*
X401955Y678941D01*
X401954Y678944D01*
X401953Y678943D01*
X401952Y678944D01*
X322942Y678944D01*
X322940Y678943D01*
X322939Y678943D01*
X322236Y678241D01*
X322236Y678239D01*
X322236Y678238D01*
X322235Y678236D01*
X322494Y677612D01*
X322494Y643188D01*
X321566Y640948D01*
X319852Y639234D01*
X317612Y638306D01*
X297188Y638306D01*
X294948Y639234D01*
X293234Y640948D01*
X292306Y643188D01*
X292306Y677612D01*
X293234Y679852D01*
X294948Y681566D01*
X297188Y682494D01*
X307097Y682494D01*
X307098Y682495D01*
X307100Y682495D01*
X316217Y691612D01*
X318736Y692656D01*
X561465Y692656D01*
X561469Y692659D01*
X561469Y692660D01*
X561469Y693514D01*
X562513Y696033D01*
X564442Y697962D01*
X566961Y699006D01*
X649064Y699006D01*
X651583Y697962D01*
X653512Y696033D01*
X654556Y693514D01*
X654556Y682498D01*
X654559Y682494D01*
X654560Y682494D01*
X660512Y682494D01*
X662752Y681566D01*
X664466Y679852D01*
X665394Y677612D01*
X665394Y643188D01*
X664466Y640948D01*
X662752Y639234D01*
X660512Y638306D01*
X640088Y638306D01*
X637848Y639234D01*
X636134Y640948D01*
X635206Y643188D01*
X635206Y663600D01*
X635205Y663602D01*
X635205Y663603D01*
X635204Y663603D01*
X635203Y663605D01*
X635202Y663604D01*
X635201Y663604D01*
X635201Y663603D01*
X635199Y663603D01*
X632332Y660736D01*
X632332Y660734D01*
X632331Y660733D01*
X632331Y428754D01*
X632334Y428750D01*
X632335Y428750D01*
X634994Y428750D01*
X634994Y419102D01*
X634996Y419100D01*
X634994Y419098D01*
X634994Y409450D01*
X632335Y409450D01*
X632331Y409447D01*
X632331Y409446D01*
X632331Y406910D01*
X632334Y406906D01*
X632335Y406906D01*
X640470Y406906D01*
X648206Y399170D01*
X648206Y390880D01*
X648209Y390876D01*
X648210Y390876D01*
X649664Y390876D01*
X653294Y389372D01*
X656072Y386594D01*
X657576Y382964D01*
X657576Y379036D01*
X656072Y375406D01*
X654557Y373891D01*
X654557Y373889D01*
X654556Y373888D01*
X654556Y288798D01*
X654559Y288794D01*
X654560Y288794D01*
X660512Y288794D01*
X662752Y287866D01*
X664466Y286152D01*
X665394Y283912D01*
X665394Y249488D01*
X664466Y247248D01*
X662752Y245534D01*
X660512Y244606D01*
X640088Y244606D01*
G37*
%LPD*%
G36*
X533401Y352598D02*
X533401Y352598D01*
X533403Y352598D01*
X533403Y352599D01*
X596393Y415588D01*
X596393Y415590D01*
X596394Y415591D01*
X596394Y424570D01*
X604130Y432306D01*
X609957Y432306D01*
X609960Y432308D01*
X609961Y432308D01*
X610753Y434219D01*
X613531Y436997D01*
X617161Y438501D01*
X618615Y438501D01*
X618619Y438504D01*
X618619Y438505D01*
X618619Y664939D01*
X619663Y667458D01*
X637491Y685287D01*
X637492Y685288D01*
X637493Y685289D01*
X637492Y685291D01*
X637492Y685293D01*
X637490Y685293D01*
X637488Y685294D01*
X575185Y685294D01*
X575181Y685291D01*
X575181Y685290D01*
X575181Y684436D01*
X574137Y681917D01*
X572208Y679988D01*
X569689Y678944D01*
X487048Y678944D01*
X487047Y678944D01*
X487046Y678943D01*
X487044Y678941D01*
X487045Y678940D01*
X487045Y678939D01*
X487044Y678938D01*
X487594Y677612D01*
X487594Y643188D01*
X486666Y640948D01*
X484952Y639234D01*
X482712Y638306D01*
X479935Y638306D01*
X479931Y638303D01*
X479931Y638302D01*
X479931Y612441D01*
X479932Y612440D01*
X479932Y612438D01*
X530933Y561438D01*
X532863Y559508D01*
X547875Y544495D01*
X547878Y544495D01*
X547878Y544494D01*
X557012Y544494D01*
X559252Y543566D01*
X560966Y541852D01*
X561344Y540940D01*
X561346Y540939D01*
X561347Y540938D01*
X567294Y540938D01*
X567294Y533406D01*
X561898Y533406D01*
X561894Y533402D01*
X561894Y533398D01*
X561897Y533394D01*
X561898Y533394D01*
X567294Y533394D01*
X567294Y525862D01*
X561347Y525862D01*
X561345Y525860D01*
X561344Y525860D01*
X560966Y524948D01*
X559252Y523234D01*
X557012Y522306D01*
X543588Y522306D01*
X541348Y523234D01*
X539634Y524948D01*
X538706Y527188D01*
X538706Y534272D01*
X538705Y534273D01*
X538705Y534275D01*
X529070Y543910D01*
X529067Y543910D01*
X529065Y543910D01*
X525839Y542574D01*
X521911Y542574D01*
X518281Y544078D01*
X515503Y546856D01*
X513999Y550486D01*
X513999Y554414D01*
X515335Y557640D01*
X515335Y557641D01*
X515336Y557641D01*
X515335Y557642D01*
X515334Y557643D01*
X515335Y557645D01*
X469192Y603787D01*
X467263Y605717D01*
X466219Y608236D01*
X466219Y638302D01*
X466216Y638306D01*
X466215Y638306D01*
X462288Y638306D01*
X460048Y639234D01*
X458334Y640948D01*
X457406Y643188D01*
X457406Y677612D01*
X457956Y678938D01*
X457955Y678939D01*
X457956Y678939D01*
X457955Y678941D01*
X457954Y678944D01*
X457953Y678943D01*
X457952Y678944D01*
X431048Y678944D01*
X431047Y678944D01*
X431046Y678943D01*
X431044Y678941D01*
X431045Y678940D01*
X431045Y678939D01*
X431044Y678938D01*
X431594Y677612D01*
X431594Y657604D01*
X431595Y657602D01*
X431595Y657601D01*
X453487Y635708D01*
X454531Y633189D01*
X454531Y444855D01*
X454534Y444851D01*
X454535Y444851D01*
X455989Y444851D01*
X459619Y443347D01*
X462397Y440569D01*
X462498Y440326D01*
X462500Y440325D01*
X462501Y440323D01*
X462502Y440324D01*
X462503Y440323D01*
X462504Y440326D01*
X462506Y440327D01*
X462506Y450712D01*
X463434Y452952D01*
X465148Y454666D01*
X467388Y455594D01*
X480812Y455594D01*
X483052Y454666D01*
X484766Y452952D01*
X485144Y452040D01*
X485146Y452039D01*
X485147Y452038D01*
X491094Y452038D01*
X491094Y444502D01*
X491097Y444498D01*
X491098Y444498D01*
X491102Y444494D01*
X499138Y444494D01*
X499138Y438995D01*
X499000Y438662D01*
X499000Y438661D01*
X498999Y438661D01*
X499000Y438659D01*
X499001Y438656D01*
X499003Y438657D01*
X499004Y438656D01*
X522064Y438656D01*
X524583Y437612D01*
X526512Y435683D01*
X527556Y433164D01*
X527556Y384862D01*
X527557Y384860D01*
X527557Y384859D01*
X527558Y384859D01*
X527559Y384857D01*
X527561Y384858D01*
X527561Y384859D01*
X527563Y384859D01*
X586868Y444164D01*
X586868Y444165D01*
X586868Y444166D01*
X586869Y444167D01*
X586869Y638302D01*
X586866Y638306D01*
X586865Y638306D01*
X584088Y638306D01*
X581848Y639234D01*
X580134Y640948D01*
X579206Y643188D01*
X579206Y677612D01*
X580134Y679852D01*
X581848Y681566D01*
X584088Y682494D01*
X604512Y682494D01*
X606752Y681566D01*
X608466Y679852D01*
X609394Y677612D01*
X609394Y643188D01*
X608466Y640948D01*
X606752Y639234D01*
X604512Y638306D01*
X600585Y638306D01*
X600581Y638303D01*
X600581Y638302D01*
X600581Y439961D01*
X599537Y437442D01*
X597608Y435512D01*
X536927Y374832D01*
X536927Y374829D01*
X536926Y374829D01*
X536926Y372686D01*
X535422Y369056D01*
X532644Y366278D01*
X529014Y364774D01*
X527560Y364774D01*
X527556Y364771D01*
X527556Y364770D01*
X527556Y358442D01*
X527557Y358440D01*
X527557Y358439D01*
X533397Y352599D01*
X533399Y352598D01*
X533400Y352598D01*
X533401Y352598D01*
G37*
G36*
X412244Y483109D02*
X412244Y483109D01*
X412244Y483110D01*
X412244Y573358D01*
X412241Y573362D01*
X412240Y573362D01*
X410606Y573362D01*
X410606Y580398D01*
X410604Y580400D01*
X410606Y580402D01*
X410606Y587438D01*
X412240Y587438D01*
X412244Y587441D01*
X412244Y587442D01*
X412244Y602863D01*
X412242Y602865D01*
X412242Y602867D01*
X410148Y603734D01*
X408434Y605448D01*
X407506Y607688D01*
X407506Y619112D01*
X408434Y621352D01*
X410148Y623066D01*
X412388Y623994D01*
X425812Y623994D01*
X428052Y623066D01*
X429766Y621352D01*
X430694Y619112D01*
X430694Y610879D01*
X430695Y610877D01*
X430695Y610876D01*
X440812Y600759D01*
X440813Y600758D01*
X440814Y600757D01*
X440816Y600758D01*
X440818Y600758D01*
X440818Y600760D01*
X440819Y600762D01*
X440819Y628983D01*
X440818Y628985D01*
X440818Y628986D01*
X429764Y640040D01*
X429759Y640041D01*
X429759Y640040D01*
X429758Y640040D01*
X428952Y639234D01*
X426712Y638306D01*
X406288Y638306D01*
X404048Y639234D01*
X402334Y640948D01*
X401406Y643188D01*
X401406Y652050D01*
X401405Y652052D01*
X401405Y652053D01*
X401404Y652053D01*
X401403Y652055D01*
X401401Y652053D01*
X401399Y652053D01*
X343534Y594188D01*
X343534Y594186D01*
X343533Y594185D01*
X343533Y589338D01*
X342605Y587098D01*
X340891Y585384D01*
X338651Y584456D01*
X321749Y584456D01*
X319509Y585384D01*
X317795Y587098D01*
X316867Y589338D01*
X316867Y594185D01*
X316866Y594187D01*
X316866Y594188D01*
X270413Y640642D01*
X269369Y643161D01*
X269369Y685290D01*
X269366Y685294D01*
X269365Y685294D01*
X216410Y685294D01*
X216406Y685291D01*
X216406Y685290D01*
X216406Y667260D01*
X216409Y667256D01*
X216410Y667256D01*
X236302Y667256D01*
X236306Y667259D01*
X236306Y667260D01*
X236306Y677612D01*
X237234Y679852D01*
X238948Y681566D01*
X241188Y682494D01*
X261612Y682494D01*
X263852Y681566D01*
X265566Y679852D01*
X266494Y677612D01*
X266494Y643188D01*
X265566Y640948D01*
X263852Y639234D01*
X261612Y638306D01*
X241188Y638306D01*
X238948Y639234D01*
X237234Y640948D01*
X236306Y643188D01*
X236306Y653540D01*
X236303Y653544D01*
X236302Y653544D01*
X219585Y653544D01*
X219581Y653541D01*
X219581Y653540D01*
X219581Y537227D01*
X219582Y537225D01*
X219583Y537223D01*
X219584Y537224D01*
X219584Y537223D01*
X219586Y537225D01*
X219589Y537225D01*
X219613Y537283D01*
X221542Y539212D01*
X224061Y540256D01*
X253363Y540256D01*
X253367Y540259D01*
X253367Y540260D01*
X253367Y540962D01*
X254295Y543202D01*
X256009Y544916D01*
X258249Y545844D01*
X273510Y545844D01*
X273512Y545845D01*
X273513Y545845D01*
X274476Y546808D01*
X276406Y548737D01*
X278925Y549781D01*
X369664Y549781D01*
X372183Y548737D01*
X374112Y546808D01*
X375156Y544289D01*
X375156Y540942D01*
X375159Y540938D01*
X375160Y540938D01*
X376794Y540938D01*
X376794Y533402D01*
X376796Y533400D01*
X376794Y533398D01*
X376794Y525862D01*
X375160Y525862D01*
X375156Y525859D01*
X375156Y525858D01*
X375156Y504384D01*
X375157Y504383D01*
X375157Y504381D01*
X375158Y504381D01*
X375159Y504380D01*
X375160Y504380D01*
X375161Y504381D01*
X375163Y504381D01*
X376248Y505466D01*
X378488Y506394D01*
X391912Y506394D01*
X394152Y505466D01*
X395866Y503752D01*
X396244Y502840D01*
X396246Y502839D01*
X396248Y502838D01*
X402194Y502838D01*
X402194Y495306D01*
X397050Y495306D01*
X397048Y495305D01*
X397047Y495305D01*
X397047Y495304D01*
X397045Y495302D01*
X397047Y495301D01*
X397047Y495299D01*
X397051Y495295D01*
X397053Y495295D01*
X397054Y495294D01*
X402198Y495294D01*
X402200Y495296D01*
X402202Y495294D01*
X410238Y495294D01*
X410238Y489795D01*
X409851Y488862D01*
X409138Y488149D01*
X408205Y487762D01*
X402258Y487762D01*
X402257Y487762D01*
X402256Y487762D01*
X402256Y487761D01*
X402253Y487759D01*
X402253Y487758D01*
X402254Y487758D01*
X402254Y487756D01*
X403576Y484564D01*
X403576Y483110D01*
X403579Y483106D01*
X403580Y483106D01*
X412240Y483106D01*
X412244Y483109D01*
G37*
%LPC*%
G36*
X149385Y657942D02*
X149385Y657942D01*
X143814Y660250D01*
X139550Y664514D01*
X137242Y670085D01*
X137242Y676115D01*
X139550Y681686D01*
X143814Y685950D01*
X149385Y688258D01*
X155415Y688258D01*
X160986Y685950D01*
X165250Y681686D01*
X167558Y676115D01*
X167558Y670085D01*
X165250Y664514D01*
X160986Y660250D01*
X155415Y657942D01*
X149385Y657942D01*
G37*
%LPD*%
%LPC*%
G36*
X695485Y442042D02*
X695485Y442042D01*
X689914Y444350D01*
X685650Y448614D01*
X683342Y454185D01*
X683342Y460215D01*
X685650Y465786D01*
X689914Y470050D01*
X695485Y472358D01*
X701515Y472358D01*
X707086Y470050D01*
X711350Y465786D01*
X713658Y460215D01*
X713658Y454185D01*
X711350Y448614D01*
X707086Y444350D01*
X701515Y442042D01*
X695485Y442042D01*
G37*
%LPD*%
%LPC*%
G36*
X695485Y226142D02*
X695485Y226142D01*
X689914Y228450D01*
X685650Y232714D01*
X683342Y238285D01*
X683342Y244315D01*
X685650Y249886D01*
X689914Y254150D01*
X695485Y256458D01*
X701515Y256458D01*
X707086Y254150D01*
X711350Y249886D01*
X713658Y244315D01*
X713658Y238285D01*
X711350Y232714D01*
X707086Y228450D01*
X701515Y226142D01*
X695485Y226142D01*
G37*
%LPD*%
%LPC*%
G36*
X200185Y226142D02*
X200185Y226142D01*
X194614Y228450D01*
X190350Y232714D01*
X188042Y238285D01*
X188042Y244315D01*
X190350Y249886D01*
X194614Y254150D01*
X200185Y256458D01*
X206215Y256458D01*
X211786Y254150D01*
X216050Y249886D01*
X218358Y244315D01*
X218358Y238285D01*
X216050Y232714D01*
X211786Y228450D01*
X206215Y226142D01*
X200185Y226142D01*
G37*
%LPD*%
%LPC*%
G36*
X695485Y670642D02*
X695485Y670642D01*
X689914Y672950D01*
X685650Y677214D01*
X683342Y682785D01*
X683342Y688815D01*
X685650Y694386D01*
X689914Y698650D01*
X695485Y700958D01*
X701515Y700958D01*
X707086Y698650D01*
X711350Y694386D01*
X713658Y688815D01*
X713658Y682785D01*
X711350Y677214D01*
X707086Y672950D01*
X701515Y670642D01*
X695485Y670642D01*
G37*
%LPD*%
%LPC*%
G36*
X149385Y264242D02*
X149385Y264242D01*
X143814Y266550D01*
X139550Y270814D01*
X137242Y276385D01*
X137242Y282415D01*
X139550Y287986D01*
X143814Y292250D01*
X149385Y294558D01*
X155415Y294558D01*
X160986Y292250D01*
X165250Y287986D01*
X167558Y282415D01*
X167558Y276385D01*
X165250Y270814D01*
X160986Y266550D01*
X155415Y264242D01*
X149385Y264242D01*
G37*
%LPD*%
%LPC*%
G36*
X149385Y607142D02*
X149385Y607142D01*
X143814Y609450D01*
X139550Y613714D01*
X137242Y619285D01*
X137242Y625315D01*
X139550Y630886D01*
X143814Y635150D01*
X149385Y637458D01*
X155415Y637458D01*
X160986Y635150D01*
X165250Y630886D01*
X167558Y625315D01*
X167558Y619285D01*
X165250Y613714D01*
X160986Y609450D01*
X155415Y607142D01*
X149385Y607142D01*
G37*
%LPD*%
%LPC*%
G36*
X125562Y495306D02*
X125562Y495306D01*
X125562Y511805D01*
X125949Y512738D01*
X126662Y513451D01*
X127595Y513838D01*
X137094Y513838D01*
X137094Y495306D01*
X125562Y495306D01*
G37*
%LPD*%
%LPC*%
G36*
X279406Y264106D02*
X279406Y264106D01*
X279406Y275638D01*
X295905Y275638D01*
X296838Y275251D01*
X297551Y274538D01*
X297938Y273605D01*
X297938Y264106D01*
X279406Y264106D01*
G37*
%LPD*%
%LPC*%
G36*
X657806Y584206D02*
X657806Y584206D01*
X657806Y602738D01*
X667305Y602738D01*
X668238Y602351D01*
X668951Y601638D01*
X669338Y600705D01*
X669338Y584206D01*
X657806Y584206D01*
G37*
%LPD*%
%LPC*%
G36*
X137106Y495306D02*
X137106Y495306D01*
X137106Y513838D01*
X146605Y513838D01*
X147538Y513451D01*
X148251Y512738D01*
X148638Y511805D01*
X148638Y495306D01*
X137106Y495306D01*
G37*
%LPD*%
%LPC*%
G36*
X594306Y266706D02*
X594306Y266706D01*
X594306Y285238D01*
X603805Y285238D01*
X604738Y284851D01*
X605451Y284138D01*
X605838Y283205D01*
X605838Y266706D01*
X594306Y266706D01*
G37*
%LPD*%
%LPC*%
G36*
X582762Y266706D02*
X582762Y266706D01*
X582762Y283205D01*
X583149Y284138D01*
X583862Y284851D01*
X584795Y285238D01*
X594294Y285238D01*
X594294Y266706D01*
X582762Y266706D01*
G37*
%LPD*%
%LPC*%
G36*
X646262Y584206D02*
X646262Y584206D01*
X646262Y600705D01*
X646649Y601638D01*
X647362Y602351D01*
X648295Y602738D01*
X657794Y602738D01*
X657794Y584206D01*
X646262Y584206D01*
G37*
%LPD*%
%LPC*%
G36*
X594306Y248162D02*
X594306Y248162D01*
X594306Y266694D01*
X605838Y266694D01*
X605838Y250195D01*
X605451Y249262D01*
X604738Y248549D01*
X603805Y248162D01*
X594306Y248162D01*
G37*
%LPD*%
%LPC*%
G36*
X137106Y476762D02*
X137106Y476762D01*
X137106Y495294D01*
X148638Y495294D01*
X148638Y478795D01*
X148251Y477862D01*
X147538Y477149D01*
X146605Y476762D01*
X137106Y476762D01*
G37*
%LPD*%
%LPC*%
G36*
X260862Y264106D02*
X260862Y264106D01*
X260862Y273605D01*
X261249Y274538D01*
X261962Y275251D01*
X262895Y275638D01*
X279394Y275638D01*
X279394Y264106D01*
X260862Y264106D01*
G37*
%LPD*%
%LPC*%
G36*
X657806Y565662D02*
X657806Y565662D01*
X657806Y584194D01*
X669338Y584194D01*
X669338Y567695D01*
X668951Y566762D01*
X668238Y566049D01*
X667305Y565662D01*
X657806Y565662D01*
G37*
%LPD*%
%LPC*%
G36*
X262895Y252562D02*
X262895Y252562D01*
X261962Y252949D01*
X261249Y253662D01*
X260862Y254595D01*
X260862Y264094D01*
X279394Y264094D01*
X279394Y252562D01*
X262895Y252562D01*
G37*
%LPD*%
%LPC*%
G36*
X279406Y252562D02*
X279406Y252562D01*
X279406Y264094D01*
X297938Y264094D01*
X297938Y254595D01*
X297551Y253662D01*
X296838Y252949D01*
X295905Y252562D01*
X279406Y252562D01*
G37*
%LPD*%
%LPC*%
G36*
X127595Y476762D02*
X127595Y476762D01*
X126662Y477149D01*
X125949Y477862D01*
X125562Y478795D01*
X125562Y495294D01*
X137094Y495294D01*
X137094Y476762D01*
X127595Y476762D01*
G37*
%LPD*%
%LPC*%
G36*
X584795Y248162D02*
X584795Y248162D01*
X583862Y248549D01*
X583149Y249262D01*
X582762Y250195D01*
X582762Y266694D01*
X594294Y266694D01*
X594294Y248162D01*
X584795Y248162D01*
G37*
%LPD*%
%LPC*%
G36*
X648295Y565662D02*
X648295Y565662D01*
X647362Y566049D01*
X646649Y566762D01*
X646262Y567695D01*
X646262Y584194D01*
X657794Y584194D01*
X657794Y565662D01*
X648295Y565662D01*
G37*
%LPD*%
%LPC*%
G36*
X635006Y419106D02*
X635006Y419106D01*
X635006Y428750D01*
X638997Y428750D01*
X644650Y423097D01*
X644650Y419106D01*
X635006Y419106D01*
G37*
%LPD*%
%LPC*%
G36*
X635006Y409450D02*
X635006Y409450D01*
X635006Y419094D01*
X644650Y419094D01*
X644650Y415103D01*
X638997Y409450D01*
X635006Y409450D01*
G37*
%LPD*%
%LPC*%
G36*
X625350Y342906D02*
X625350Y342906D01*
X625350Y346897D01*
X631003Y352550D01*
X634994Y352550D01*
X634994Y342906D01*
X625350Y342906D01*
G37*
%LPD*%
%LPC*%
G36*
X631003Y333250D02*
X631003Y333250D01*
X625350Y338903D01*
X625350Y342894D01*
X634994Y342894D01*
X634994Y333250D01*
X631003Y333250D01*
G37*
%LPD*%
%LPC*%
G36*
X402206Y495306D02*
X402206Y495306D01*
X402206Y502838D01*
X408205Y502838D01*
X409138Y502451D01*
X409851Y501738D01*
X410238Y500805D01*
X410238Y495306D01*
X402206Y495306D01*
G37*
%LPD*%
%LPC*%
G36*
X491106Y444506D02*
X491106Y444506D01*
X491106Y452038D01*
X497105Y452038D01*
X498038Y451651D01*
X498751Y450938D01*
X499138Y450005D01*
X499138Y444506D01*
X491106Y444506D01*
G37*
%LPD*%
%LPC*%
G36*
X376806Y533406D02*
X376806Y533406D01*
X376806Y540938D01*
X382805Y540938D01*
X383738Y540551D01*
X384451Y539838D01*
X384838Y538905D01*
X384838Y533406D01*
X376806Y533406D01*
G37*
%LPD*%
%LPC*%
G36*
X567306Y533406D02*
X567306Y533406D01*
X567306Y540938D01*
X573305Y540938D01*
X574238Y540551D01*
X574951Y539838D01*
X575338Y538905D01*
X575338Y533406D01*
X567306Y533406D01*
G37*
%LPD*%
%LPC*%
G36*
X567306Y525862D02*
X567306Y525862D01*
X567306Y533394D01*
X575338Y533394D01*
X575338Y527895D01*
X574951Y526962D01*
X574238Y526249D01*
X573305Y525862D01*
X567306Y525862D01*
G37*
%LPD*%
%LPC*%
G36*
X376806Y525862D02*
X376806Y525862D01*
X376806Y533394D01*
X384838Y533394D01*
X384838Y527895D01*
X384451Y526962D01*
X383738Y526249D01*
X382805Y525862D01*
X376806Y525862D01*
G37*
%LPD*%
%LPC*%
G36*
X403062Y580406D02*
X403062Y580406D01*
X403062Y585405D01*
X403449Y586338D01*
X404162Y587051D01*
X405095Y587438D01*
X410594Y587438D01*
X410594Y580406D01*
X403062Y580406D01*
G37*
%LPD*%
%LPC*%
G36*
X405095Y573362D02*
X405095Y573362D01*
X404162Y573749D01*
X403449Y574462D01*
X403062Y575395D01*
X403062Y580394D01*
X410594Y580394D01*
X410594Y573362D01*
X405095Y573362D01*
G37*
%LPD*%
D10*
X423300Y317500D03*
X440300Y317500D03*
X182000Y558800D03*
X199000Y558800D03*
X550300Y533400D03*
X567300Y533400D03*
X474100Y444500D03*
X491100Y444500D03*
X385200Y495300D03*
X402200Y495300D03*
X359800Y533400D03*
X376800Y533400D03*
D11*
X364700Y410250D03*
X364700Y403750D03*
X364700Y397250D03*
X364700Y390750D03*
X364700Y384250D03*
X364700Y377750D03*
X364700Y371250D03*
X364700Y364750D03*
X364700Y358250D03*
X364700Y351750D03*
X422700Y351750D03*
X422700Y358250D03*
X422700Y364750D03*
X422700Y371250D03*
X422700Y377750D03*
X422700Y384250D03*
X422700Y390750D03*
X422700Y397250D03*
X422700Y403750D03*
X422700Y410250D03*
D12*
X393700Y381000D03*
D11*
X422700Y345250D03*
X422700Y416750D03*
X364700Y345250D03*
X364700Y416750D03*
D13*
X262636Y533400D03*
X270764Y533400D03*
D14*
X190500Y419100D03*
X215900Y419100D03*
X190500Y393700D03*
X215900Y393700D03*
X190500Y368300D03*
X215900Y368300D03*
X215900Y342900D03*
X190500Y342900D03*
D13*
X326136Y596900D03*
X334264Y596900D03*
D14*
X609600Y419100D03*
X635000Y419100D03*
X609600Y393700D03*
X635000Y393700D03*
X609600Y368300D03*
X635000Y368300D03*
X635000Y342900D03*
X609600Y342900D03*
D15*
X594300Y266700D03*
X650300Y266700D03*
X594300Y660400D03*
X650300Y660400D03*
X307400Y660400D03*
X251400Y660400D03*
X561400Y317500D03*
X505400Y317500D03*
D16*
X279400Y264100D03*
X279400Y320100D03*
D15*
X657800Y584200D03*
X713800Y584200D03*
X472500Y660400D03*
X416500Y660400D03*
X137100Y495300D03*
X193100Y495300D03*
D17*
X410600Y580400D03*
D18*
X419100Y613400D03*
D17*
X427600Y580400D03*
D19*
X361950Y415925D02*
X352425Y415925D01*
X361950Y415925D02*
X364700Y416750D01*
X212725Y457200D02*
X212725Y660400D01*
X212725Y457200D02*
X180975Y425450D01*
X180975Y403225D01*
X190500Y393700D01*
X212725Y660400D02*
X251400Y660400D01*
D20*
X352425Y415925D03*
D19*
X352425Y409575D02*
X361950Y409575D01*
X352425Y409575D02*
X352425Y406400D01*
X282575Y374650D02*
X282575Y320675D01*
X361950Y409575D02*
X364700Y410250D01*
X282575Y320675D02*
X279400Y320100D01*
D20*
X352425Y406400D03*
X282575Y374650D03*
D19*
X358775Y403225D02*
X361950Y403225D01*
X358775Y403225D02*
X355600Y400050D01*
X346075Y400050D01*
X346075Y460375D01*
X203200Y473075D02*
X193675Y482600D01*
X193675Y495300D01*
X361950Y403225D02*
X364700Y403750D01*
X193675Y495300D02*
X193100Y495300D01*
D20*
X346075Y460375D03*
X203200Y473075D03*
D19*
X365125Y396875D02*
X374650Y396875D01*
X374650Y425450D01*
X619125Y428625D02*
X619125Y377825D01*
X609600Y368300D01*
X365125Y396875D02*
X364700Y397250D01*
D20*
X374650Y425450D03*
X619125Y428625D03*
D19*
X374650Y384175D02*
X365125Y384175D01*
X374650Y384175D02*
X374650Y336550D01*
X365125Y384175D02*
X364700Y384250D01*
D20*
X374650Y336550D03*
D19*
X361950Y377825D02*
X352425Y377825D01*
X352425Y374650D01*
X361950Y377825D02*
X364700Y377750D01*
D20*
X352425Y374650D03*
D19*
X342900Y365125D02*
X361950Y365125D01*
X342900Y365125D02*
X342900Y384175D01*
X361950Y365125D02*
X364700Y364750D01*
D20*
X342900Y384175D03*
D19*
X361950Y352425D02*
X288925Y352425D01*
X288925Y377825D01*
X282575Y384175D01*
X206375Y384175D01*
X206375Y409575D01*
X215900Y419100D01*
X361950Y352425D02*
X364700Y351750D01*
X361950Y346075D02*
X301625Y285750D01*
X238125Y285750D01*
X238125Y304800D01*
X200025Y342900D01*
X200025Y409575D01*
X190500Y419100D01*
X361950Y346075D02*
X364700Y345250D01*
X361950Y358775D02*
X295275Y358775D01*
X361950Y358775D02*
X364700Y358250D01*
D20*
X295275Y358775D03*
D19*
X434975Y571500D02*
X428625Y577850D01*
X434975Y571500D02*
X434975Y425450D01*
X425450Y415925D01*
X428625Y577850D02*
X427600Y580400D01*
X422700Y416750D02*
X425450Y415925D01*
X438150Y593725D02*
X419100Y612775D01*
X438150Y593725D02*
X438150Y415925D01*
X428625Y406400D02*
X425450Y403225D01*
X428625Y406400D02*
X438150Y415925D01*
X425450Y403225D02*
X422700Y403750D01*
X425450Y409575D02*
X428625Y406400D01*
X425450Y409575D02*
X422700Y410250D01*
X368300Y495300D02*
X368300Y542925D01*
X368300Y495300D02*
X387350Y476250D01*
X419100Y476250D01*
X419100Y612775D01*
X368300Y542925D02*
X280289Y542925D01*
X270764Y533400D01*
X419100Y612775D02*
X419100Y613400D01*
X409575Y577850D02*
X377825Y546100D01*
X377825Y533400D01*
X409575Y577850D02*
X410600Y580400D01*
X377825Y517525D02*
X400050Y495300D01*
X377825Y517525D02*
X377825Y533400D01*
X400050Y495300D02*
X402200Y495300D01*
X377825Y533400D02*
X376800Y533400D01*
X425450Y396875D02*
X441325Y396875D01*
X441325Y409575D02*
X441325Y606425D01*
X441325Y409575D02*
X441325Y396875D01*
X441325Y606425D02*
X425450Y622300D01*
X409575Y622300D01*
X409575Y581025D01*
X422700Y397250D02*
X425450Y396875D01*
X410600Y580400D02*
X409575Y581025D01*
X196850Y558800D02*
X187325Y568325D01*
X139700Y568325D01*
X139700Y495300D01*
X196850Y558800D02*
X199000Y558800D01*
X491100Y449825D02*
X565150Y523875D01*
X491100Y449825D02*
X491100Y444500D01*
X565150Y523875D02*
X565150Y533400D01*
X567300Y533400D01*
X635000Y342900D02*
X596900Y304800D01*
X596900Y266700D01*
X594300Y266700D01*
X517525Y266700D01*
X279400Y266700D01*
X279400Y264100D01*
X635000Y536575D02*
X657800Y559375D01*
X635000Y536575D02*
X635000Y419100D01*
X657800Y559375D02*
X657800Y584200D01*
X491100Y457200D02*
X463550Y457200D01*
X463550Y431800D01*
X517525Y377825D01*
X517525Y266700D01*
X491100Y444500D02*
X491100Y457200D01*
X174625Y460375D02*
X139700Y495300D01*
X174625Y460375D02*
X174625Y342900D01*
X250825Y266700D01*
X276225Y266700D01*
X139700Y495300D02*
X137100Y495300D01*
X276225Y266700D02*
X279400Y264100D01*
D20*
X441325Y409575D03*
X177800Y266700D03*
X254000Y228600D03*
X711200Y279400D03*
X698500Y482600D03*
X190500Y622300D03*
X177800Y660400D03*
X558800Y482600D03*
X546100Y635000D03*
X685800Y635000D03*
X609600Y609600D03*
D19*
X254000Y263525D02*
X250825Y266700D01*
X254000Y263525D02*
X254000Y228600D01*
X250825Y266700D02*
X177800Y266700D01*
X635000Y536575D02*
X688975Y482600D01*
X698500Y482600D01*
X527050Y555625D02*
X473075Y609600D01*
X527050Y555625D02*
X549275Y533400D01*
X473075Y609600D02*
X473075Y660400D01*
X549275Y533400D02*
X550300Y533400D01*
X473075Y660400D02*
X472500Y660400D01*
X422275Y390525D02*
X412750Y390525D01*
X412750Y441325D01*
X428625Y457200D01*
X523875Y552450D02*
X527050Y555625D01*
X422700Y390750D02*
X422275Y390525D01*
D20*
X428625Y457200D03*
X523875Y552450D03*
D19*
X444500Y349250D02*
X423300Y328050D01*
X423300Y317500D01*
X444500Y349250D02*
X444500Y352425D01*
X434975Y374650D02*
X431800Y374650D01*
X428625Y371475D01*
X425450Y371475D01*
X422700Y371250D01*
D20*
X444500Y352425D03*
X434975Y374650D03*
D19*
X425450Y358775D02*
X447675Y358775D01*
X447675Y631825D01*
X419100Y660400D01*
X425450Y358775D02*
X422700Y358250D01*
X419100Y660400D02*
X416500Y660400D01*
X406400Y666750D02*
X336550Y596900D01*
X406400Y666750D02*
X415925Y666750D01*
X415925Y660400D01*
X336550Y596900D02*
X334264Y596900D01*
X415925Y660400D02*
X416500Y660400D01*
X425450Y352425D02*
X434975Y352425D01*
X425450Y352425D02*
X422700Y351750D01*
D20*
X434975Y352425D03*
D19*
X422275Y346075D02*
X415925Y339725D01*
X415925Y333375D01*
X422700Y345250D02*
X422275Y346075D01*
D20*
X415925Y333375D03*
D19*
X225425Y403225D02*
X225425Y533400D01*
X225425Y403225D02*
X215900Y393700D01*
X225425Y533400D02*
X262636Y533400D01*
X323850Y596900D02*
X276225Y644525D01*
X276225Y692150D01*
X209550Y692150D01*
X209550Y685800D02*
X209550Y460375D01*
X209550Y685800D02*
X209550Y692150D01*
X209550Y460375D02*
X177800Y428625D01*
X177800Y381000D01*
X190500Y368300D01*
X323850Y596900D02*
X326136Y596900D01*
X520700Y431800D02*
X520700Y355600D01*
X533400Y342900D02*
X558800Y317500D01*
X533400Y342900D02*
X520700Y355600D01*
X520700Y431800D02*
X486800Y431800D01*
X474100Y444500D01*
X558800Y317500D02*
X561400Y317500D01*
X365125Y530225D02*
X361950Y533400D01*
X365125Y530225D02*
X365125Y425450D01*
X361950Y533400D02*
X359800Y533400D01*
X184150Y517525D02*
X184150Y558800D01*
X182000Y558800D01*
D20*
X365125Y425450D03*
X184150Y517525D03*
D19*
X409575Y307975D02*
X440300Y307975D01*
X409575Y307975D02*
X409575Y336550D01*
X412750Y339725D01*
X412750Y374650D01*
X419100Y381000D02*
X422275Y384175D01*
X419100Y381000D02*
X412750Y374650D01*
X440300Y317500D02*
X440300Y307975D01*
X422700Y384250D02*
X422275Y384175D01*
X419100Y381000D02*
X422275Y377825D01*
X422700Y377750D01*
X533400Y342900D02*
X609600Y419100D01*
D20*
X482600Y279400D03*
D19*
X444500Y317500D01*
D20*
X558800Y279400D03*
D19*
X558800Y292100D01*
X558800Y304800D01*
X533400Y292100D02*
X533400Y342900D01*
X533400Y292100D02*
X558800Y292100D01*
X609600Y342900D02*
X625475Y358775D01*
X625475Y663575D01*
X647700Y685800D01*
X568325Y685800D02*
X320100Y685800D01*
X307400Y673100D01*
X307400Y660400D01*
X568325Y685800D02*
X568325Y692150D01*
X647700Y692150D01*
X647700Y660400D01*
X650300Y660400D01*
X393700Y488950D02*
X387350Y495300D01*
X393700Y488950D02*
X393700Y482600D01*
X454025Y434975D02*
X504825Y384175D01*
X504825Y317500D01*
X387350Y495300D02*
X385200Y495300D01*
X504825Y317500D02*
X505400Y317500D01*
D20*
X393700Y482600D03*
X454025Y434975D03*
D19*
X361950Y371475D02*
X358775Y371475D01*
X355600Y368300D01*
X346075Y368300D01*
X346075Y377825D01*
X352425Y384175D01*
X647700Y381000D02*
X647700Y266700D01*
X364700Y371250D02*
X361950Y371475D01*
X647700Y266700D02*
X650300Y266700D01*
D20*
X352425Y384175D03*
X647700Y381000D03*
D19*
X361950Y390525D02*
X339725Y390525D01*
X339725Y444500D01*
X361950Y390525D02*
X364700Y390750D01*
X713800Y561400D02*
X713800Y584200D01*
X713800Y561400D02*
X711200Y558800D01*
D20*
X339725Y444500D03*
X711200Y558800D03*
D19*
X441325Y365125D02*
X425450Y365125D01*
X527050Y374650D02*
X593725Y441325D01*
X593725Y660400D01*
X425450Y365125D02*
X422700Y364750D01*
X593725Y660400D02*
X594300Y660400D01*
D20*
X441325Y365125D03*
X527050Y374650D03*
X393700Y406400D03*
M02*
