M48
;GenerationSoftware,Autodesk,EAGLE,9.2.2*%
;CreationDate,2019-12-02T18:16:58Z*%
FMAT,2
ICI,OFF
METRIC,TZ,000.0000
T3C0.3500
T2C0.9144
T1C1.0000
%
G90
M71
T1
X698500Y685800
X152400Y279400
X698500Y241300
X152400Y622300
X203200Y241300
X698500Y457200
X152400Y673100
T2
X609600Y342900
X635000Y342900
X635000Y368300
X609600Y368300
X635000Y393700
X609600Y393700
X635000Y419100
X609600Y419100
X190500Y342900
X215900Y342900
X215900Y368300
X190500Y368300
X215900Y393700
X190500Y393700
X215900Y419100
X190500Y419100
T3
X523875Y552450
X444500Y352425
X434975Y374650
X434975Y352425
X415925Y333375
X365125Y425450
X184150Y517525
X482600Y279400
X558800Y279400
X352425Y415925
X454025Y434975
X352425Y384175
X647700Y381000
X339725Y444500
X711200Y558800
X441325Y365125
X527050Y374650
X393700Y406400
X428625Y457200
X609600Y609600
X685800Y635000
X546100Y635000
X558800Y482600
X177800Y660400
X190500Y622300
X698500Y482600
X711200Y279400
X254000Y228600
X177800Y266700
X441325Y409575
X295275Y358775
X342900Y384175
X352425Y374650
X374650Y336550
X619125Y428625
X374650Y425450
X203200Y473075
X346075Y460375
X282575Y374650
X352425Y406400
X393700Y482600
M30