G04 EAGLE Gerber RS-274X export*
G75*
%MOMM*%
%FSLAX34Y34*%
%LPD*%
%IN*%
%IPPOS*%
%AMOC8*
5,1,8,0,0,1.08239X$1,22.5*%
G01*
%ADD10C,0.254000*%


D10*
X114300Y203200D02*
X733300Y203200D01*
X733300Y723800D01*
X114300Y723800D01*
X114300Y203200D01*
X157400Y672819D02*
X157337Y672261D01*
X157212Y671714D01*
X157027Y671184D01*
X156783Y670678D01*
X156484Y670202D01*
X156134Y669763D01*
X155737Y669366D01*
X155298Y669016D01*
X154822Y668717D01*
X154316Y668473D01*
X153786Y668288D01*
X153239Y668163D01*
X152681Y668100D01*
X152119Y668100D01*
X151561Y668163D01*
X151014Y668288D01*
X150484Y668473D01*
X149978Y668717D01*
X149502Y669016D01*
X149063Y669366D01*
X148666Y669763D01*
X148316Y670202D01*
X148017Y670678D01*
X147773Y671184D01*
X147588Y671714D01*
X147463Y672261D01*
X147400Y672819D01*
X147400Y673381D01*
X147463Y673939D01*
X147588Y674486D01*
X147773Y675016D01*
X148017Y675522D01*
X148316Y675998D01*
X148666Y676437D01*
X149063Y676834D01*
X149502Y677184D01*
X149978Y677483D01*
X150484Y677727D01*
X151014Y677912D01*
X151561Y678037D01*
X152119Y678100D01*
X152681Y678100D01*
X153239Y678037D01*
X153786Y677912D01*
X154316Y677727D01*
X154822Y677483D01*
X155298Y677184D01*
X155737Y676834D01*
X156134Y676437D01*
X156484Y675998D01*
X156783Y675522D01*
X157027Y675016D01*
X157212Y674486D01*
X157337Y673939D01*
X157400Y673381D01*
X157400Y672819D01*
X703500Y456919D02*
X703437Y456361D01*
X703312Y455814D01*
X703127Y455284D01*
X702883Y454778D01*
X702584Y454302D01*
X702234Y453863D01*
X701837Y453466D01*
X701398Y453116D01*
X700922Y452817D01*
X700416Y452573D01*
X699886Y452388D01*
X699339Y452263D01*
X698781Y452200D01*
X698219Y452200D01*
X697661Y452263D01*
X697114Y452388D01*
X696584Y452573D01*
X696078Y452817D01*
X695602Y453116D01*
X695163Y453466D01*
X694766Y453863D01*
X694416Y454302D01*
X694117Y454778D01*
X693873Y455284D01*
X693688Y455814D01*
X693563Y456361D01*
X693500Y456919D01*
X693500Y457481D01*
X693563Y458039D01*
X693688Y458586D01*
X693873Y459116D01*
X694117Y459622D01*
X694416Y460098D01*
X694766Y460537D01*
X695163Y460934D01*
X695602Y461284D01*
X696078Y461583D01*
X696584Y461827D01*
X697114Y462012D01*
X697661Y462137D01*
X698219Y462200D01*
X698781Y462200D01*
X699339Y462137D01*
X699886Y462012D01*
X700416Y461827D01*
X700922Y461583D01*
X701398Y461284D01*
X701837Y460934D01*
X702234Y460537D01*
X702584Y460098D01*
X702883Y459622D01*
X703127Y459116D01*
X703312Y458586D01*
X703437Y458039D01*
X703500Y457481D01*
X703500Y456919D01*
X208200Y241019D02*
X208137Y240461D01*
X208012Y239914D01*
X207827Y239384D01*
X207583Y238878D01*
X207284Y238402D01*
X206934Y237963D01*
X206537Y237566D01*
X206098Y237216D01*
X205622Y236917D01*
X205116Y236673D01*
X204586Y236488D01*
X204039Y236363D01*
X203481Y236300D01*
X202919Y236300D01*
X202361Y236363D01*
X201814Y236488D01*
X201284Y236673D01*
X200778Y236917D01*
X200302Y237216D01*
X199863Y237566D01*
X199466Y237963D01*
X199116Y238402D01*
X198817Y238878D01*
X198573Y239384D01*
X198388Y239914D01*
X198263Y240461D01*
X198200Y241019D01*
X198200Y241581D01*
X198263Y242139D01*
X198388Y242686D01*
X198573Y243216D01*
X198817Y243722D01*
X199116Y244198D01*
X199466Y244637D01*
X199863Y245034D01*
X200302Y245384D01*
X200778Y245683D01*
X201284Y245927D01*
X201814Y246112D01*
X202361Y246237D01*
X202919Y246300D01*
X203481Y246300D01*
X204039Y246237D01*
X204586Y246112D01*
X205116Y245927D01*
X205622Y245683D01*
X206098Y245384D01*
X206537Y245034D01*
X206934Y244637D01*
X207284Y244198D01*
X207583Y243722D01*
X207827Y243216D01*
X208012Y242686D01*
X208137Y242139D01*
X208200Y241581D01*
X208200Y241019D01*
X157400Y622019D02*
X157337Y621461D01*
X157212Y620914D01*
X157027Y620384D01*
X156783Y619878D01*
X156484Y619402D01*
X156134Y618963D01*
X155737Y618566D01*
X155298Y618216D01*
X154822Y617917D01*
X154316Y617673D01*
X153786Y617488D01*
X153239Y617363D01*
X152681Y617300D01*
X152119Y617300D01*
X151561Y617363D01*
X151014Y617488D01*
X150484Y617673D01*
X149978Y617917D01*
X149502Y618216D01*
X149063Y618566D01*
X148666Y618963D01*
X148316Y619402D01*
X148017Y619878D01*
X147773Y620384D01*
X147588Y620914D01*
X147463Y621461D01*
X147400Y622019D01*
X147400Y622581D01*
X147463Y623139D01*
X147588Y623686D01*
X147773Y624216D01*
X148017Y624722D01*
X148316Y625198D01*
X148666Y625637D01*
X149063Y626034D01*
X149502Y626384D01*
X149978Y626683D01*
X150484Y626927D01*
X151014Y627112D01*
X151561Y627237D01*
X152119Y627300D01*
X152681Y627300D01*
X153239Y627237D01*
X153786Y627112D01*
X154316Y626927D01*
X154822Y626683D01*
X155298Y626384D01*
X155737Y626034D01*
X156134Y625637D01*
X156484Y625198D01*
X156783Y624722D01*
X157027Y624216D01*
X157212Y623686D01*
X157337Y623139D01*
X157400Y622581D01*
X157400Y622019D01*
X703500Y241019D02*
X703437Y240461D01*
X703312Y239914D01*
X703127Y239384D01*
X702883Y238878D01*
X702584Y238402D01*
X702234Y237963D01*
X701837Y237566D01*
X701398Y237216D01*
X700922Y236917D01*
X700416Y236673D01*
X699886Y236488D01*
X699339Y236363D01*
X698781Y236300D01*
X698219Y236300D01*
X697661Y236363D01*
X697114Y236488D01*
X696584Y236673D01*
X696078Y236917D01*
X695602Y237216D01*
X695163Y237566D01*
X694766Y237963D01*
X694416Y238402D01*
X694117Y238878D01*
X693873Y239384D01*
X693688Y239914D01*
X693563Y240461D01*
X693500Y241019D01*
X693500Y241581D01*
X693563Y242139D01*
X693688Y242686D01*
X693873Y243216D01*
X694117Y243722D01*
X694416Y244198D01*
X694766Y244637D01*
X695163Y245034D01*
X695602Y245384D01*
X696078Y245683D01*
X696584Y245927D01*
X697114Y246112D01*
X697661Y246237D01*
X698219Y246300D01*
X698781Y246300D01*
X699339Y246237D01*
X699886Y246112D01*
X700416Y245927D01*
X700922Y245683D01*
X701398Y245384D01*
X701837Y245034D01*
X702234Y244637D01*
X702584Y244198D01*
X702883Y243722D01*
X703127Y243216D01*
X703312Y242686D01*
X703437Y242139D01*
X703500Y241581D01*
X703500Y241019D01*
X157400Y279119D02*
X157337Y278561D01*
X157212Y278014D01*
X157027Y277484D01*
X156783Y276978D01*
X156484Y276502D01*
X156134Y276063D01*
X155737Y275666D01*
X155298Y275316D01*
X154822Y275017D01*
X154316Y274773D01*
X153786Y274588D01*
X153239Y274463D01*
X152681Y274400D01*
X152119Y274400D01*
X151561Y274463D01*
X151014Y274588D01*
X150484Y274773D01*
X149978Y275017D01*
X149502Y275316D01*
X149063Y275666D01*
X148666Y276063D01*
X148316Y276502D01*
X148017Y276978D01*
X147773Y277484D01*
X147588Y278014D01*
X147463Y278561D01*
X147400Y279119D01*
X147400Y279681D01*
X147463Y280239D01*
X147588Y280786D01*
X147773Y281316D01*
X148017Y281822D01*
X148316Y282298D01*
X148666Y282737D01*
X149063Y283134D01*
X149502Y283484D01*
X149978Y283783D01*
X150484Y284027D01*
X151014Y284212D01*
X151561Y284337D01*
X152119Y284400D01*
X152681Y284400D01*
X153239Y284337D01*
X153786Y284212D01*
X154316Y284027D01*
X154822Y283783D01*
X155298Y283484D01*
X155737Y283134D01*
X156134Y282737D01*
X156484Y282298D01*
X156783Y281822D01*
X157027Y281316D01*
X157212Y280786D01*
X157337Y280239D01*
X157400Y279681D01*
X157400Y279119D01*
X703500Y685519D02*
X703437Y684961D01*
X703312Y684414D01*
X703127Y683884D01*
X702883Y683378D01*
X702584Y682902D01*
X702234Y682463D01*
X701837Y682066D01*
X701398Y681716D01*
X700922Y681417D01*
X700416Y681173D01*
X699886Y680988D01*
X699339Y680863D01*
X698781Y680800D01*
X698219Y680800D01*
X697661Y680863D01*
X697114Y680988D01*
X696584Y681173D01*
X696078Y681417D01*
X695602Y681716D01*
X695163Y682066D01*
X694766Y682463D01*
X694416Y682902D01*
X694117Y683378D01*
X693873Y683884D01*
X693688Y684414D01*
X693563Y684961D01*
X693500Y685519D01*
X693500Y686081D01*
X693563Y686639D01*
X693688Y687186D01*
X693873Y687716D01*
X694117Y688222D01*
X694416Y688698D01*
X694766Y689137D01*
X695163Y689534D01*
X695602Y689884D01*
X696078Y690183D01*
X696584Y690427D01*
X697114Y690612D01*
X697661Y690737D01*
X698219Y690800D01*
X698781Y690800D01*
X699339Y690737D01*
X699886Y690612D01*
X700416Y690427D01*
X700922Y690183D01*
X701398Y689884D01*
X701837Y689534D01*
X702234Y689137D01*
X702584Y688698D01*
X702883Y688222D01*
X703127Y687716D01*
X703312Y687186D01*
X703437Y686639D01*
X703500Y686081D01*
X703500Y685519D01*
M02*
