G04 EAGLE Gerber RS-274X export*
G75*
%MOMM*%
%FSLAX34Y34*%
%LPD*%
%INSilkscreen Top*%
%IPPOS*%
%AMOC8*
5,1,8,0,0,1.08239X$1,22.5*%
G01*
%ADD10C,0.050800*%
%ADD11C,0.127000*%
%ADD12C,0.203200*%
%ADD13C,0.101600*%
%ADD14C,0.152400*%


D10*
X139954Y393954D02*
X139954Y399542D01*
X143058Y393954D01*
X143058Y399542D01*
X148545Y395196D02*
X148543Y395126D01*
X148537Y395057D01*
X148527Y394988D01*
X148514Y394920D01*
X148496Y394852D01*
X148475Y394786D01*
X148450Y394721D01*
X148422Y394657D01*
X148390Y394595D01*
X148355Y394535D01*
X148316Y394477D01*
X148274Y394422D01*
X148229Y394368D01*
X148181Y394318D01*
X148131Y394270D01*
X148077Y394225D01*
X148022Y394183D01*
X147964Y394144D01*
X147904Y394109D01*
X147842Y394077D01*
X147778Y394049D01*
X147713Y394024D01*
X147647Y394003D01*
X147579Y393985D01*
X147511Y393972D01*
X147442Y393962D01*
X147373Y393956D01*
X147303Y393954D01*
X147204Y393956D01*
X147106Y393961D01*
X147008Y393971D01*
X146910Y393984D01*
X146813Y394000D01*
X146716Y394020D01*
X146621Y394044D01*
X146526Y394072D01*
X146432Y394103D01*
X146340Y394137D01*
X146249Y394175D01*
X146159Y394216D01*
X146071Y394261D01*
X145985Y394309D01*
X145901Y394360D01*
X145819Y394414D01*
X145738Y394472D01*
X145660Y394532D01*
X145585Y394595D01*
X145511Y394661D01*
X145441Y394730D01*
X145595Y398300D02*
X145597Y398370D01*
X145603Y398439D01*
X145613Y398508D01*
X145626Y398576D01*
X145644Y398644D01*
X145665Y398710D01*
X145690Y398775D01*
X145718Y398839D01*
X145750Y398901D01*
X145785Y398961D01*
X145824Y399019D01*
X145866Y399074D01*
X145911Y399128D01*
X145959Y399178D01*
X146009Y399226D01*
X146063Y399271D01*
X146118Y399313D01*
X146176Y399352D01*
X146236Y399387D01*
X146298Y399419D01*
X146362Y399447D01*
X146427Y399472D01*
X146493Y399493D01*
X146561Y399511D01*
X146629Y399524D01*
X146698Y399534D01*
X146767Y399540D01*
X146837Y399542D01*
X146931Y399540D01*
X147024Y399534D01*
X147117Y399525D01*
X147210Y399512D01*
X147302Y399495D01*
X147393Y399475D01*
X147484Y399450D01*
X147573Y399423D01*
X147661Y399391D01*
X147748Y399356D01*
X147834Y399318D01*
X147917Y399276D01*
X147999Y399231D01*
X148080Y399183D01*
X148158Y399131D01*
X148234Y399076D01*
X146217Y397214D02*
X146158Y397250D01*
X146102Y397290D01*
X146048Y397333D01*
X145996Y397378D01*
X145947Y397427D01*
X145901Y397478D01*
X145858Y397531D01*
X145817Y397587D01*
X145780Y397645D01*
X145745Y397705D01*
X145715Y397766D01*
X145687Y397829D01*
X145663Y397894D01*
X145643Y397960D01*
X145626Y398027D01*
X145613Y398094D01*
X145604Y398162D01*
X145598Y398231D01*
X145596Y398300D01*
X147924Y396282D02*
X147983Y396246D01*
X148039Y396206D01*
X148093Y396163D01*
X148145Y396118D01*
X148194Y396069D01*
X148240Y396018D01*
X148283Y395965D01*
X148324Y395909D01*
X148361Y395851D01*
X148396Y395791D01*
X148426Y395730D01*
X148454Y395667D01*
X148478Y395602D01*
X148498Y395536D01*
X148515Y395469D01*
X148528Y395402D01*
X148537Y395334D01*
X148543Y395265D01*
X148545Y395196D01*
X147924Y396282D02*
X146216Y397214D01*
X150938Y399542D02*
X150938Y393954D01*
X153421Y393954D01*
X155693Y393954D02*
X158176Y393954D01*
X155693Y393954D02*
X155693Y399542D01*
X158176Y399542D01*
X157555Y397058D02*
X155693Y397058D01*
X160447Y393954D02*
X162931Y393954D01*
X160447Y393954D02*
X160447Y399542D01*
X162931Y399542D01*
X162310Y397058D02*
X160447Y397058D01*
X165274Y399542D02*
X165274Y393954D01*
X165274Y399542D02*
X166826Y399542D01*
X166903Y399540D01*
X166981Y399534D01*
X167057Y399525D01*
X167134Y399511D01*
X167209Y399494D01*
X167283Y399473D01*
X167357Y399448D01*
X167429Y399420D01*
X167499Y399388D01*
X167568Y399353D01*
X167635Y399314D01*
X167700Y399272D01*
X167763Y399227D01*
X167824Y399179D01*
X167882Y399128D01*
X167937Y399074D01*
X167990Y399017D01*
X168039Y398958D01*
X168086Y398896D01*
X168130Y398832D01*
X168170Y398766D01*
X168207Y398698D01*
X168241Y398628D01*
X168271Y398557D01*
X168297Y398484D01*
X168320Y398410D01*
X168339Y398335D01*
X168354Y398260D01*
X168366Y398183D01*
X168374Y398106D01*
X168378Y398029D01*
X168378Y397951D01*
X168374Y397874D01*
X168366Y397797D01*
X168354Y397720D01*
X168339Y397645D01*
X168320Y397570D01*
X168297Y397496D01*
X168271Y397423D01*
X168241Y397352D01*
X168207Y397282D01*
X168170Y397214D01*
X168130Y397148D01*
X168086Y397084D01*
X168039Y397022D01*
X167990Y396963D01*
X167937Y396906D01*
X167882Y396852D01*
X167824Y396801D01*
X167763Y396753D01*
X167700Y396708D01*
X167635Y396666D01*
X167568Y396627D01*
X167499Y396592D01*
X167429Y396560D01*
X167357Y396532D01*
X167283Y396507D01*
X167209Y396486D01*
X167134Y396469D01*
X167057Y396455D01*
X166981Y396446D01*
X166903Y396440D01*
X166826Y396438D01*
X165274Y396438D01*
X152654Y374142D02*
X152654Y368554D01*
X152654Y374142D02*
X154206Y374142D01*
X154282Y374140D01*
X154358Y374135D01*
X154434Y374125D01*
X154509Y374112D01*
X154583Y374095D01*
X154657Y374075D01*
X154729Y374051D01*
X154800Y374024D01*
X154870Y373993D01*
X154938Y373959D01*
X155004Y373921D01*
X155068Y373880D01*
X155131Y373837D01*
X155191Y373790D01*
X155248Y373740D01*
X155303Y373687D01*
X155356Y373632D01*
X155406Y373575D01*
X155453Y373515D01*
X155496Y373452D01*
X155537Y373388D01*
X155575Y373322D01*
X155609Y373254D01*
X155640Y373184D01*
X155667Y373113D01*
X155691Y373040D01*
X155711Y372967D01*
X155728Y372893D01*
X155741Y372818D01*
X155751Y372742D01*
X155756Y372666D01*
X155758Y372590D01*
X155758Y370106D01*
X155756Y370027D01*
X155750Y369949D01*
X155740Y369871D01*
X155726Y369794D01*
X155708Y369717D01*
X155687Y369641D01*
X155661Y369567D01*
X155632Y369494D01*
X155599Y369423D01*
X155563Y369353D01*
X155523Y369285D01*
X155480Y369219D01*
X155433Y369156D01*
X155384Y369095D01*
X155331Y369037D01*
X155275Y368981D01*
X155217Y368928D01*
X155156Y368879D01*
X155093Y368832D01*
X155027Y368789D01*
X154959Y368749D01*
X154890Y368713D01*
X154818Y368680D01*
X154745Y368651D01*
X154671Y368625D01*
X154595Y368604D01*
X154518Y368586D01*
X154441Y368572D01*
X154363Y368562D01*
X154285Y368556D01*
X154206Y368554D01*
X152654Y368554D01*
X158778Y368554D02*
X158778Y374142D01*
X158157Y368554D02*
X159399Y368554D01*
X159399Y374142D02*
X158157Y374142D01*
X161834Y374142D02*
X161834Y368554D01*
X161834Y374142D02*
X163386Y374142D01*
X163463Y374140D01*
X163541Y374134D01*
X163617Y374125D01*
X163694Y374111D01*
X163769Y374094D01*
X163843Y374073D01*
X163917Y374048D01*
X163989Y374020D01*
X164059Y373988D01*
X164128Y373953D01*
X164195Y373914D01*
X164260Y373872D01*
X164323Y373827D01*
X164384Y373779D01*
X164442Y373728D01*
X164497Y373674D01*
X164550Y373617D01*
X164599Y373558D01*
X164646Y373496D01*
X164690Y373432D01*
X164730Y373366D01*
X164767Y373298D01*
X164801Y373228D01*
X164831Y373157D01*
X164857Y373084D01*
X164880Y373010D01*
X164899Y372935D01*
X164914Y372860D01*
X164926Y372783D01*
X164934Y372706D01*
X164938Y372629D01*
X164938Y372551D01*
X164934Y372474D01*
X164926Y372397D01*
X164914Y372320D01*
X164899Y372245D01*
X164880Y372170D01*
X164857Y372096D01*
X164831Y372023D01*
X164801Y371952D01*
X164767Y371882D01*
X164730Y371814D01*
X164690Y371748D01*
X164646Y371684D01*
X164599Y371622D01*
X164550Y371563D01*
X164497Y371506D01*
X164442Y371452D01*
X164384Y371401D01*
X164323Y371353D01*
X164260Y371308D01*
X164195Y371266D01*
X164128Y371227D01*
X164059Y371192D01*
X163989Y371160D01*
X163917Y371132D01*
X163843Y371107D01*
X163769Y371086D01*
X163694Y371069D01*
X163617Y371055D01*
X163541Y371046D01*
X163463Y371040D01*
X163386Y371038D01*
X161834Y371038D01*
X163697Y371038D02*
X164938Y368554D01*
X152654Y348742D02*
X152654Y343154D01*
X154517Y345638D02*
X152654Y348742D01*
X154517Y345638D02*
X156379Y348742D01*
X156379Y343154D01*
X158999Y345948D02*
X159001Y346079D01*
X159006Y346209D01*
X159016Y346339D01*
X159029Y346469D01*
X159045Y346599D01*
X159065Y346728D01*
X159089Y346856D01*
X159117Y346983D01*
X159148Y347110D01*
X159183Y347236D01*
X159221Y347361D01*
X159263Y347485D01*
X159308Y347607D01*
X159357Y347728D01*
X159409Y347848D01*
X159465Y347966D01*
X159488Y348026D01*
X159514Y348086D01*
X159543Y348143D01*
X159576Y348199D01*
X159612Y348253D01*
X159650Y348305D01*
X159692Y348355D01*
X159736Y348402D01*
X159783Y348447D01*
X159833Y348489D01*
X159884Y348528D01*
X159938Y348564D01*
X159994Y348597D01*
X160051Y348627D01*
X160110Y348654D01*
X160171Y348677D01*
X160232Y348697D01*
X160295Y348713D01*
X160359Y348726D01*
X160423Y348735D01*
X160487Y348740D01*
X160552Y348742D01*
X160617Y348740D01*
X160681Y348735D01*
X160745Y348726D01*
X160809Y348713D01*
X160872Y348697D01*
X160933Y348677D01*
X160994Y348654D01*
X161053Y348627D01*
X161110Y348597D01*
X161166Y348564D01*
X161220Y348528D01*
X161271Y348489D01*
X161321Y348447D01*
X161368Y348402D01*
X161412Y348355D01*
X161454Y348305D01*
X161492Y348253D01*
X161528Y348199D01*
X161561Y348143D01*
X161590Y348086D01*
X161616Y348026D01*
X161639Y347966D01*
X161638Y347966D02*
X161694Y347848D01*
X161746Y347728D01*
X161795Y347607D01*
X161840Y347485D01*
X161882Y347361D01*
X161920Y347236D01*
X161955Y347110D01*
X161986Y346984D01*
X162014Y346856D01*
X162038Y346728D01*
X162058Y346599D01*
X162074Y346469D01*
X162087Y346339D01*
X162097Y346209D01*
X162102Y346079D01*
X162104Y345948D01*
X159000Y345948D02*
X159002Y345817D01*
X159007Y345687D01*
X159017Y345557D01*
X159030Y345427D01*
X159046Y345297D01*
X159066Y345168D01*
X159090Y345040D01*
X159118Y344913D01*
X159149Y344786D01*
X159184Y344660D01*
X159222Y344535D01*
X159264Y344411D01*
X159309Y344289D01*
X159358Y344168D01*
X159410Y344048D01*
X159466Y343930D01*
X159465Y343930D02*
X159488Y343870D01*
X159514Y343810D01*
X159543Y343753D01*
X159576Y343697D01*
X159612Y343643D01*
X159650Y343591D01*
X159692Y343541D01*
X159736Y343494D01*
X159783Y343449D01*
X159833Y343407D01*
X159884Y343368D01*
X159938Y343332D01*
X159994Y343299D01*
X160051Y343269D01*
X160110Y343242D01*
X160171Y343219D01*
X160232Y343199D01*
X160295Y343183D01*
X160359Y343170D01*
X160423Y343161D01*
X160487Y343156D01*
X160552Y343154D01*
X161638Y343930D02*
X161694Y344048D01*
X161746Y344168D01*
X161795Y344289D01*
X161840Y344411D01*
X161882Y344535D01*
X161920Y344660D01*
X161955Y344786D01*
X161986Y344912D01*
X162014Y345040D01*
X162038Y345168D01*
X162058Y345297D01*
X162074Y345427D01*
X162087Y345557D01*
X162097Y345687D01*
X162102Y345817D01*
X162104Y345948D01*
X161639Y343930D02*
X161616Y343870D01*
X161590Y343810D01*
X161561Y343753D01*
X161528Y343697D01*
X161492Y343643D01*
X161454Y343591D01*
X161412Y343541D01*
X161368Y343494D01*
X161321Y343449D01*
X161271Y343407D01*
X161220Y343368D01*
X161166Y343332D01*
X161110Y343299D01*
X161053Y343269D01*
X160994Y343242D01*
X160933Y343219D01*
X160872Y343199D01*
X160809Y343183D01*
X160745Y343170D01*
X160681Y343161D01*
X160617Y343156D01*
X160552Y343154D01*
X159310Y344396D02*
X161793Y347500D01*
D11*
X429232Y325755D02*
X430304Y325755D01*
X429232Y325755D02*
X429167Y325757D01*
X429103Y325763D01*
X429039Y325773D01*
X428975Y325786D01*
X428913Y325804D01*
X428852Y325825D01*
X428792Y325849D01*
X428734Y325878D01*
X428677Y325910D01*
X428623Y325945D01*
X428571Y325983D01*
X428521Y326025D01*
X428474Y326069D01*
X428430Y326116D01*
X428388Y326166D01*
X428350Y326218D01*
X428315Y326272D01*
X428283Y326329D01*
X428254Y326387D01*
X428230Y326447D01*
X428209Y326508D01*
X428191Y326570D01*
X428178Y326634D01*
X428168Y326698D01*
X428162Y326762D01*
X428160Y326827D01*
X428159Y326827D02*
X428159Y329509D01*
X428160Y329509D02*
X428162Y329574D01*
X428168Y329638D01*
X428178Y329702D01*
X428191Y329766D01*
X428209Y329828D01*
X428230Y329889D01*
X428254Y329949D01*
X428283Y330007D01*
X428315Y330064D01*
X428350Y330118D01*
X428388Y330170D01*
X428430Y330220D01*
X428474Y330267D01*
X428521Y330311D01*
X428571Y330353D01*
X428623Y330391D01*
X428677Y330426D01*
X428734Y330458D01*
X428792Y330487D01*
X428852Y330511D01*
X428913Y330532D01*
X428975Y330550D01*
X429039Y330563D01*
X429103Y330573D01*
X429167Y330579D01*
X429232Y330581D01*
X430304Y330581D01*
X432760Y329509D02*
X434100Y330581D01*
X434100Y325755D01*
X432760Y325755D02*
X435441Y325755D01*
X189004Y567055D02*
X187932Y567055D01*
X187867Y567057D01*
X187803Y567063D01*
X187739Y567073D01*
X187675Y567086D01*
X187613Y567104D01*
X187552Y567125D01*
X187492Y567149D01*
X187434Y567178D01*
X187377Y567210D01*
X187323Y567245D01*
X187271Y567283D01*
X187221Y567325D01*
X187174Y567369D01*
X187130Y567416D01*
X187088Y567466D01*
X187050Y567518D01*
X187015Y567572D01*
X186983Y567629D01*
X186954Y567687D01*
X186930Y567747D01*
X186909Y567808D01*
X186891Y567870D01*
X186878Y567934D01*
X186868Y567998D01*
X186862Y568062D01*
X186860Y568127D01*
X186859Y568127D02*
X186859Y570809D01*
X186860Y570809D02*
X186862Y570874D01*
X186868Y570938D01*
X186878Y571002D01*
X186891Y571066D01*
X186909Y571128D01*
X186930Y571189D01*
X186954Y571249D01*
X186983Y571307D01*
X187015Y571364D01*
X187050Y571418D01*
X187088Y571470D01*
X187130Y571520D01*
X187174Y571567D01*
X187221Y571611D01*
X187271Y571653D01*
X187323Y571691D01*
X187377Y571726D01*
X187434Y571758D01*
X187492Y571787D01*
X187552Y571811D01*
X187613Y571832D01*
X187675Y571850D01*
X187739Y571863D01*
X187803Y571873D01*
X187867Y571879D01*
X187932Y571881D01*
X189004Y571881D01*
X192934Y571881D02*
X193002Y571879D01*
X193069Y571873D01*
X193136Y571864D01*
X193203Y571851D01*
X193268Y571834D01*
X193333Y571813D01*
X193396Y571789D01*
X193458Y571761D01*
X193518Y571730D01*
X193576Y571696D01*
X193632Y571658D01*
X193687Y571618D01*
X193738Y571574D01*
X193787Y571527D01*
X193834Y571478D01*
X193878Y571427D01*
X193918Y571372D01*
X193956Y571316D01*
X193990Y571258D01*
X194021Y571198D01*
X194049Y571136D01*
X194073Y571073D01*
X194094Y571008D01*
X194111Y570943D01*
X194124Y570876D01*
X194133Y570809D01*
X194139Y570742D01*
X194141Y570674D01*
X192934Y571881D02*
X192856Y571879D01*
X192778Y571873D01*
X192701Y571863D01*
X192624Y571850D01*
X192548Y571832D01*
X192473Y571811D01*
X192399Y571786D01*
X192327Y571757D01*
X192256Y571725D01*
X192187Y571689D01*
X192119Y571650D01*
X192054Y571607D01*
X191991Y571561D01*
X191930Y571512D01*
X191872Y571460D01*
X191817Y571405D01*
X191764Y571348D01*
X191715Y571288D01*
X191668Y571225D01*
X191625Y571161D01*
X191585Y571094D01*
X191548Y571025D01*
X191515Y570954D01*
X191485Y570882D01*
X191459Y570809D01*
X193739Y569736D02*
X193788Y569785D01*
X193835Y569837D01*
X193878Y569892D01*
X193919Y569949D01*
X193957Y570008D01*
X193991Y570069D01*
X194022Y570132D01*
X194050Y570196D01*
X194074Y570262D01*
X194094Y570328D01*
X194111Y570396D01*
X194124Y570465D01*
X194133Y570534D01*
X194139Y570604D01*
X194141Y570674D01*
X193739Y569736D02*
X191460Y567055D01*
X194141Y567055D01*
X556232Y541655D02*
X557304Y541655D01*
X556232Y541655D02*
X556167Y541657D01*
X556103Y541663D01*
X556039Y541673D01*
X555975Y541686D01*
X555913Y541704D01*
X555852Y541725D01*
X555792Y541749D01*
X555734Y541778D01*
X555677Y541810D01*
X555623Y541845D01*
X555571Y541883D01*
X555521Y541925D01*
X555474Y541969D01*
X555430Y542016D01*
X555388Y542066D01*
X555350Y542118D01*
X555315Y542172D01*
X555283Y542229D01*
X555254Y542287D01*
X555230Y542347D01*
X555209Y542408D01*
X555191Y542470D01*
X555178Y542534D01*
X555168Y542598D01*
X555162Y542662D01*
X555160Y542727D01*
X555159Y542727D02*
X555159Y545409D01*
X555160Y545409D02*
X555162Y545474D01*
X555168Y545538D01*
X555178Y545602D01*
X555191Y545666D01*
X555209Y545728D01*
X555230Y545789D01*
X555254Y545849D01*
X555283Y545907D01*
X555315Y545964D01*
X555350Y546018D01*
X555388Y546070D01*
X555430Y546120D01*
X555474Y546167D01*
X555521Y546211D01*
X555571Y546253D01*
X555623Y546291D01*
X555677Y546326D01*
X555734Y546358D01*
X555792Y546387D01*
X555852Y546411D01*
X555913Y546432D01*
X555975Y546450D01*
X556039Y546463D01*
X556103Y546473D01*
X556167Y546479D01*
X556232Y546481D01*
X557304Y546481D01*
X559760Y541655D02*
X561100Y541655D01*
X561171Y541657D01*
X561243Y541663D01*
X561313Y541672D01*
X561383Y541685D01*
X561453Y541702D01*
X561521Y541723D01*
X561588Y541747D01*
X561654Y541775D01*
X561718Y541806D01*
X561781Y541841D01*
X561841Y541879D01*
X561900Y541920D01*
X561956Y541964D01*
X562010Y542011D01*
X562061Y542060D01*
X562109Y542113D01*
X562155Y542168D01*
X562197Y542225D01*
X562237Y542285D01*
X562273Y542346D01*
X562306Y542410D01*
X562335Y542475D01*
X562361Y542541D01*
X562384Y542609D01*
X562403Y542678D01*
X562418Y542748D01*
X562429Y542818D01*
X562437Y542889D01*
X562441Y542960D01*
X562441Y543032D01*
X562437Y543103D01*
X562429Y543174D01*
X562418Y543244D01*
X562403Y543314D01*
X562384Y543383D01*
X562361Y543451D01*
X562335Y543517D01*
X562306Y543582D01*
X562273Y543646D01*
X562237Y543707D01*
X562197Y543767D01*
X562155Y543824D01*
X562109Y543879D01*
X562061Y543932D01*
X562010Y543981D01*
X561956Y544028D01*
X561900Y544072D01*
X561841Y544113D01*
X561781Y544151D01*
X561718Y544186D01*
X561654Y544217D01*
X561588Y544245D01*
X561521Y544269D01*
X561453Y544290D01*
X561383Y544307D01*
X561313Y544320D01*
X561243Y544329D01*
X561171Y544335D01*
X561100Y544337D01*
X561368Y546481D02*
X559760Y546481D01*
X561368Y546481D02*
X561433Y546479D01*
X561497Y546473D01*
X561561Y546463D01*
X561625Y546450D01*
X561687Y546432D01*
X561748Y546411D01*
X561808Y546387D01*
X561866Y546358D01*
X561923Y546326D01*
X561977Y546291D01*
X562029Y546253D01*
X562079Y546211D01*
X562126Y546167D01*
X562170Y546120D01*
X562212Y546070D01*
X562250Y546018D01*
X562285Y545964D01*
X562317Y545907D01*
X562346Y545849D01*
X562370Y545789D01*
X562391Y545728D01*
X562409Y545666D01*
X562422Y545602D01*
X562432Y545538D01*
X562438Y545474D01*
X562440Y545409D01*
X562438Y545344D01*
X562432Y545280D01*
X562422Y545216D01*
X562409Y545152D01*
X562391Y545090D01*
X562370Y545029D01*
X562346Y544969D01*
X562317Y544911D01*
X562285Y544854D01*
X562250Y544800D01*
X562212Y544748D01*
X562170Y544698D01*
X562126Y544651D01*
X562079Y544607D01*
X562029Y544565D01*
X561977Y544527D01*
X561923Y544492D01*
X561866Y544460D01*
X561808Y544431D01*
X561748Y544407D01*
X561687Y544386D01*
X561625Y544368D01*
X561561Y544355D01*
X561497Y544345D01*
X561433Y544339D01*
X561368Y544337D01*
X561368Y544336D02*
X560296Y544336D01*
X481104Y452755D02*
X480032Y452755D01*
X479967Y452757D01*
X479903Y452763D01*
X479839Y452773D01*
X479775Y452786D01*
X479713Y452804D01*
X479652Y452825D01*
X479592Y452849D01*
X479534Y452878D01*
X479477Y452910D01*
X479423Y452945D01*
X479371Y452983D01*
X479321Y453025D01*
X479274Y453069D01*
X479230Y453116D01*
X479188Y453166D01*
X479150Y453218D01*
X479115Y453272D01*
X479083Y453329D01*
X479054Y453387D01*
X479030Y453447D01*
X479009Y453508D01*
X478991Y453570D01*
X478978Y453634D01*
X478968Y453698D01*
X478962Y453762D01*
X478960Y453827D01*
X478959Y453827D02*
X478959Y456509D01*
X478960Y456509D02*
X478962Y456574D01*
X478968Y456638D01*
X478978Y456702D01*
X478991Y456766D01*
X479009Y456828D01*
X479030Y456889D01*
X479054Y456949D01*
X479083Y457007D01*
X479115Y457064D01*
X479150Y457118D01*
X479188Y457170D01*
X479230Y457220D01*
X479274Y457267D01*
X479321Y457311D01*
X479371Y457353D01*
X479423Y457391D01*
X479477Y457426D01*
X479534Y457458D01*
X479592Y457487D01*
X479652Y457511D01*
X479713Y457532D01*
X479775Y457550D01*
X479839Y457563D01*
X479903Y457573D01*
X479967Y457579D01*
X480032Y457581D01*
X481104Y457581D01*
X484632Y457581D02*
X483560Y453827D01*
X486241Y453827D01*
X485437Y454900D02*
X485437Y452755D01*
X392204Y503555D02*
X391132Y503555D01*
X391067Y503557D01*
X391003Y503563D01*
X390939Y503573D01*
X390875Y503586D01*
X390813Y503604D01*
X390752Y503625D01*
X390692Y503649D01*
X390634Y503678D01*
X390577Y503710D01*
X390523Y503745D01*
X390471Y503783D01*
X390421Y503825D01*
X390374Y503869D01*
X390330Y503916D01*
X390288Y503966D01*
X390250Y504018D01*
X390215Y504072D01*
X390183Y504129D01*
X390154Y504187D01*
X390130Y504247D01*
X390109Y504308D01*
X390091Y504370D01*
X390078Y504434D01*
X390068Y504498D01*
X390062Y504562D01*
X390060Y504627D01*
X390059Y504627D02*
X390059Y507309D01*
X390060Y507309D02*
X390062Y507374D01*
X390068Y507438D01*
X390078Y507502D01*
X390091Y507566D01*
X390109Y507628D01*
X390130Y507689D01*
X390154Y507749D01*
X390183Y507807D01*
X390215Y507864D01*
X390250Y507918D01*
X390288Y507970D01*
X390330Y508020D01*
X390374Y508067D01*
X390421Y508111D01*
X390471Y508153D01*
X390523Y508191D01*
X390577Y508226D01*
X390634Y508258D01*
X390692Y508287D01*
X390752Y508311D01*
X390813Y508332D01*
X390875Y508350D01*
X390939Y508363D01*
X391003Y508373D01*
X391067Y508379D01*
X391132Y508381D01*
X392204Y508381D01*
X394660Y503555D02*
X396268Y503555D01*
X396333Y503557D01*
X396397Y503563D01*
X396461Y503573D01*
X396525Y503586D01*
X396587Y503604D01*
X396648Y503625D01*
X396708Y503649D01*
X396766Y503678D01*
X396823Y503710D01*
X396877Y503745D01*
X396929Y503783D01*
X396979Y503825D01*
X397026Y503869D01*
X397070Y503916D01*
X397112Y503966D01*
X397150Y504018D01*
X397185Y504072D01*
X397217Y504129D01*
X397246Y504187D01*
X397270Y504247D01*
X397291Y504308D01*
X397309Y504370D01*
X397322Y504434D01*
X397332Y504498D01*
X397338Y504562D01*
X397340Y504627D01*
X397341Y504627D02*
X397341Y505164D01*
X397340Y505164D02*
X397338Y505229D01*
X397332Y505293D01*
X397322Y505357D01*
X397309Y505421D01*
X397291Y505483D01*
X397270Y505544D01*
X397246Y505604D01*
X397217Y505662D01*
X397185Y505719D01*
X397150Y505773D01*
X397112Y505825D01*
X397070Y505875D01*
X397026Y505922D01*
X396979Y505966D01*
X396929Y506008D01*
X396877Y506046D01*
X396823Y506081D01*
X396766Y506113D01*
X396708Y506142D01*
X396648Y506166D01*
X396587Y506187D01*
X396525Y506205D01*
X396461Y506218D01*
X396397Y506228D01*
X396333Y506234D01*
X396268Y506236D01*
X394660Y506236D01*
X394660Y508381D01*
X397341Y508381D01*
X366804Y541655D02*
X365732Y541655D01*
X365667Y541657D01*
X365603Y541663D01*
X365539Y541673D01*
X365475Y541686D01*
X365413Y541704D01*
X365352Y541725D01*
X365292Y541749D01*
X365234Y541778D01*
X365177Y541810D01*
X365123Y541845D01*
X365071Y541883D01*
X365021Y541925D01*
X364974Y541969D01*
X364930Y542016D01*
X364888Y542066D01*
X364850Y542118D01*
X364815Y542172D01*
X364783Y542229D01*
X364754Y542287D01*
X364730Y542347D01*
X364709Y542408D01*
X364691Y542470D01*
X364678Y542534D01*
X364668Y542598D01*
X364662Y542662D01*
X364660Y542727D01*
X364659Y542727D02*
X364659Y545409D01*
X364660Y545409D02*
X364662Y545474D01*
X364668Y545538D01*
X364678Y545602D01*
X364691Y545666D01*
X364709Y545728D01*
X364730Y545789D01*
X364754Y545849D01*
X364783Y545907D01*
X364815Y545964D01*
X364850Y546018D01*
X364888Y546070D01*
X364930Y546120D01*
X364974Y546167D01*
X365021Y546211D01*
X365071Y546253D01*
X365123Y546291D01*
X365177Y546326D01*
X365234Y546358D01*
X365292Y546387D01*
X365352Y546411D01*
X365413Y546432D01*
X365475Y546450D01*
X365539Y546463D01*
X365603Y546473D01*
X365667Y546479D01*
X365732Y546481D01*
X366804Y546481D01*
X369260Y544336D02*
X370868Y544336D01*
X370933Y544334D01*
X370997Y544328D01*
X371061Y544318D01*
X371125Y544305D01*
X371187Y544287D01*
X371248Y544266D01*
X371308Y544242D01*
X371366Y544213D01*
X371423Y544181D01*
X371477Y544146D01*
X371529Y544108D01*
X371579Y544066D01*
X371626Y544022D01*
X371670Y543975D01*
X371712Y543925D01*
X371750Y543873D01*
X371785Y543819D01*
X371817Y543762D01*
X371846Y543704D01*
X371870Y543644D01*
X371891Y543583D01*
X371909Y543521D01*
X371922Y543457D01*
X371932Y543393D01*
X371938Y543329D01*
X371940Y543264D01*
X371941Y543264D02*
X371941Y542996D01*
X371939Y542925D01*
X371933Y542853D01*
X371924Y542783D01*
X371911Y542713D01*
X371894Y542643D01*
X371873Y542575D01*
X371849Y542508D01*
X371821Y542442D01*
X371790Y542378D01*
X371755Y542315D01*
X371717Y542255D01*
X371676Y542196D01*
X371632Y542140D01*
X371585Y542086D01*
X371536Y542035D01*
X371483Y541987D01*
X371428Y541941D01*
X371371Y541899D01*
X371311Y541859D01*
X371250Y541823D01*
X371186Y541790D01*
X371121Y541761D01*
X371055Y541735D01*
X370987Y541712D01*
X370918Y541693D01*
X370848Y541678D01*
X370778Y541667D01*
X370707Y541659D01*
X370636Y541655D01*
X370564Y541655D01*
X370493Y541659D01*
X370422Y541667D01*
X370352Y541678D01*
X370282Y541693D01*
X370213Y541712D01*
X370145Y541735D01*
X370079Y541761D01*
X370014Y541790D01*
X369950Y541823D01*
X369889Y541859D01*
X369829Y541899D01*
X369772Y541941D01*
X369717Y541987D01*
X369664Y542035D01*
X369615Y542086D01*
X369568Y542140D01*
X369524Y542196D01*
X369483Y542255D01*
X369445Y542315D01*
X369410Y542378D01*
X369379Y542442D01*
X369351Y542508D01*
X369327Y542575D01*
X369306Y542643D01*
X369289Y542713D01*
X369276Y542783D01*
X369267Y542853D01*
X369261Y542925D01*
X369259Y542996D01*
X369260Y542996D02*
X369260Y544336D01*
X369262Y544427D01*
X369268Y544518D01*
X369277Y544608D01*
X369291Y544699D01*
X369308Y544788D01*
X369329Y544876D01*
X369354Y544964D01*
X369383Y545051D01*
X369415Y545136D01*
X369450Y545220D01*
X369490Y545302D01*
X369532Y545382D01*
X369578Y545461D01*
X369628Y545537D01*
X369680Y545611D01*
X369736Y545684D01*
X369795Y545753D01*
X369856Y545820D01*
X369921Y545885D01*
X369988Y545946D01*
X370057Y546005D01*
X370129Y546061D01*
X370204Y546113D01*
X370280Y546163D01*
X370359Y546209D01*
X370439Y546251D01*
X370521Y546291D01*
X370605Y546326D01*
X370690Y546358D01*
X370777Y546387D01*
X370864Y546412D01*
X370953Y546433D01*
X371042Y546450D01*
X371133Y546464D01*
X371223Y546473D01*
X371314Y546479D01*
X371405Y546481D01*
D12*
X415200Y419500D02*
X415200Y342500D01*
X372200Y342500D01*
X372200Y419500D01*
X415200Y419500D01*
X375700Y412500D02*
X375702Y412609D01*
X375708Y412718D01*
X375718Y412826D01*
X375732Y412934D01*
X375749Y413042D01*
X375771Y413149D01*
X375796Y413255D01*
X375826Y413359D01*
X375859Y413463D01*
X375896Y413566D01*
X375936Y413667D01*
X375980Y413766D01*
X376028Y413864D01*
X376080Y413961D01*
X376134Y414055D01*
X376192Y414147D01*
X376254Y414237D01*
X376319Y414324D01*
X376386Y414410D01*
X376457Y414493D01*
X376531Y414573D01*
X376608Y414650D01*
X376687Y414725D01*
X376769Y414796D01*
X376854Y414865D01*
X376941Y414930D01*
X377030Y414993D01*
X377122Y415051D01*
X377216Y415107D01*
X377311Y415159D01*
X377409Y415208D01*
X377508Y415253D01*
X377609Y415295D01*
X377711Y415332D01*
X377814Y415366D01*
X377919Y415397D01*
X378025Y415423D01*
X378131Y415446D01*
X378239Y415464D01*
X378347Y415479D01*
X378455Y415490D01*
X378564Y415497D01*
X378673Y415500D01*
X378782Y415499D01*
X378891Y415494D01*
X378999Y415485D01*
X379107Y415472D01*
X379215Y415455D01*
X379322Y415435D01*
X379428Y415410D01*
X379533Y415382D01*
X379637Y415350D01*
X379740Y415314D01*
X379842Y415274D01*
X379942Y415231D01*
X380040Y415184D01*
X380137Y415134D01*
X380231Y415080D01*
X380324Y415022D01*
X380415Y414962D01*
X380503Y414898D01*
X380589Y414831D01*
X380672Y414761D01*
X380753Y414688D01*
X380831Y414612D01*
X380906Y414533D01*
X380979Y414451D01*
X381048Y414367D01*
X381114Y414281D01*
X381177Y414192D01*
X381237Y414101D01*
X381294Y414008D01*
X381347Y413913D01*
X381396Y413816D01*
X381442Y413717D01*
X381484Y413617D01*
X381523Y413515D01*
X381558Y413411D01*
X381589Y413307D01*
X381617Y413202D01*
X381640Y413095D01*
X381660Y412988D01*
X381676Y412880D01*
X381688Y412772D01*
X381696Y412663D01*
X381700Y412554D01*
X381700Y412446D01*
X381696Y412337D01*
X381688Y412228D01*
X381676Y412120D01*
X381660Y412012D01*
X381640Y411905D01*
X381617Y411798D01*
X381589Y411693D01*
X381558Y411589D01*
X381523Y411485D01*
X381484Y411383D01*
X381442Y411283D01*
X381396Y411184D01*
X381347Y411087D01*
X381294Y410992D01*
X381237Y410899D01*
X381177Y410808D01*
X381114Y410719D01*
X381048Y410633D01*
X380979Y410549D01*
X380906Y410467D01*
X380831Y410388D01*
X380753Y410312D01*
X380672Y410239D01*
X380589Y410169D01*
X380503Y410102D01*
X380415Y410038D01*
X380324Y409978D01*
X380231Y409920D01*
X380137Y409866D01*
X380040Y409816D01*
X379942Y409769D01*
X379842Y409726D01*
X379740Y409686D01*
X379637Y409650D01*
X379533Y409618D01*
X379428Y409590D01*
X379322Y409565D01*
X379215Y409545D01*
X379107Y409528D01*
X378999Y409515D01*
X378891Y409506D01*
X378782Y409501D01*
X378673Y409500D01*
X378564Y409503D01*
X378455Y409510D01*
X378347Y409521D01*
X378239Y409536D01*
X378131Y409554D01*
X378025Y409577D01*
X377919Y409603D01*
X377814Y409634D01*
X377711Y409668D01*
X377609Y409705D01*
X377508Y409747D01*
X377409Y409792D01*
X377311Y409841D01*
X377216Y409893D01*
X377122Y409949D01*
X377030Y410007D01*
X376941Y410070D01*
X376854Y410135D01*
X376769Y410204D01*
X376687Y410275D01*
X376608Y410350D01*
X376531Y410427D01*
X376457Y410507D01*
X376386Y410590D01*
X376319Y410676D01*
X376254Y410763D01*
X376192Y410853D01*
X376134Y410945D01*
X376080Y411039D01*
X376028Y411136D01*
X375980Y411234D01*
X375936Y411333D01*
X375896Y411434D01*
X375859Y411537D01*
X375826Y411641D01*
X375796Y411745D01*
X375771Y411851D01*
X375749Y411958D01*
X375732Y412066D01*
X375718Y412174D01*
X375708Y412282D01*
X375702Y412391D01*
X375700Y412500D01*
D13*
X432308Y396677D02*
X443992Y396677D01*
X443992Y395379D02*
X443992Y397976D01*
X432308Y397976D02*
X432308Y395379D01*
X443992Y405139D02*
X443992Y407736D01*
X443992Y405139D02*
X443990Y405040D01*
X443984Y404940D01*
X443975Y404841D01*
X443962Y404743D01*
X443945Y404645D01*
X443924Y404547D01*
X443899Y404451D01*
X443871Y404356D01*
X443839Y404262D01*
X443804Y404169D01*
X443765Y404077D01*
X443722Y403987D01*
X443677Y403899D01*
X443627Y403812D01*
X443575Y403728D01*
X443519Y403645D01*
X443461Y403565D01*
X443399Y403487D01*
X443334Y403412D01*
X443266Y403339D01*
X443196Y403269D01*
X443123Y403201D01*
X443048Y403136D01*
X442970Y403074D01*
X442890Y403016D01*
X442807Y402960D01*
X442723Y402908D01*
X442636Y402858D01*
X442548Y402813D01*
X442458Y402770D01*
X442366Y402731D01*
X442273Y402696D01*
X442179Y402664D01*
X442084Y402636D01*
X441988Y402611D01*
X441890Y402590D01*
X441792Y402573D01*
X441694Y402560D01*
X441595Y402551D01*
X441495Y402545D01*
X441396Y402543D01*
X434904Y402543D01*
X434904Y402542D02*
X434805Y402544D01*
X434705Y402550D01*
X434606Y402559D01*
X434508Y402572D01*
X434410Y402590D01*
X434312Y402610D01*
X434216Y402635D01*
X434120Y402663D01*
X434026Y402695D01*
X433933Y402730D01*
X433842Y402769D01*
X433752Y402812D01*
X433663Y402857D01*
X433577Y402907D01*
X433492Y402959D01*
X433410Y403015D01*
X433330Y403074D01*
X433252Y403135D01*
X433176Y403200D01*
X433103Y403268D01*
X433033Y403338D01*
X432965Y403411D01*
X432900Y403487D01*
X432839Y403565D01*
X432780Y403645D01*
X432724Y403727D01*
X432672Y403812D01*
X432623Y403898D01*
X432577Y403987D01*
X432534Y404077D01*
X432495Y404168D01*
X432460Y404261D01*
X432428Y404355D01*
X432400Y404451D01*
X432375Y404547D01*
X432355Y404645D01*
X432337Y404743D01*
X432324Y404841D01*
X432315Y404940D01*
X432309Y405039D01*
X432307Y405139D01*
X432308Y405139D02*
X432308Y407736D01*
X434904Y412101D02*
X432308Y415346D01*
X443992Y415346D01*
X443992Y412101D02*
X443992Y418592D01*
D14*
X275336Y523240D02*
X258064Y523240D01*
X277876Y541020D02*
X277874Y541120D01*
X277868Y541219D01*
X277858Y541319D01*
X277845Y541417D01*
X277827Y541516D01*
X277806Y541613D01*
X277781Y541709D01*
X277752Y541805D01*
X277719Y541899D01*
X277683Y541992D01*
X277643Y542083D01*
X277599Y542173D01*
X277552Y542261D01*
X277502Y542347D01*
X277448Y542431D01*
X277391Y542513D01*
X277331Y542592D01*
X277267Y542670D01*
X277201Y542744D01*
X277132Y542816D01*
X277060Y542885D01*
X276986Y542951D01*
X276908Y543015D01*
X276829Y543075D01*
X276747Y543132D01*
X276663Y543186D01*
X276577Y543236D01*
X276489Y543283D01*
X276399Y543327D01*
X276308Y543367D01*
X276215Y543403D01*
X276121Y543436D01*
X276025Y543465D01*
X275929Y543490D01*
X275832Y543511D01*
X275733Y543529D01*
X275635Y543542D01*
X275535Y543552D01*
X275436Y543558D01*
X275336Y543560D01*
X258064Y543560D02*
X257964Y543558D01*
X257865Y543552D01*
X257765Y543542D01*
X257667Y543529D01*
X257568Y543511D01*
X257471Y543490D01*
X257375Y543465D01*
X257279Y543436D01*
X257185Y543403D01*
X257092Y543367D01*
X257001Y543327D01*
X256911Y543283D01*
X256823Y543236D01*
X256737Y543186D01*
X256653Y543132D01*
X256571Y543075D01*
X256492Y543015D01*
X256414Y542951D01*
X256340Y542885D01*
X256268Y542816D01*
X256199Y542744D01*
X256133Y542670D01*
X256069Y542592D01*
X256009Y542513D01*
X255952Y542431D01*
X255898Y542347D01*
X255848Y542261D01*
X255801Y542173D01*
X255757Y542083D01*
X255717Y541992D01*
X255681Y541899D01*
X255648Y541805D01*
X255619Y541709D01*
X255594Y541613D01*
X255573Y541516D01*
X255555Y541417D01*
X255542Y541319D01*
X255532Y541219D01*
X255526Y541120D01*
X255524Y541020D01*
X255524Y525780D02*
X255526Y525680D01*
X255532Y525581D01*
X255542Y525481D01*
X255555Y525383D01*
X255573Y525284D01*
X255594Y525187D01*
X255619Y525091D01*
X255648Y524995D01*
X255681Y524901D01*
X255717Y524808D01*
X255757Y524717D01*
X255801Y524627D01*
X255848Y524539D01*
X255898Y524453D01*
X255952Y524369D01*
X256009Y524287D01*
X256069Y524208D01*
X256133Y524130D01*
X256199Y524056D01*
X256268Y523984D01*
X256340Y523915D01*
X256414Y523849D01*
X256492Y523785D01*
X256571Y523725D01*
X256653Y523668D01*
X256737Y523614D01*
X256823Y523564D01*
X256911Y523517D01*
X257001Y523473D01*
X257092Y523433D01*
X257185Y523397D01*
X257279Y523364D01*
X257375Y523335D01*
X257471Y523310D01*
X257568Y523289D01*
X257667Y523271D01*
X257765Y523258D01*
X257865Y523248D01*
X257964Y523242D01*
X258064Y523240D01*
X275336Y523240D02*
X275436Y523242D01*
X275535Y523248D01*
X275635Y523258D01*
X275733Y523271D01*
X275832Y523289D01*
X275929Y523310D01*
X276025Y523335D01*
X276121Y523364D01*
X276215Y523397D01*
X276308Y523433D01*
X276399Y523473D01*
X276489Y523517D01*
X276577Y523564D01*
X276663Y523614D01*
X276747Y523668D01*
X276829Y523725D01*
X276908Y523785D01*
X276986Y523849D01*
X277060Y523915D01*
X277132Y523984D01*
X277201Y524056D01*
X277267Y524130D01*
X277331Y524208D01*
X277391Y524287D01*
X277448Y524369D01*
X277502Y524453D01*
X277552Y524539D01*
X277599Y524627D01*
X277643Y524717D01*
X277683Y524808D01*
X277719Y524901D01*
X277752Y524995D01*
X277781Y525091D01*
X277806Y525187D01*
X277827Y525284D01*
X277845Y525383D01*
X277858Y525481D01*
X277868Y525581D01*
X277874Y525680D01*
X277876Y525780D01*
X277876Y541020D01*
X255524Y541020D02*
X255524Y525780D01*
X258064Y543560D02*
X275336Y543560D01*
D11*
X261947Y546537D02*
X261947Y550291D01*
X261946Y546537D02*
X261944Y546472D01*
X261938Y546408D01*
X261928Y546344D01*
X261915Y546280D01*
X261897Y546218D01*
X261876Y546157D01*
X261852Y546097D01*
X261823Y546039D01*
X261791Y545982D01*
X261756Y545928D01*
X261718Y545876D01*
X261676Y545826D01*
X261632Y545779D01*
X261585Y545735D01*
X261535Y545693D01*
X261483Y545655D01*
X261429Y545620D01*
X261372Y545588D01*
X261314Y545559D01*
X261254Y545535D01*
X261193Y545514D01*
X261131Y545496D01*
X261067Y545483D01*
X261003Y545473D01*
X260939Y545467D01*
X260874Y545465D01*
X260338Y545465D01*
X265224Y545465D02*
X265224Y550291D01*
X266564Y550291D01*
X266635Y550289D01*
X266707Y550283D01*
X266777Y550274D01*
X266847Y550261D01*
X266917Y550244D01*
X266985Y550223D01*
X267052Y550199D01*
X267118Y550171D01*
X267182Y550140D01*
X267245Y550105D01*
X267305Y550067D01*
X267364Y550026D01*
X267420Y549982D01*
X267474Y549935D01*
X267525Y549886D01*
X267573Y549833D01*
X267619Y549778D01*
X267661Y549721D01*
X267701Y549661D01*
X267737Y549600D01*
X267770Y549536D01*
X267799Y549471D01*
X267825Y549405D01*
X267848Y549337D01*
X267867Y549268D01*
X267882Y549198D01*
X267893Y549128D01*
X267901Y549057D01*
X267905Y548986D01*
X267905Y548914D01*
X267901Y548843D01*
X267893Y548772D01*
X267882Y548702D01*
X267867Y548632D01*
X267848Y548563D01*
X267825Y548495D01*
X267799Y548429D01*
X267770Y548364D01*
X267737Y548300D01*
X267701Y548239D01*
X267661Y548179D01*
X267619Y548122D01*
X267573Y548067D01*
X267525Y548014D01*
X267474Y547965D01*
X267420Y547918D01*
X267364Y547874D01*
X267305Y547833D01*
X267245Y547795D01*
X267182Y547760D01*
X267118Y547729D01*
X267052Y547701D01*
X266985Y547677D01*
X266917Y547656D01*
X266847Y547639D01*
X266777Y547626D01*
X266707Y547617D01*
X266635Y547611D01*
X266564Y547609D01*
X266564Y547610D02*
X265224Y547610D01*
X270381Y549219D02*
X271721Y550291D01*
X271721Y545465D01*
X270381Y545465D02*
X273062Y545465D01*
D14*
X224790Y431800D02*
X181610Y431800D01*
X224790Y406400D02*
X228600Y410210D01*
X224790Y406400D02*
X228600Y402590D01*
X228600Y384810D01*
X224790Y381000D01*
X228600Y377190D01*
X228600Y359410D01*
X224790Y355600D01*
X181610Y355600D02*
X177800Y359410D01*
X177800Y377190D01*
X181610Y381000D01*
X177800Y384810D01*
X177800Y402590D01*
X181610Y406400D01*
X177800Y410210D01*
X181610Y330200D02*
X224790Y330200D01*
X228600Y351790D02*
X224790Y355600D01*
X228600Y351790D02*
X228600Y334010D01*
X224790Y330200D01*
X181610Y355600D02*
X177800Y351790D01*
X177800Y334010D01*
X181610Y330200D01*
X228600Y427990D02*
X224790Y431800D01*
X228600Y427990D02*
X228600Y410210D01*
X181610Y431800D02*
X177800Y427990D01*
X177800Y410210D01*
D11*
X164465Y417195D02*
X161925Y420370D01*
X173355Y420370D01*
X173355Y417195D02*
X173355Y423545D01*
X164783Y398146D02*
X164679Y398144D01*
X164574Y398138D01*
X164470Y398129D01*
X164367Y398116D01*
X164264Y398098D01*
X164162Y398078D01*
X164060Y398053D01*
X163960Y398025D01*
X163860Y397993D01*
X163762Y397957D01*
X163665Y397918D01*
X163570Y397876D01*
X163476Y397830D01*
X163384Y397780D01*
X163294Y397728D01*
X163206Y397672D01*
X163120Y397612D01*
X163036Y397550D01*
X162955Y397485D01*
X162876Y397417D01*
X162799Y397345D01*
X162726Y397272D01*
X162654Y397195D01*
X162586Y397116D01*
X162521Y397035D01*
X162459Y396951D01*
X162399Y396865D01*
X162343Y396777D01*
X162291Y396687D01*
X162241Y396595D01*
X162195Y396501D01*
X162153Y396406D01*
X162114Y396309D01*
X162078Y396211D01*
X162046Y396111D01*
X162018Y396011D01*
X161993Y395909D01*
X161973Y395807D01*
X161955Y395704D01*
X161942Y395601D01*
X161933Y395497D01*
X161927Y395392D01*
X161925Y395288D01*
X161927Y395170D01*
X161933Y395051D01*
X161942Y394933D01*
X161955Y394816D01*
X161973Y394699D01*
X161993Y394582D01*
X162018Y394466D01*
X162046Y394351D01*
X162079Y394238D01*
X162114Y394125D01*
X162154Y394013D01*
X162196Y393903D01*
X162243Y393794D01*
X162293Y393686D01*
X162346Y393581D01*
X162403Y393477D01*
X162463Y393375D01*
X162526Y393275D01*
X162593Y393177D01*
X162662Y393081D01*
X162735Y392988D01*
X162811Y392897D01*
X162889Y392808D01*
X162971Y392722D01*
X163055Y392639D01*
X163141Y392558D01*
X163231Y392481D01*
X163322Y392406D01*
X163416Y392334D01*
X163513Y392265D01*
X163611Y392200D01*
X163712Y392137D01*
X163815Y392078D01*
X163919Y392022D01*
X164025Y391970D01*
X164133Y391921D01*
X164242Y391876D01*
X164353Y391834D01*
X164465Y391796D01*
X167005Y397193D02*
X166930Y397269D01*
X166851Y397344D01*
X166770Y397415D01*
X166686Y397484D01*
X166600Y397549D01*
X166512Y397611D01*
X166422Y397671D01*
X166330Y397727D01*
X166235Y397780D01*
X166139Y397829D01*
X166041Y397875D01*
X165942Y397918D01*
X165841Y397957D01*
X165739Y397992D01*
X165636Y398024D01*
X165532Y398052D01*
X165427Y398077D01*
X165320Y398098D01*
X165214Y398115D01*
X165107Y398128D01*
X164999Y398137D01*
X164891Y398143D01*
X164783Y398145D01*
X167005Y397193D02*
X173355Y391795D01*
X173355Y398145D01*
X173355Y369570D02*
X173355Y366395D01*
X173355Y369570D02*
X173353Y369681D01*
X173347Y369791D01*
X173338Y369902D01*
X173324Y370012D01*
X173307Y370121D01*
X173286Y370230D01*
X173261Y370338D01*
X173232Y370445D01*
X173200Y370551D01*
X173164Y370656D01*
X173124Y370759D01*
X173081Y370861D01*
X173034Y370962D01*
X172983Y371061D01*
X172930Y371158D01*
X172873Y371252D01*
X172812Y371345D01*
X172749Y371436D01*
X172682Y371525D01*
X172612Y371611D01*
X172539Y371694D01*
X172464Y371776D01*
X172386Y371854D01*
X172304Y371929D01*
X172221Y372002D01*
X172135Y372072D01*
X172046Y372139D01*
X171955Y372202D01*
X171862Y372263D01*
X171768Y372320D01*
X171671Y372373D01*
X171572Y372424D01*
X171471Y372471D01*
X171369Y372514D01*
X171266Y372554D01*
X171161Y372590D01*
X171055Y372622D01*
X170948Y372651D01*
X170840Y372676D01*
X170731Y372697D01*
X170622Y372714D01*
X170512Y372728D01*
X170401Y372737D01*
X170291Y372743D01*
X170180Y372745D01*
X170069Y372743D01*
X169959Y372737D01*
X169848Y372728D01*
X169738Y372714D01*
X169629Y372697D01*
X169520Y372676D01*
X169412Y372651D01*
X169305Y372622D01*
X169199Y372590D01*
X169094Y372554D01*
X168991Y372514D01*
X168889Y372471D01*
X168788Y372424D01*
X168689Y372373D01*
X168593Y372320D01*
X168498Y372263D01*
X168405Y372202D01*
X168314Y372139D01*
X168225Y372072D01*
X168139Y372002D01*
X168056Y371929D01*
X167974Y371854D01*
X167896Y371776D01*
X167821Y371694D01*
X167748Y371611D01*
X167678Y371525D01*
X167611Y371436D01*
X167548Y371345D01*
X167487Y371252D01*
X167430Y371158D01*
X167377Y371061D01*
X167326Y370962D01*
X167279Y370861D01*
X167236Y370759D01*
X167196Y370656D01*
X167160Y370551D01*
X167128Y370445D01*
X167099Y370338D01*
X167074Y370230D01*
X167053Y370121D01*
X167036Y370012D01*
X167022Y369902D01*
X167013Y369791D01*
X167007Y369681D01*
X167005Y369570D01*
X161925Y370205D02*
X161925Y366395D01*
X161925Y370205D02*
X161927Y370305D01*
X161933Y370404D01*
X161943Y370504D01*
X161956Y370602D01*
X161974Y370701D01*
X161995Y370798D01*
X162020Y370894D01*
X162049Y370990D01*
X162082Y371084D01*
X162118Y371177D01*
X162158Y371268D01*
X162202Y371358D01*
X162249Y371446D01*
X162299Y371532D01*
X162353Y371616D01*
X162410Y371698D01*
X162470Y371777D01*
X162534Y371855D01*
X162600Y371929D01*
X162669Y372001D01*
X162741Y372070D01*
X162815Y372136D01*
X162893Y372200D01*
X162972Y372260D01*
X163054Y372317D01*
X163138Y372371D01*
X163224Y372421D01*
X163312Y372468D01*
X163402Y372512D01*
X163493Y372552D01*
X163586Y372588D01*
X163680Y372621D01*
X163776Y372650D01*
X163872Y372675D01*
X163969Y372696D01*
X164068Y372714D01*
X164166Y372727D01*
X164266Y372737D01*
X164365Y372743D01*
X164465Y372745D01*
X164565Y372743D01*
X164664Y372737D01*
X164764Y372727D01*
X164862Y372714D01*
X164961Y372696D01*
X165058Y372675D01*
X165154Y372650D01*
X165250Y372621D01*
X165344Y372588D01*
X165437Y372552D01*
X165528Y372512D01*
X165618Y372468D01*
X165706Y372421D01*
X165792Y372371D01*
X165876Y372317D01*
X165958Y372260D01*
X166037Y372200D01*
X166115Y372136D01*
X166189Y372070D01*
X166261Y372001D01*
X166330Y371929D01*
X166396Y371855D01*
X166460Y371777D01*
X166520Y371698D01*
X166577Y371616D01*
X166631Y371532D01*
X166681Y371446D01*
X166728Y371358D01*
X166772Y371268D01*
X166812Y371177D01*
X166848Y371084D01*
X166881Y370990D01*
X166910Y370894D01*
X166935Y370798D01*
X166956Y370701D01*
X166974Y370602D01*
X166987Y370504D01*
X166997Y370404D01*
X167003Y370305D01*
X167005Y370205D01*
X167005Y367665D01*
X161925Y343535D02*
X170815Y340995D01*
X170815Y347345D01*
X168275Y345440D02*
X173355Y345440D01*
D14*
X321564Y586740D02*
X338836Y586740D01*
X341376Y604520D02*
X341374Y604620D01*
X341368Y604719D01*
X341358Y604819D01*
X341345Y604917D01*
X341327Y605016D01*
X341306Y605113D01*
X341281Y605209D01*
X341252Y605305D01*
X341219Y605399D01*
X341183Y605492D01*
X341143Y605583D01*
X341099Y605673D01*
X341052Y605761D01*
X341002Y605847D01*
X340948Y605931D01*
X340891Y606013D01*
X340831Y606092D01*
X340767Y606170D01*
X340701Y606244D01*
X340632Y606316D01*
X340560Y606385D01*
X340486Y606451D01*
X340408Y606515D01*
X340329Y606575D01*
X340247Y606632D01*
X340163Y606686D01*
X340077Y606736D01*
X339989Y606783D01*
X339899Y606827D01*
X339808Y606867D01*
X339715Y606903D01*
X339621Y606936D01*
X339525Y606965D01*
X339429Y606990D01*
X339332Y607011D01*
X339233Y607029D01*
X339135Y607042D01*
X339035Y607052D01*
X338936Y607058D01*
X338836Y607060D01*
X321564Y607060D02*
X321464Y607058D01*
X321365Y607052D01*
X321265Y607042D01*
X321167Y607029D01*
X321068Y607011D01*
X320971Y606990D01*
X320875Y606965D01*
X320779Y606936D01*
X320685Y606903D01*
X320592Y606867D01*
X320501Y606827D01*
X320411Y606783D01*
X320323Y606736D01*
X320237Y606686D01*
X320153Y606632D01*
X320071Y606575D01*
X319992Y606515D01*
X319914Y606451D01*
X319840Y606385D01*
X319768Y606316D01*
X319699Y606244D01*
X319633Y606170D01*
X319569Y606092D01*
X319509Y606013D01*
X319452Y605931D01*
X319398Y605847D01*
X319348Y605761D01*
X319301Y605673D01*
X319257Y605583D01*
X319217Y605492D01*
X319181Y605399D01*
X319148Y605305D01*
X319119Y605209D01*
X319094Y605113D01*
X319073Y605016D01*
X319055Y604917D01*
X319042Y604819D01*
X319032Y604719D01*
X319026Y604620D01*
X319024Y604520D01*
X319024Y589280D02*
X319026Y589180D01*
X319032Y589081D01*
X319042Y588981D01*
X319055Y588883D01*
X319073Y588784D01*
X319094Y588687D01*
X319119Y588591D01*
X319148Y588495D01*
X319181Y588401D01*
X319217Y588308D01*
X319257Y588217D01*
X319301Y588127D01*
X319348Y588039D01*
X319398Y587953D01*
X319452Y587869D01*
X319509Y587787D01*
X319569Y587708D01*
X319633Y587630D01*
X319699Y587556D01*
X319768Y587484D01*
X319840Y587415D01*
X319914Y587349D01*
X319992Y587285D01*
X320071Y587225D01*
X320153Y587168D01*
X320237Y587114D01*
X320323Y587064D01*
X320411Y587017D01*
X320501Y586973D01*
X320592Y586933D01*
X320685Y586897D01*
X320779Y586864D01*
X320875Y586835D01*
X320971Y586810D01*
X321068Y586789D01*
X321167Y586771D01*
X321265Y586758D01*
X321365Y586748D01*
X321464Y586742D01*
X321564Y586740D01*
X338836Y586740D02*
X338936Y586742D01*
X339035Y586748D01*
X339135Y586758D01*
X339233Y586771D01*
X339332Y586789D01*
X339429Y586810D01*
X339525Y586835D01*
X339621Y586864D01*
X339715Y586897D01*
X339808Y586933D01*
X339899Y586973D01*
X339989Y587017D01*
X340077Y587064D01*
X340163Y587114D01*
X340247Y587168D01*
X340329Y587225D01*
X340408Y587285D01*
X340486Y587349D01*
X340560Y587415D01*
X340632Y587484D01*
X340701Y587556D01*
X340767Y587630D01*
X340831Y587708D01*
X340891Y587787D01*
X340948Y587869D01*
X341002Y587953D01*
X341052Y588039D01*
X341099Y588127D01*
X341143Y588217D01*
X341183Y588308D01*
X341219Y588401D01*
X341252Y588495D01*
X341281Y588591D01*
X341306Y588687D01*
X341327Y588784D01*
X341345Y588883D01*
X341358Y588981D01*
X341368Y589081D01*
X341374Y589180D01*
X341376Y589280D01*
X341376Y604520D01*
X319024Y604520D02*
X319024Y589280D01*
X321564Y607060D02*
X338836Y607060D01*
D11*
X325447Y610037D02*
X325447Y613791D01*
X325446Y610037D02*
X325444Y609972D01*
X325438Y609908D01*
X325428Y609844D01*
X325415Y609780D01*
X325397Y609718D01*
X325376Y609657D01*
X325352Y609597D01*
X325323Y609539D01*
X325291Y609482D01*
X325256Y609428D01*
X325218Y609376D01*
X325176Y609326D01*
X325132Y609279D01*
X325085Y609235D01*
X325035Y609193D01*
X324983Y609155D01*
X324929Y609120D01*
X324872Y609088D01*
X324814Y609059D01*
X324754Y609035D01*
X324693Y609014D01*
X324631Y608996D01*
X324567Y608983D01*
X324503Y608973D01*
X324439Y608967D01*
X324374Y608965D01*
X323838Y608965D01*
X328724Y608965D02*
X328724Y613791D01*
X330064Y613791D01*
X330135Y613789D01*
X330207Y613783D01*
X330277Y613774D01*
X330347Y613761D01*
X330417Y613744D01*
X330485Y613723D01*
X330552Y613699D01*
X330618Y613671D01*
X330682Y613640D01*
X330745Y613605D01*
X330805Y613567D01*
X330864Y613526D01*
X330920Y613482D01*
X330974Y613435D01*
X331025Y613386D01*
X331073Y613333D01*
X331119Y613278D01*
X331161Y613221D01*
X331201Y613161D01*
X331237Y613100D01*
X331270Y613036D01*
X331299Y612971D01*
X331325Y612905D01*
X331348Y612837D01*
X331367Y612768D01*
X331382Y612698D01*
X331393Y612628D01*
X331401Y612557D01*
X331405Y612486D01*
X331405Y612414D01*
X331401Y612343D01*
X331393Y612272D01*
X331382Y612202D01*
X331367Y612132D01*
X331348Y612063D01*
X331325Y611995D01*
X331299Y611929D01*
X331270Y611864D01*
X331237Y611800D01*
X331201Y611739D01*
X331161Y611679D01*
X331119Y611622D01*
X331073Y611567D01*
X331025Y611514D01*
X330974Y611465D01*
X330920Y611418D01*
X330864Y611374D01*
X330805Y611333D01*
X330745Y611295D01*
X330682Y611260D01*
X330618Y611229D01*
X330552Y611201D01*
X330485Y611177D01*
X330417Y611156D01*
X330347Y611139D01*
X330277Y611126D01*
X330207Y611117D01*
X330135Y611111D01*
X330064Y611109D01*
X330064Y611110D02*
X328724Y611110D01*
X333881Y608965D02*
X335221Y608965D01*
X335292Y608967D01*
X335364Y608973D01*
X335434Y608982D01*
X335504Y608995D01*
X335574Y609012D01*
X335642Y609033D01*
X335709Y609057D01*
X335775Y609085D01*
X335839Y609116D01*
X335902Y609151D01*
X335962Y609189D01*
X336021Y609230D01*
X336077Y609274D01*
X336131Y609321D01*
X336182Y609370D01*
X336230Y609423D01*
X336276Y609478D01*
X336318Y609535D01*
X336358Y609595D01*
X336394Y609656D01*
X336427Y609720D01*
X336456Y609785D01*
X336482Y609851D01*
X336505Y609919D01*
X336524Y609988D01*
X336539Y610058D01*
X336550Y610128D01*
X336558Y610199D01*
X336562Y610270D01*
X336562Y610342D01*
X336558Y610413D01*
X336550Y610484D01*
X336539Y610554D01*
X336524Y610624D01*
X336505Y610693D01*
X336482Y610761D01*
X336456Y610827D01*
X336427Y610892D01*
X336394Y610956D01*
X336358Y611017D01*
X336318Y611077D01*
X336276Y611134D01*
X336230Y611189D01*
X336182Y611242D01*
X336131Y611291D01*
X336077Y611338D01*
X336021Y611382D01*
X335962Y611423D01*
X335902Y611461D01*
X335839Y611496D01*
X335775Y611527D01*
X335709Y611555D01*
X335642Y611579D01*
X335574Y611600D01*
X335504Y611617D01*
X335434Y611630D01*
X335364Y611639D01*
X335292Y611645D01*
X335221Y611647D01*
X335490Y613791D02*
X333881Y613791D01*
X335490Y613791D02*
X335555Y613789D01*
X335619Y613783D01*
X335683Y613773D01*
X335747Y613760D01*
X335809Y613742D01*
X335870Y613721D01*
X335930Y613697D01*
X335988Y613668D01*
X336045Y613636D01*
X336099Y613601D01*
X336151Y613563D01*
X336201Y613521D01*
X336248Y613477D01*
X336292Y613430D01*
X336334Y613380D01*
X336372Y613328D01*
X336407Y613274D01*
X336439Y613217D01*
X336468Y613159D01*
X336492Y613099D01*
X336513Y613038D01*
X336531Y612976D01*
X336544Y612912D01*
X336554Y612848D01*
X336560Y612784D01*
X336562Y612719D01*
X336560Y612654D01*
X336554Y612590D01*
X336544Y612526D01*
X336531Y612462D01*
X336513Y612400D01*
X336492Y612339D01*
X336468Y612279D01*
X336439Y612221D01*
X336407Y612164D01*
X336372Y612110D01*
X336334Y612058D01*
X336292Y612008D01*
X336248Y611961D01*
X336201Y611917D01*
X336151Y611875D01*
X336099Y611837D01*
X336045Y611802D01*
X335988Y611770D01*
X335930Y611741D01*
X335870Y611717D01*
X335809Y611696D01*
X335747Y611678D01*
X335683Y611665D01*
X335619Y611655D01*
X335555Y611649D01*
X335490Y611647D01*
X335490Y611646D02*
X334417Y611646D01*
D14*
X600710Y431800D02*
X643890Y431800D01*
X647700Y410210D02*
X643890Y406400D01*
X647700Y402590D01*
X647700Y384810D01*
X643890Y381000D01*
X647700Y377190D01*
X647700Y359410D01*
X643890Y355600D01*
X600710Y355600D02*
X596900Y359410D01*
X596900Y377190D01*
X600710Y381000D01*
X596900Y384810D01*
X596900Y402590D01*
X600710Y406400D01*
X596900Y410210D01*
X600710Y330200D02*
X643890Y330200D01*
X647700Y351790D02*
X643890Y355600D01*
X647700Y351790D02*
X647700Y334010D01*
X643890Y330200D01*
X600710Y355600D02*
X596900Y351790D01*
X596900Y334010D01*
X600710Y330200D01*
X647700Y427990D02*
X643890Y431800D01*
X647700Y427990D02*
X647700Y410210D01*
X600710Y431800D02*
X596900Y427990D01*
X596900Y410210D01*
D11*
X583565Y417195D02*
X581025Y420370D01*
X592455Y420370D01*
X592455Y417195D02*
X592455Y423545D01*
X583883Y398146D02*
X583779Y398144D01*
X583674Y398138D01*
X583570Y398129D01*
X583467Y398116D01*
X583364Y398098D01*
X583262Y398078D01*
X583160Y398053D01*
X583060Y398025D01*
X582960Y397993D01*
X582862Y397957D01*
X582765Y397918D01*
X582670Y397876D01*
X582576Y397830D01*
X582484Y397780D01*
X582394Y397728D01*
X582306Y397672D01*
X582220Y397612D01*
X582136Y397550D01*
X582055Y397485D01*
X581976Y397417D01*
X581899Y397345D01*
X581826Y397272D01*
X581754Y397195D01*
X581686Y397116D01*
X581621Y397035D01*
X581559Y396951D01*
X581499Y396865D01*
X581443Y396777D01*
X581391Y396687D01*
X581341Y396595D01*
X581295Y396501D01*
X581253Y396406D01*
X581214Y396309D01*
X581178Y396211D01*
X581146Y396111D01*
X581118Y396011D01*
X581093Y395909D01*
X581073Y395807D01*
X581055Y395704D01*
X581042Y395601D01*
X581033Y395497D01*
X581027Y395392D01*
X581025Y395288D01*
X581027Y395170D01*
X581033Y395051D01*
X581042Y394933D01*
X581055Y394816D01*
X581073Y394699D01*
X581093Y394582D01*
X581118Y394466D01*
X581146Y394351D01*
X581179Y394238D01*
X581214Y394125D01*
X581254Y394013D01*
X581296Y393903D01*
X581343Y393794D01*
X581393Y393686D01*
X581446Y393581D01*
X581503Y393477D01*
X581563Y393375D01*
X581626Y393275D01*
X581693Y393177D01*
X581762Y393081D01*
X581835Y392988D01*
X581911Y392897D01*
X581989Y392808D01*
X582071Y392722D01*
X582155Y392639D01*
X582241Y392558D01*
X582331Y392481D01*
X582422Y392406D01*
X582516Y392334D01*
X582613Y392265D01*
X582711Y392200D01*
X582812Y392137D01*
X582915Y392078D01*
X583019Y392022D01*
X583125Y391970D01*
X583233Y391921D01*
X583342Y391876D01*
X583453Y391834D01*
X583565Y391796D01*
X586105Y397193D02*
X586030Y397269D01*
X585951Y397344D01*
X585870Y397415D01*
X585786Y397484D01*
X585700Y397549D01*
X585612Y397611D01*
X585522Y397671D01*
X585430Y397727D01*
X585335Y397780D01*
X585239Y397829D01*
X585141Y397875D01*
X585042Y397918D01*
X584941Y397957D01*
X584839Y397992D01*
X584736Y398024D01*
X584632Y398052D01*
X584527Y398077D01*
X584420Y398098D01*
X584314Y398115D01*
X584207Y398128D01*
X584099Y398137D01*
X583991Y398143D01*
X583883Y398145D01*
X586105Y397193D02*
X592455Y391795D01*
X592455Y398145D01*
X592455Y369570D02*
X592455Y366395D01*
X592455Y369570D02*
X592453Y369681D01*
X592447Y369791D01*
X592438Y369902D01*
X592424Y370012D01*
X592407Y370121D01*
X592386Y370230D01*
X592361Y370338D01*
X592332Y370445D01*
X592300Y370551D01*
X592264Y370656D01*
X592224Y370759D01*
X592181Y370861D01*
X592134Y370962D01*
X592083Y371061D01*
X592030Y371158D01*
X591973Y371252D01*
X591912Y371345D01*
X591849Y371436D01*
X591782Y371525D01*
X591712Y371611D01*
X591639Y371694D01*
X591564Y371776D01*
X591486Y371854D01*
X591404Y371929D01*
X591321Y372002D01*
X591235Y372072D01*
X591146Y372139D01*
X591055Y372202D01*
X590962Y372263D01*
X590868Y372320D01*
X590771Y372373D01*
X590672Y372424D01*
X590571Y372471D01*
X590469Y372514D01*
X590366Y372554D01*
X590261Y372590D01*
X590155Y372622D01*
X590048Y372651D01*
X589940Y372676D01*
X589831Y372697D01*
X589722Y372714D01*
X589612Y372728D01*
X589501Y372737D01*
X589391Y372743D01*
X589280Y372745D01*
X589169Y372743D01*
X589059Y372737D01*
X588948Y372728D01*
X588838Y372714D01*
X588729Y372697D01*
X588620Y372676D01*
X588512Y372651D01*
X588405Y372622D01*
X588299Y372590D01*
X588194Y372554D01*
X588091Y372514D01*
X587989Y372471D01*
X587888Y372424D01*
X587789Y372373D01*
X587693Y372320D01*
X587598Y372263D01*
X587505Y372202D01*
X587414Y372139D01*
X587325Y372072D01*
X587239Y372002D01*
X587156Y371929D01*
X587074Y371854D01*
X586996Y371776D01*
X586921Y371694D01*
X586848Y371611D01*
X586778Y371525D01*
X586711Y371436D01*
X586648Y371345D01*
X586587Y371252D01*
X586530Y371158D01*
X586477Y371061D01*
X586426Y370962D01*
X586379Y370861D01*
X586336Y370759D01*
X586296Y370656D01*
X586260Y370551D01*
X586228Y370445D01*
X586199Y370338D01*
X586174Y370230D01*
X586153Y370121D01*
X586136Y370012D01*
X586122Y369902D01*
X586113Y369791D01*
X586107Y369681D01*
X586105Y369570D01*
X581025Y370205D02*
X581025Y366395D01*
X581025Y370205D02*
X581027Y370305D01*
X581033Y370404D01*
X581043Y370504D01*
X581056Y370602D01*
X581074Y370701D01*
X581095Y370798D01*
X581120Y370894D01*
X581149Y370990D01*
X581182Y371084D01*
X581218Y371177D01*
X581258Y371268D01*
X581302Y371358D01*
X581349Y371446D01*
X581399Y371532D01*
X581453Y371616D01*
X581510Y371698D01*
X581570Y371777D01*
X581634Y371855D01*
X581700Y371929D01*
X581769Y372001D01*
X581841Y372070D01*
X581915Y372136D01*
X581993Y372200D01*
X582072Y372260D01*
X582154Y372317D01*
X582238Y372371D01*
X582324Y372421D01*
X582412Y372468D01*
X582502Y372512D01*
X582593Y372552D01*
X582686Y372588D01*
X582780Y372621D01*
X582876Y372650D01*
X582972Y372675D01*
X583069Y372696D01*
X583168Y372714D01*
X583266Y372727D01*
X583366Y372737D01*
X583465Y372743D01*
X583565Y372745D01*
X583665Y372743D01*
X583764Y372737D01*
X583864Y372727D01*
X583962Y372714D01*
X584061Y372696D01*
X584158Y372675D01*
X584254Y372650D01*
X584350Y372621D01*
X584444Y372588D01*
X584537Y372552D01*
X584628Y372512D01*
X584718Y372468D01*
X584806Y372421D01*
X584892Y372371D01*
X584976Y372317D01*
X585058Y372260D01*
X585137Y372200D01*
X585215Y372136D01*
X585289Y372070D01*
X585361Y372001D01*
X585430Y371929D01*
X585496Y371855D01*
X585560Y371777D01*
X585620Y371698D01*
X585677Y371616D01*
X585731Y371532D01*
X585781Y371446D01*
X585828Y371358D01*
X585872Y371268D01*
X585912Y371177D01*
X585948Y371084D01*
X585981Y370990D01*
X586010Y370894D01*
X586035Y370798D01*
X586056Y370701D01*
X586074Y370602D01*
X586087Y370504D01*
X586097Y370404D01*
X586103Y370305D01*
X586105Y370205D01*
X586105Y367665D01*
X581025Y343535D02*
X589915Y340995D01*
X589915Y347345D01*
X587375Y345440D02*
X592455Y345440D01*
X653415Y407976D02*
X662305Y407976D01*
X662405Y407974D01*
X662504Y407968D01*
X662604Y407958D01*
X662702Y407945D01*
X662801Y407927D01*
X662898Y407906D01*
X662994Y407881D01*
X663090Y407852D01*
X663184Y407819D01*
X663277Y407783D01*
X663368Y407743D01*
X663458Y407699D01*
X663546Y407652D01*
X663632Y407602D01*
X663716Y407548D01*
X663798Y407491D01*
X663877Y407431D01*
X663955Y407367D01*
X664029Y407301D01*
X664101Y407232D01*
X664170Y407160D01*
X664236Y407086D01*
X664300Y407008D01*
X664360Y406929D01*
X664417Y406847D01*
X664471Y406763D01*
X664521Y406677D01*
X664568Y406589D01*
X664612Y406499D01*
X664652Y406408D01*
X664688Y406315D01*
X664721Y406221D01*
X664750Y406125D01*
X664775Y406029D01*
X664796Y405932D01*
X664814Y405833D01*
X664827Y405735D01*
X664837Y405635D01*
X664843Y405536D01*
X664845Y405436D01*
X664845Y404166D01*
X664845Y413957D02*
X653415Y413957D01*
X653415Y417132D01*
X653417Y417243D01*
X653423Y417353D01*
X653432Y417464D01*
X653446Y417574D01*
X653463Y417683D01*
X653484Y417792D01*
X653509Y417900D01*
X653538Y418007D01*
X653570Y418113D01*
X653606Y418218D01*
X653646Y418321D01*
X653689Y418423D01*
X653736Y418524D01*
X653787Y418623D01*
X653840Y418720D01*
X653897Y418814D01*
X653958Y418907D01*
X654021Y418998D01*
X654088Y419087D01*
X654158Y419173D01*
X654231Y419256D01*
X654306Y419338D01*
X654384Y419416D01*
X654466Y419491D01*
X654549Y419564D01*
X654635Y419634D01*
X654724Y419701D01*
X654815Y419764D01*
X654908Y419825D01*
X655003Y419882D01*
X655099Y419935D01*
X655198Y419986D01*
X655299Y420033D01*
X655401Y420076D01*
X655504Y420116D01*
X655609Y420152D01*
X655715Y420184D01*
X655822Y420213D01*
X655930Y420238D01*
X656039Y420259D01*
X656148Y420276D01*
X656258Y420290D01*
X656369Y420299D01*
X656479Y420305D01*
X656590Y420307D01*
X656701Y420305D01*
X656811Y420299D01*
X656922Y420290D01*
X657032Y420276D01*
X657141Y420259D01*
X657250Y420238D01*
X657358Y420213D01*
X657465Y420184D01*
X657571Y420152D01*
X657676Y420116D01*
X657779Y420076D01*
X657881Y420033D01*
X657982Y419986D01*
X658081Y419935D01*
X658178Y419882D01*
X658272Y419825D01*
X658365Y419764D01*
X658456Y419701D01*
X658545Y419634D01*
X658631Y419564D01*
X658714Y419491D01*
X658796Y419416D01*
X658874Y419338D01*
X658949Y419256D01*
X659022Y419173D01*
X659092Y419087D01*
X659159Y418998D01*
X659222Y418907D01*
X659283Y418814D01*
X659340Y418720D01*
X659393Y418623D01*
X659444Y418524D01*
X659491Y418423D01*
X659534Y418321D01*
X659574Y418218D01*
X659610Y418113D01*
X659642Y418007D01*
X659671Y417900D01*
X659696Y417792D01*
X659717Y417683D01*
X659734Y417574D01*
X659748Y417464D01*
X659757Y417353D01*
X659763Y417243D01*
X659765Y417132D01*
X659765Y413957D01*
X661670Y424815D02*
X661559Y424817D01*
X661449Y424823D01*
X661338Y424832D01*
X661228Y424846D01*
X661119Y424863D01*
X661010Y424884D01*
X660902Y424909D01*
X660795Y424938D01*
X660689Y424970D01*
X660584Y425006D01*
X660481Y425046D01*
X660379Y425089D01*
X660278Y425136D01*
X660179Y425187D01*
X660083Y425240D01*
X659988Y425297D01*
X659895Y425358D01*
X659804Y425421D01*
X659715Y425488D01*
X659629Y425558D01*
X659546Y425631D01*
X659464Y425706D01*
X659386Y425784D01*
X659311Y425866D01*
X659238Y425949D01*
X659168Y426035D01*
X659101Y426124D01*
X659038Y426215D01*
X658977Y426308D01*
X658920Y426403D01*
X658867Y426499D01*
X658816Y426598D01*
X658769Y426699D01*
X658726Y426801D01*
X658686Y426904D01*
X658650Y427009D01*
X658618Y427115D01*
X658589Y427222D01*
X658564Y427330D01*
X658543Y427439D01*
X658526Y427548D01*
X658512Y427658D01*
X658503Y427769D01*
X658497Y427879D01*
X658495Y427990D01*
X658497Y428101D01*
X658503Y428211D01*
X658512Y428322D01*
X658526Y428432D01*
X658543Y428541D01*
X658564Y428650D01*
X658589Y428758D01*
X658618Y428865D01*
X658650Y428971D01*
X658686Y429076D01*
X658726Y429179D01*
X658769Y429281D01*
X658816Y429382D01*
X658867Y429481D01*
X658920Y429578D01*
X658977Y429672D01*
X659038Y429765D01*
X659101Y429856D01*
X659168Y429945D01*
X659238Y430031D01*
X659311Y430114D01*
X659386Y430196D01*
X659464Y430274D01*
X659546Y430349D01*
X659629Y430422D01*
X659715Y430492D01*
X659804Y430559D01*
X659895Y430622D01*
X659988Y430683D01*
X660083Y430740D01*
X660179Y430793D01*
X660278Y430844D01*
X660379Y430891D01*
X660481Y430934D01*
X660584Y430974D01*
X660689Y431010D01*
X660795Y431042D01*
X660902Y431071D01*
X661010Y431096D01*
X661119Y431117D01*
X661228Y431134D01*
X661338Y431148D01*
X661449Y431157D01*
X661559Y431163D01*
X661670Y431165D01*
X661781Y431163D01*
X661891Y431157D01*
X662002Y431148D01*
X662112Y431134D01*
X662221Y431117D01*
X662330Y431096D01*
X662438Y431071D01*
X662545Y431042D01*
X662651Y431010D01*
X662756Y430974D01*
X662859Y430934D01*
X662961Y430891D01*
X663062Y430844D01*
X663161Y430793D01*
X663258Y430740D01*
X663352Y430683D01*
X663445Y430622D01*
X663536Y430559D01*
X663625Y430492D01*
X663711Y430422D01*
X663794Y430349D01*
X663876Y430274D01*
X663954Y430196D01*
X664029Y430114D01*
X664102Y430031D01*
X664172Y429945D01*
X664239Y429856D01*
X664302Y429765D01*
X664363Y429672D01*
X664420Y429577D01*
X664473Y429481D01*
X664524Y429382D01*
X664571Y429281D01*
X664614Y429179D01*
X664654Y429076D01*
X664690Y428971D01*
X664722Y428865D01*
X664751Y428758D01*
X664776Y428650D01*
X664797Y428541D01*
X664814Y428432D01*
X664828Y428322D01*
X664837Y428211D01*
X664843Y428101D01*
X664845Y427990D01*
X664843Y427879D01*
X664837Y427769D01*
X664828Y427658D01*
X664814Y427548D01*
X664797Y427439D01*
X664776Y427330D01*
X664751Y427222D01*
X664722Y427115D01*
X664690Y427009D01*
X664654Y426904D01*
X664614Y426801D01*
X664571Y426699D01*
X664524Y426598D01*
X664473Y426499D01*
X664420Y426402D01*
X664363Y426308D01*
X664302Y426215D01*
X664239Y426124D01*
X664172Y426035D01*
X664102Y425949D01*
X664029Y425866D01*
X663954Y425784D01*
X663876Y425706D01*
X663794Y425631D01*
X663711Y425558D01*
X663625Y425488D01*
X663536Y425421D01*
X663445Y425358D01*
X663352Y425297D01*
X663258Y425240D01*
X663161Y425187D01*
X663062Y425136D01*
X662961Y425089D01*
X662859Y425046D01*
X662756Y425006D01*
X662651Y424970D01*
X662545Y424938D01*
X662438Y424909D01*
X662330Y424884D01*
X662221Y424863D01*
X662112Y424846D01*
X662002Y424832D01*
X661891Y424823D01*
X661781Y424817D01*
X661670Y424815D01*
X655955Y425450D02*
X655855Y425452D01*
X655756Y425458D01*
X655656Y425468D01*
X655558Y425481D01*
X655459Y425499D01*
X655362Y425520D01*
X655266Y425545D01*
X655170Y425574D01*
X655076Y425607D01*
X654983Y425643D01*
X654892Y425683D01*
X654802Y425727D01*
X654714Y425774D01*
X654628Y425824D01*
X654544Y425878D01*
X654462Y425935D01*
X654383Y425995D01*
X654305Y426059D01*
X654231Y426125D01*
X654159Y426194D01*
X654090Y426266D01*
X654024Y426340D01*
X653960Y426418D01*
X653900Y426497D01*
X653843Y426579D01*
X653789Y426663D01*
X653739Y426749D01*
X653692Y426837D01*
X653648Y426927D01*
X653608Y427018D01*
X653572Y427111D01*
X653539Y427205D01*
X653510Y427301D01*
X653485Y427397D01*
X653464Y427494D01*
X653446Y427593D01*
X653433Y427691D01*
X653423Y427791D01*
X653417Y427890D01*
X653415Y427990D01*
X653417Y428090D01*
X653423Y428189D01*
X653433Y428289D01*
X653446Y428387D01*
X653464Y428486D01*
X653485Y428583D01*
X653510Y428679D01*
X653539Y428775D01*
X653572Y428869D01*
X653608Y428962D01*
X653648Y429053D01*
X653692Y429143D01*
X653739Y429231D01*
X653789Y429317D01*
X653843Y429401D01*
X653900Y429483D01*
X653960Y429562D01*
X654024Y429640D01*
X654090Y429714D01*
X654159Y429786D01*
X654231Y429855D01*
X654305Y429921D01*
X654383Y429985D01*
X654462Y430045D01*
X654544Y430102D01*
X654628Y430156D01*
X654714Y430206D01*
X654802Y430253D01*
X654892Y430297D01*
X654983Y430337D01*
X655076Y430373D01*
X655170Y430406D01*
X655266Y430435D01*
X655362Y430460D01*
X655459Y430481D01*
X655558Y430499D01*
X655656Y430512D01*
X655756Y430522D01*
X655855Y430528D01*
X655955Y430530D01*
X656055Y430528D01*
X656154Y430522D01*
X656254Y430512D01*
X656352Y430499D01*
X656451Y430481D01*
X656548Y430460D01*
X656644Y430435D01*
X656740Y430406D01*
X656834Y430373D01*
X656927Y430337D01*
X657018Y430297D01*
X657108Y430253D01*
X657196Y430206D01*
X657282Y430156D01*
X657366Y430102D01*
X657448Y430045D01*
X657527Y429985D01*
X657605Y429921D01*
X657679Y429855D01*
X657751Y429786D01*
X657820Y429714D01*
X657886Y429640D01*
X657950Y429562D01*
X658010Y429483D01*
X658067Y429401D01*
X658121Y429317D01*
X658171Y429231D01*
X658218Y429143D01*
X658262Y429053D01*
X658302Y428962D01*
X658338Y428869D01*
X658371Y428775D01*
X658400Y428679D01*
X658425Y428583D01*
X658446Y428486D01*
X658464Y428387D01*
X658477Y428289D01*
X658487Y428189D01*
X658493Y428090D01*
X658495Y427990D01*
X658493Y427890D01*
X658487Y427791D01*
X658477Y427691D01*
X658464Y427593D01*
X658446Y427494D01*
X658425Y427397D01*
X658400Y427301D01*
X658371Y427205D01*
X658338Y427111D01*
X658302Y427018D01*
X658262Y426927D01*
X658218Y426837D01*
X658171Y426749D01*
X658121Y426663D01*
X658067Y426579D01*
X658010Y426497D01*
X657950Y426418D01*
X657886Y426340D01*
X657820Y426266D01*
X657751Y426194D01*
X657679Y426125D01*
X657605Y426059D01*
X657527Y425995D01*
X657448Y425935D01*
X657366Y425878D01*
X657282Y425824D01*
X657196Y425774D01*
X657108Y425727D01*
X657018Y425683D01*
X656927Y425643D01*
X656834Y425607D01*
X656740Y425574D01*
X656644Y425545D01*
X656548Y425520D01*
X656451Y425499D01*
X656352Y425481D01*
X656254Y425468D01*
X656154Y425458D01*
X656055Y425452D01*
X655955Y425450D01*
D13*
X597408Y297942D02*
X597408Y286258D01*
X597408Y297942D02*
X600654Y297942D01*
X600767Y297940D01*
X600880Y297934D01*
X600993Y297924D01*
X601106Y297910D01*
X601218Y297893D01*
X601329Y297871D01*
X601439Y297846D01*
X601549Y297816D01*
X601657Y297783D01*
X601764Y297746D01*
X601870Y297706D01*
X601974Y297661D01*
X602077Y297613D01*
X602178Y297562D01*
X602277Y297507D01*
X602374Y297449D01*
X602469Y297387D01*
X602562Y297322D01*
X602652Y297254D01*
X602740Y297183D01*
X602826Y297108D01*
X602909Y297031D01*
X602989Y296951D01*
X603066Y296868D01*
X603141Y296782D01*
X603212Y296694D01*
X603280Y296604D01*
X603345Y296511D01*
X603407Y296416D01*
X603465Y296319D01*
X603520Y296220D01*
X603571Y296119D01*
X603619Y296016D01*
X603664Y295912D01*
X603704Y295806D01*
X603741Y295699D01*
X603774Y295591D01*
X603804Y295481D01*
X603829Y295371D01*
X603851Y295260D01*
X603868Y295148D01*
X603882Y295035D01*
X603892Y294922D01*
X603898Y294809D01*
X603900Y294696D01*
X603898Y294583D01*
X603892Y294470D01*
X603882Y294357D01*
X603868Y294244D01*
X603851Y294132D01*
X603829Y294021D01*
X603804Y293911D01*
X603774Y293801D01*
X603741Y293693D01*
X603704Y293586D01*
X603664Y293480D01*
X603619Y293376D01*
X603571Y293273D01*
X603520Y293172D01*
X603465Y293073D01*
X603407Y292976D01*
X603345Y292881D01*
X603280Y292788D01*
X603212Y292698D01*
X603141Y292610D01*
X603066Y292524D01*
X602989Y292441D01*
X602909Y292361D01*
X602826Y292284D01*
X602740Y292209D01*
X602652Y292138D01*
X602562Y292070D01*
X602469Y292005D01*
X602374Y291943D01*
X602277Y291885D01*
X602178Y291830D01*
X602077Y291779D01*
X601974Y291731D01*
X601870Y291686D01*
X601764Y291646D01*
X601657Y291609D01*
X601549Y291576D01*
X601439Y291546D01*
X601329Y291521D01*
X601218Y291499D01*
X601106Y291482D01*
X600993Y291468D01*
X600880Y291458D01*
X600767Y291452D01*
X600654Y291450D01*
X600654Y291451D02*
X597408Y291451D01*
X601303Y291451D02*
X603899Y286258D01*
X608764Y295346D02*
X612010Y297942D01*
X612010Y286258D01*
X615255Y286258D02*
X608764Y286258D01*
X597408Y679958D02*
X597408Y691642D01*
X600654Y691642D01*
X600767Y691640D01*
X600880Y691634D01*
X600993Y691624D01*
X601106Y691610D01*
X601218Y691593D01*
X601329Y691571D01*
X601439Y691546D01*
X601549Y691516D01*
X601657Y691483D01*
X601764Y691446D01*
X601870Y691406D01*
X601974Y691361D01*
X602077Y691313D01*
X602178Y691262D01*
X602277Y691207D01*
X602374Y691149D01*
X602469Y691087D01*
X602562Y691022D01*
X602652Y690954D01*
X602740Y690883D01*
X602826Y690808D01*
X602909Y690731D01*
X602989Y690651D01*
X603066Y690568D01*
X603141Y690482D01*
X603212Y690394D01*
X603280Y690304D01*
X603345Y690211D01*
X603407Y690116D01*
X603465Y690019D01*
X603520Y689920D01*
X603571Y689819D01*
X603619Y689716D01*
X603664Y689612D01*
X603704Y689506D01*
X603741Y689399D01*
X603774Y689291D01*
X603804Y689181D01*
X603829Y689071D01*
X603851Y688960D01*
X603868Y688848D01*
X603882Y688735D01*
X603892Y688622D01*
X603898Y688509D01*
X603900Y688396D01*
X603898Y688283D01*
X603892Y688170D01*
X603882Y688057D01*
X603868Y687944D01*
X603851Y687832D01*
X603829Y687721D01*
X603804Y687611D01*
X603774Y687501D01*
X603741Y687393D01*
X603704Y687286D01*
X603664Y687180D01*
X603619Y687076D01*
X603571Y686973D01*
X603520Y686872D01*
X603465Y686773D01*
X603407Y686676D01*
X603345Y686581D01*
X603280Y686488D01*
X603212Y686398D01*
X603141Y686310D01*
X603066Y686224D01*
X602989Y686141D01*
X602909Y686061D01*
X602826Y685984D01*
X602740Y685909D01*
X602652Y685838D01*
X602562Y685770D01*
X602469Y685705D01*
X602374Y685643D01*
X602277Y685585D01*
X602178Y685530D01*
X602077Y685479D01*
X601974Y685431D01*
X601870Y685386D01*
X601764Y685346D01*
X601657Y685309D01*
X601549Y685276D01*
X601439Y685246D01*
X601329Y685221D01*
X601218Y685199D01*
X601106Y685182D01*
X600993Y685168D01*
X600880Y685158D01*
X600767Y685152D01*
X600654Y685150D01*
X600654Y685151D02*
X597408Y685151D01*
X601303Y685151D02*
X603899Y679958D01*
X615255Y688721D02*
X615253Y688828D01*
X615247Y688934D01*
X615237Y689040D01*
X615224Y689146D01*
X615206Y689252D01*
X615185Y689356D01*
X615160Y689460D01*
X615131Y689563D01*
X615099Y689664D01*
X615062Y689764D01*
X615022Y689863D01*
X614979Y689961D01*
X614932Y690057D01*
X614881Y690151D01*
X614827Y690243D01*
X614770Y690333D01*
X614710Y690421D01*
X614646Y690506D01*
X614579Y690589D01*
X614509Y690670D01*
X614437Y690748D01*
X614361Y690824D01*
X614283Y690896D01*
X614202Y690966D01*
X614119Y691033D01*
X614034Y691097D01*
X613946Y691157D01*
X613856Y691214D01*
X613764Y691268D01*
X613670Y691319D01*
X613574Y691366D01*
X613476Y691409D01*
X613377Y691449D01*
X613277Y691486D01*
X613176Y691518D01*
X613073Y691547D01*
X612969Y691572D01*
X612865Y691593D01*
X612759Y691611D01*
X612653Y691624D01*
X612547Y691634D01*
X612441Y691640D01*
X612334Y691642D01*
X612213Y691640D01*
X612092Y691634D01*
X611972Y691624D01*
X611851Y691611D01*
X611732Y691593D01*
X611612Y691572D01*
X611494Y691547D01*
X611377Y691518D01*
X611260Y691485D01*
X611145Y691449D01*
X611031Y691408D01*
X610918Y691365D01*
X610806Y691317D01*
X610697Y691266D01*
X610589Y691211D01*
X610482Y691153D01*
X610378Y691092D01*
X610276Y691027D01*
X610176Y690959D01*
X610078Y690888D01*
X609982Y690814D01*
X609889Y690737D01*
X609799Y690656D01*
X609711Y690573D01*
X609626Y690487D01*
X609543Y690398D01*
X609464Y690307D01*
X609387Y690213D01*
X609314Y690117D01*
X609244Y690019D01*
X609177Y689918D01*
X609113Y689815D01*
X609053Y689710D01*
X608996Y689603D01*
X608942Y689495D01*
X608892Y689385D01*
X608846Y689273D01*
X608803Y689160D01*
X608764Y689045D01*
X614282Y686449D02*
X614361Y686526D01*
X614437Y686607D01*
X614510Y686690D01*
X614580Y686775D01*
X614647Y686863D01*
X614711Y686953D01*
X614771Y687045D01*
X614828Y687140D01*
X614882Y687236D01*
X614933Y687334D01*
X614980Y687434D01*
X615024Y687536D01*
X615064Y687639D01*
X615100Y687743D01*
X615132Y687849D01*
X615161Y687955D01*
X615186Y688063D01*
X615208Y688171D01*
X615225Y688281D01*
X615239Y688390D01*
X615248Y688500D01*
X615254Y688611D01*
X615256Y688721D01*
X614282Y686449D02*
X608764Y679958D01*
X615255Y679958D01*
X286445Y640842D02*
X286445Y629158D01*
X286445Y640842D02*
X289690Y640842D01*
X289803Y640840D01*
X289916Y640834D01*
X290029Y640824D01*
X290142Y640810D01*
X290254Y640793D01*
X290365Y640771D01*
X290475Y640746D01*
X290585Y640716D01*
X290693Y640683D01*
X290800Y640646D01*
X290906Y640606D01*
X291010Y640561D01*
X291113Y640513D01*
X291214Y640462D01*
X291313Y640407D01*
X291410Y640349D01*
X291505Y640287D01*
X291598Y640222D01*
X291688Y640154D01*
X291776Y640083D01*
X291862Y640008D01*
X291945Y639931D01*
X292025Y639851D01*
X292102Y639768D01*
X292177Y639682D01*
X292248Y639594D01*
X292316Y639504D01*
X292381Y639411D01*
X292443Y639316D01*
X292501Y639219D01*
X292556Y639120D01*
X292607Y639019D01*
X292655Y638916D01*
X292700Y638812D01*
X292740Y638706D01*
X292777Y638599D01*
X292810Y638491D01*
X292840Y638381D01*
X292865Y638271D01*
X292887Y638160D01*
X292904Y638048D01*
X292918Y637935D01*
X292928Y637822D01*
X292934Y637709D01*
X292936Y637596D01*
X292934Y637483D01*
X292928Y637370D01*
X292918Y637257D01*
X292904Y637144D01*
X292887Y637032D01*
X292865Y636921D01*
X292840Y636811D01*
X292810Y636701D01*
X292777Y636593D01*
X292740Y636486D01*
X292700Y636380D01*
X292655Y636276D01*
X292607Y636173D01*
X292556Y636072D01*
X292501Y635973D01*
X292443Y635876D01*
X292381Y635781D01*
X292316Y635688D01*
X292248Y635598D01*
X292177Y635510D01*
X292102Y635424D01*
X292025Y635341D01*
X291945Y635261D01*
X291862Y635184D01*
X291776Y635109D01*
X291688Y635038D01*
X291598Y634970D01*
X291505Y634905D01*
X291410Y634843D01*
X291313Y634785D01*
X291214Y634730D01*
X291113Y634679D01*
X291010Y634631D01*
X290906Y634586D01*
X290800Y634546D01*
X290693Y634509D01*
X290585Y634476D01*
X290475Y634446D01*
X290365Y634421D01*
X290254Y634399D01*
X290142Y634382D01*
X290029Y634368D01*
X289916Y634358D01*
X289803Y634352D01*
X289690Y634350D01*
X289690Y634351D02*
X286445Y634351D01*
X290339Y634351D02*
X292936Y629158D01*
X297801Y629158D02*
X301046Y629158D01*
X301159Y629160D01*
X301272Y629166D01*
X301385Y629176D01*
X301498Y629190D01*
X301610Y629207D01*
X301721Y629229D01*
X301831Y629254D01*
X301941Y629284D01*
X302049Y629317D01*
X302156Y629354D01*
X302262Y629394D01*
X302366Y629439D01*
X302469Y629487D01*
X302570Y629538D01*
X302669Y629593D01*
X302766Y629651D01*
X302861Y629713D01*
X302954Y629778D01*
X303044Y629846D01*
X303132Y629917D01*
X303218Y629992D01*
X303301Y630069D01*
X303381Y630149D01*
X303458Y630232D01*
X303533Y630318D01*
X303604Y630406D01*
X303672Y630496D01*
X303737Y630589D01*
X303799Y630684D01*
X303857Y630781D01*
X303912Y630880D01*
X303963Y630981D01*
X304011Y631084D01*
X304056Y631188D01*
X304096Y631294D01*
X304133Y631401D01*
X304166Y631509D01*
X304196Y631619D01*
X304221Y631729D01*
X304243Y631840D01*
X304260Y631952D01*
X304274Y632065D01*
X304284Y632178D01*
X304290Y632291D01*
X304292Y632404D01*
X304290Y632517D01*
X304284Y632630D01*
X304274Y632743D01*
X304260Y632856D01*
X304243Y632968D01*
X304221Y633079D01*
X304196Y633189D01*
X304166Y633299D01*
X304133Y633407D01*
X304096Y633514D01*
X304056Y633620D01*
X304011Y633724D01*
X303963Y633827D01*
X303912Y633928D01*
X303857Y634027D01*
X303799Y634124D01*
X303737Y634219D01*
X303672Y634312D01*
X303604Y634402D01*
X303533Y634490D01*
X303458Y634576D01*
X303381Y634659D01*
X303301Y634739D01*
X303218Y634816D01*
X303132Y634891D01*
X303044Y634962D01*
X302954Y635030D01*
X302861Y635095D01*
X302766Y635157D01*
X302669Y635215D01*
X302570Y635270D01*
X302469Y635321D01*
X302366Y635369D01*
X302262Y635414D01*
X302156Y635454D01*
X302049Y635491D01*
X301941Y635524D01*
X301831Y635554D01*
X301721Y635579D01*
X301610Y635601D01*
X301498Y635618D01*
X301385Y635632D01*
X301272Y635642D01*
X301159Y635648D01*
X301046Y635650D01*
X301696Y640842D02*
X297801Y640842D01*
X301696Y640842D02*
X301797Y640840D01*
X301897Y640834D01*
X301997Y640824D01*
X302097Y640811D01*
X302196Y640793D01*
X302295Y640772D01*
X302392Y640747D01*
X302489Y640718D01*
X302584Y640685D01*
X302678Y640649D01*
X302770Y640609D01*
X302861Y640566D01*
X302950Y640519D01*
X303037Y640469D01*
X303123Y640415D01*
X303206Y640358D01*
X303286Y640298D01*
X303365Y640235D01*
X303441Y640168D01*
X303514Y640099D01*
X303584Y640027D01*
X303652Y639953D01*
X303717Y639876D01*
X303778Y639796D01*
X303837Y639714D01*
X303892Y639630D01*
X303944Y639544D01*
X303993Y639456D01*
X304038Y639366D01*
X304080Y639274D01*
X304118Y639181D01*
X304152Y639086D01*
X304183Y638991D01*
X304210Y638894D01*
X304233Y638796D01*
X304253Y638697D01*
X304268Y638597D01*
X304280Y638497D01*
X304288Y638397D01*
X304292Y638296D01*
X304292Y638196D01*
X304288Y638095D01*
X304280Y637995D01*
X304268Y637895D01*
X304253Y637795D01*
X304233Y637696D01*
X304210Y637598D01*
X304183Y637501D01*
X304152Y637406D01*
X304118Y637311D01*
X304080Y637218D01*
X304038Y637126D01*
X303993Y637036D01*
X303944Y636948D01*
X303892Y636862D01*
X303837Y636778D01*
X303778Y636696D01*
X303717Y636616D01*
X303652Y636539D01*
X303584Y636465D01*
X303514Y636393D01*
X303441Y636324D01*
X303365Y636257D01*
X303286Y636194D01*
X303206Y636134D01*
X303123Y636077D01*
X303037Y636023D01*
X302950Y635973D01*
X302861Y635926D01*
X302770Y635883D01*
X302678Y635843D01*
X302584Y635807D01*
X302489Y635774D01*
X302392Y635745D01*
X302295Y635720D01*
X302196Y635699D01*
X302097Y635681D01*
X301997Y635668D01*
X301897Y635658D01*
X301797Y635652D01*
X301696Y635650D01*
X301696Y635649D02*
X299099Y635649D01*
X540445Y297942D02*
X540445Y286258D01*
X540445Y297942D02*
X543690Y297942D01*
X543803Y297940D01*
X543916Y297934D01*
X544029Y297924D01*
X544142Y297910D01*
X544254Y297893D01*
X544365Y297871D01*
X544475Y297846D01*
X544585Y297816D01*
X544693Y297783D01*
X544800Y297746D01*
X544906Y297706D01*
X545010Y297661D01*
X545113Y297613D01*
X545214Y297562D01*
X545313Y297507D01*
X545410Y297449D01*
X545505Y297387D01*
X545598Y297322D01*
X545688Y297254D01*
X545776Y297183D01*
X545862Y297108D01*
X545945Y297031D01*
X546025Y296951D01*
X546102Y296868D01*
X546177Y296782D01*
X546248Y296694D01*
X546316Y296604D01*
X546381Y296511D01*
X546443Y296416D01*
X546501Y296319D01*
X546556Y296220D01*
X546607Y296119D01*
X546655Y296016D01*
X546700Y295912D01*
X546740Y295806D01*
X546777Y295699D01*
X546810Y295591D01*
X546840Y295481D01*
X546865Y295371D01*
X546887Y295260D01*
X546904Y295148D01*
X546918Y295035D01*
X546928Y294922D01*
X546934Y294809D01*
X546936Y294696D01*
X546934Y294583D01*
X546928Y294470D01*
X546918Y294357D01*
X546904Y294244D01*
X546887Y294132D01*
X546865Y294021D01*
X546840Y293911D01*
X546810Y293801D01*
X546777Y293693D01*
X546740Y293586D01*
X546700Y293480D01*
X546655Y293376D01*
X546607Y293273D01*
X546556Y293172D01*
X546501Y293073D01*
X546443Y292976D01*
X546381Y292881D01*
X546316Y292788D01*
X546248Y292698D01*
X546177Y292610D01*
X546102Y292524D01*
X546025Y292441D01*
X545945Y292361D01*
X545862Y292284D01*
X545776Y292209D01*
X545688Y292138D01*
X545598Y292070D01*
X545505Y292005D01*
X545410Y291943D01*
X545313Y291885D01*
X545214Y291830D01*
X545113Y291779D01*
X545010Y291731D01*
X544906Y291686D01*
X544800Y291646D01*
X544693Y291609D01*
X544585Y291576D01*
X544475Y291546D01*
X544365Y291521D01*
X544254Y291499D01*
X544142Y291482D01*
X544029Y291468D01*
X543916Y291458D01*
X543803Y291452D01*
X543690Y291450D01*
X543690Y291451D02*
X540445Y291451D01*
X544339Y291451D02*
X546936Y286258D01*
X551801Y288854D02*
X554397Y297942D01*
X551801Y288854D02*
X558292Y288854D01*
X556345Y291451D02*
X556345Y286258D01*
X259842Y267208D02*
X248158Y267208D01*
X248158Y270454D01*
X248160Y270567D01*
X248166Y270680D01*
X248176Y270793D01*
X248190Y270906D01*
X248207Y271018D01*
X248229Y271129D01*
X248254Y271239D01*
X248284Y271349D01*
X248317Y271457D01*
X248354Y271564D01*
X248394Y271670D01*
X248439Y271774D01*
X248487Y271877D01*
X248538Y271978D01*
X248593Y272077D01*
X248651Y272174D01*
X248713Y272269D01*
X248778Y272362D01*
X248846Y272452D01*
X248917Y272540D01*
X248992Y272626D01*
X249069Y272709D01*
X249149Y272789D01*
X249232Y272866D01*
X249318Y272941D01*
X249406Y273012D01*
X249496Y273080D01*
X249589Y273145D01*
X249684Y273207D01*
X249781Y273265D01*
X249880Y273320D01*
X249981Y273371D01*
X250084Y273419D01*
X250188Y273464D01*
X250294Y273504D01*
X250401Y273541D01*
X250509Y273574D01*
X250619Y273604D01*
X250729Y273629D01*
X250840Y273651D01*
X250952Y273668D01*
X251065Y273682D01*
X251178Y273692D01*
X251291Y273698D01*
X251404Y273700D01*
X251517Y273698D01*
X251630Y273692D01*
X251743Y273682D01*
X251856Y273668D01*
X251968Y273651D01*
X252079Y273629D01*
X252189Y273604D01*
X252299Y273574D01*
X252407Y273541D01*
X252514Y273504D01*
X252620Y273464D01*
X252724Y273419D01*
X252827Y273371D01*
X252928Y273320D01*
X253027Y273265D01*
X253124Y273207D01*
X253219Y273145D01*
X253312Y273080D01*
X253402Y273012D01*
X253490Y272941D01*
X253576Y272866D01*
X253659Y272789D01*
X253739Y272709D01*
X253816Y272626D01*
X253891Y272540D01*
X253962Y272452D01*
X254030Y272362D01*
X254095Y272269D01*
X254157Y272174D01*
X254215Y272077D01*
X254270Y271978D01*
X254321Y271877D01*
X254369Y271774D01*
X254414Y271670D01*
X254454Y271564D01*
X254491Y271457D01*
X254524Y271349D01*
X254554Y271239D01*
X254579Y271129D01*
X254601Y271018D01*
X254618Y270906D01*
X254632Y270793D01*
X254642Y270680D01*
X254648Y270567D01*
X254650Y270454D01*
X254649Y270454D02*
X254649Y267208D01*
X254649Y271103D02*
X259842Y273699D01*
X259842Y278564D02*
X259842Y282459D01*
X259840Y282558D01*
X259834Y282658D01*
X259825Y282757D01*
X259812Y282855D01*
X259795Y282953D01*
X259774Y283051D01*
X259749Y283147D01*
X259721Y283242D01*
X259689Y283336D01*
X259654Y283429D01*
X259615Y283521D01*
X259572Y283611D01*
X259527Y283699D01*
X259477Y283786D01*
X259425Y283870D01*
X259369Y283953D01*
X259311Y284033D01*
X259249Y284111D01*
X259184Y284186D01*
X259116Y284259D01*
X259046Y284329D01*
X258973Y284397D01*
X258898Y284462D01*
X258820Y284524D01*
X258740Y284582D01*
X258657Y284638D01*
X258573Y284690D01*
X258486Y284740D01*
X258398Y284785D01*
X258308Y284828D01*
X258216Y284867D01*
X258123Y284902D01*
X258029Y284934D01*
X257934Y284962D01*
X257838Y284987D01*
X257740Y285008D01*
X257642Y285025D01*
X257544Y285038D01*
X257445Y285047D01*
X257345Y285053D01*
X257246Y285055D01*
X255947Y285055D01*
X255848Y285053D01*
X255748Y285047D01*
X255649Y285038D01*
X255551Y285025D01*
X255453Y285008D01*
X255355Y284987D01*
X255259Y284962D01*
X255164Y284934D01*
X255070Y284902D01*
X254977Y284867D01*
X254885Y284828D01*
X254795Y284785D01*
X254707Y284740D01*
X254620Y284690D01*
X254536Y284638D01*
X254453Y284582D01*
X254373Y284524D01*
X254295Y284462D01*
X254220Y284397D01*
X254147Y284329D01*
X254077Y284259D01*
X254009Y284186D01*
X253944Y284111D01*
X253882Y284033D01*
X253824Y283953D01*
X253768Y283870D01*
X253716Y283786D01*
X253666Y283699D01*
X253621Y283611D01*
X253578Y283521D01*
X253539Y283429D01*
X253504Y283336D01*
X253472Y283242D01*
X253444Y283147D01*
X253419Y283051D01*
X253398Y282953D01*
X253381Y282855D01*
X253368Y282757D01*
X253359Y282658D01*
X253353Y282558D01*
X253351Y282459D01*
X253351Y278564D01*
X248158Y278564D01*
X248158Y285055D01*
X660908Y603758D02*
X660908Y615442D01*
X664154Y615442D01*
X664267Y615440D01*
X664380Y615434D01*
X664493Y615424D01*
X664606Y615410D01*
X664718Y615393D01*
X664829Y615371D01*
X664939Y615346D01*
X665049Y615316D01*
X665157Y615283D01*
X665264Y615246D01*
X665370Y615206D01*
X665474Y615161D01*
X665577Y615113D01*
X665678Y615062D01*
X665777Y615007D01*
X665874Y614949D01*
X665969Y614887D01*
X666062Y614822D01*
X666152Y614754D01*
X666240Y614683D01*
X666326Y614608D01*
X666409Y614531D01*
X666489Y614451D01*
X666566Y614368D01*
X666641Y614282D01*
X666712Y614194D01*
X666780Y614104D01*
X666845Y614011D01*
X666907Y613916D01*
X666965Y613819D01*
X667020Y613720D01*
X667071Y613619D01*
X667119Y613516D01*
X667164Y613412D01*
X667204Y613306D01*
X667241Y613199D01*
X667274Y613091D01*
X667304Y612981D01*
X667329Y612871D01*
X667351Y612760D01*
X667368Y612648D01*
X667382Y612535D01*
X667392Y612422D01*
X667398Y612309D01*
X667400Y612196D01*
X667398Y612083D01*
X667392Y611970D01*
X667382Y611857D01*
X667368Y611744D01*
X667351Y611632D01*
X667329Y611521D01*
X667304Y611411D01*
X667274Y611301D01*
X667241Y611193D01*
X667204Y611086D01*
X667164Y610980D01*
X667119Y610876D01*
X667071Y610773D01*
X667020Y610672D01*
X666965Y610573D01*
X666907Y610476D01*
X666845Y610381D01*
X666780Y610288D01*
X666712Y610198D01*
X666641Y610110D01*
X666566Y610024D01*
X666489Y609941D01*
X666409Y609861D01*
X666326Y609784D01*
X666240Y609709D01*
X666152Y609638D01*
X666062Y609570D01*
X665969Y609505D01*
X665874Y609443D01*
X665777Y609385D01*
X665678Y609330D01*
X665577Y609279D01*
X665474Y609231D01*
X665370Y609186D01*
X665264Y609146D01*
X665157Y609109D01*
X665049Y609076D01*
X664939Y609046D01*
X664829Y609021D01*
X664718Y608999D01*
X664606Y608982D01*
X664493Y608968D01*
X664380Y608958D01*
X664267Y608952D01*
X664154Y608950D01*
X664154Y608951D02*
X660908Y608951D01*
X664803Y608951D02*
X667399Y603758D01*
X672264Y610249D02*
X676159Y610249D01*
X676258Y610247D01*
X676358Y610241D01*
X676457Y610232D01*
X676555Y610219D01*
X676653Y610202D01*
X676751Y610181D01*
X676847Y610156D01*
X676942Y610128D01*
X677036Y610096D01*
X677129Y610061D01*
X677221Y610022D01*
X677311Y609979D01*
X677399Y609934D01*
X677486Y609884D01*
X677570Y609832D01*
X677653Y609776D01*
X677733Y609718D01*
X677811Y609656D01*
X677886Y609591D01*
X677959Y609523D01*
X678029Y609453D01*
X678097Y609380D01*
X678162Y609305D01*
X678224Y609227D01*
X678282Y609147D01*
X678338Y609064D01*
X678390Y608980D01*
X678440Y608893D01*
X678485Y608805D01*
X678528Y608715D01*
X678567Y608623D01*
X678602Y608530D01*
X678634Y608436D01*
X678662Y608341D01*
X678687Y608245D01*
X678708Y608147D01*
X678725Y608049D01*
X678738Y607951D01*
X678747Y607852D01*
X678753Y607752D01*
X678755Y607653D01*
X678755Y607004D01*
X678756Y607004D02*
X678754Y606891D01*
X678748Y606778D01*
X678738Y606665D01*
X678724Y606552D01*
X678707Y606440D01*
X678685Y606329D01*
X678660Y606219D01*
X678630Y606109D01*
X678597Y606001D01*
X678560Y605894D01*
X678520Y605788D01*
X678475Y605684D01*
X678427Y605581D01*
X678376Y605480D01*
X678321Y605381D01*
X678263Y605284D01*
X678201Y605189D01*
X678136Y605096D01*
X678068Y605006D01*
X677997Y604918D01*
X677922Y604832D01*
X677845Y604749D01*
X677765Y604669D01*
X677682Y604592D01*
X677596Y604517D01*
X677508Y604446D01*
X677418Y604378D01*
X677325Y604313D01*
X677230Y604251D01*
X677133Y604193D01*
X677034Y604138D01*
X676933Y604087D01*
X676830Y604039D01*
X676726Y603994D01*
X676620Y603954D01*
X676513Y603917D01*
X676405Y603884D01*
X676295Y603854D01*
X676185Y603829D01*
X676074Y603807D01*
X675962Y603790D01*
X675849Y603776D01*
X675736Y603766D01*
X675623Y603760D01*
X675510Y603758D01*
X675397Y603760D01*
X675284Y603766D01*
X675171Y603776D01*
X675058Y603790D01*
X674946Y603807D01*
X674835Y603829D01*
X674725Y603854D01*
X674615Y603884D01*
X674507Y603917D01*
X674400Y603954D01*
X674294Y603994D01*
X674190Y604039D01*
X674087Y604087D01*
X673986Y604138D01*
X673887Y604193D01*
X673790Y604251D01*
X673695Y604313D01*
X673602Y604378D01*
X673512Y604446D01*
X673424Y604517D01*
X673338Y604592D01*
X673255Y604669D01*
X673175Y604749D01*
X673098Y604832D01*
X673023Y604918D01*
X672952Y605006D01*
X672884Y605096D01*
X672819Y605189D01*
X672757Y605284D01*
X672699Y605381D01*
X672644Y605480D01*
X672593Y605581D01*
X672545Y605684D01*
X672500Y605788D01*
X672460Y605894D01*
X672423Y606001D01*
X672390Y606109D01*
X672360Y606219D01*
X672335Y606329D01*
X672313Y606440D01*
X672296Y606552D01*
X672282Y606665D01*
X672272Y606778D01*
X672266Y606891D01*
X672264Y607004D01*
X672264Y610249D01*
X672266Y610392D01*
X672272Y610535D01*
X672282Y610678D01*
X672296Y610820D01*
X672313Y610962D01*
X672335Y611104D01*
X672360Y611245D01*
X672390Y611385D01*
X672423Y611524D01*
X672460Y611662D01*
X672501Y611799D01*
X672545Y611935D01*
X672594Y612070D01*
X672646Y612203D01*
X672701Y612335D01*
X672761Y612465D01*
X672824Y612594D01*
X672890Y612721D01*
X672960Y612845D01*
X673033Y612968D01*
X673110Y613089D01*
X673190Y613208D01*
X673273Y613324D01*
X673359Y613439D01*
X673448Y613550D01*
X673541Y613660D01*
X673636Y613766D01*
X673735Y613870D01*
X673836Y613971D01*
X673940Y614070D01*
X674046Y614165D01*
X674156Y614258D01*
X674267Y614347D01*
X674382Y614433D01*
X674498Y614516D01*
X674617Y614596D01*
X674738Y614673D01*
X674860Y614746D01*
X674985Y614816D01*
X675112Y614882D01*
X675241Y614945D01*
X675371Y615005D01*
X675503Y615060D01*
X675636Y615112D01*
X675771Y615161D01*
X675907Y615205D01*
X676044Y615246D01*
X676182Y615283D01*
X676321Y615316D01*
X676461Y615346D01*
X676602Y615371D01*
X676744Y615393D01*
X676886Y615410D01*
X677028Y615424D01*
X677171Y615434D01*
X677314Y615440D01*
X677457Y615442D01*
X451545Y629158D02*
X451545Y640842D01*
X454790Y640842D01*
X454903Y640840D01*
X455016Y640834D01*
X455129Y640824D01*
X455242Y640810D01*
X455354Y640793D01*
X455465Y640771D01*
X455575Y640746D01*
X455685Y640716D01*
X455793Y640683D01*
X455900Y640646D01*
X456006Y640606D01*
X456110Y640561D01*
X456213Y640513D01*
X456314Y640462D01*
X456413Y640407D01*
X456510Y640349D01*
X456605Y640287D01*
X456698Y640222D01*
X456788Y640154D01*
X456876Y640083D01*
X456962Y640008D01*
X457045Y639931D01*
X457125Y639851D01*
X457202Y639768D01*
X457277Y639682D01*
X457348Y639594D01*
X457416Y639504D01*
X457481Y639411D01*
X457543Y639316D01*
X457601Y639219D01*
X457656Y639120D01*
X457707Y639019D01*
X457755Y638916D01*
X457800Y638812D01*
X457840Y638706D01*
X457877Y638599D01*
X457910Y638491D01*
X457940Y638381D01*
X457965Y638271D01*
X457987Y638160D01*
X458004Y638048D01*
X458018Y637935D01*
X458028Y637822D01*
X458034Y637709D01*
X458036Y637596D01*
X458034Y637483D01*
X458028Y637370D01*
X458018Y637257D01*
X458004Y637144D01*
X457987Y637032D01*
X457965Y636921D01*
X457940Y636811D01*
X457910Y636701D01*
X457877Y636593D01*
X457840Y636486D01*
X457800Y636380D01*
X457755Y636276D01*
X457707Y636173D01*
X457656Y636072D01*
X457601Y635973D01*
X457543Y635876D01*
X457481Y635781D01*
X457416Y635688D01*
X457348Y635598D01*
X457277Y635510D01*
X457202Y635424D01*
X457125Y635341D01*
X457045Y635261D01*
X456962Y635184D01*
X456876Y635109D01*
X456788Y635038D01*
X456698Y634970D01*
X456605Y634905D01*
X456510Y634843D01*
X456413Y634785D01*
X456314Y634730D01*
X456213Y634679D01*
X456110Y634631D01*
X456006Y634586D01*
X455900Y634546D01*
X455793Y634509D01*
X455685Y634476D01*
X455575Y634446D01*
X455465Y634421D01*
X455354Y634399D01*
X455242Y634382D01*
X455129Y634368D01*
X455016Y634358D01*
X454903Y634352D01*
X454790Y634350D01*
X454790Y634351D02*
X451545Y634351D01*
X455439Y634351D02*
X458036Y629158D01*
X462901Y639544D02*
X462901Y640842D01*
X469392Y640842D01*
X466146Y629158D01*
X140208Y526542D02*
X140208Y514858D01*
X140208Y526542D02*
X143454Y526542D01*
X143567Y526540D01*
X143680Y526534D01*
X143793Y526524D01*
X143906Y526510D01*
X144018Y526493D01*
X144129Y526471D01*
X144239Y526446D01*
X144349Y526416D01*
X144457Y526383D01*
X144564Y526346D01*
X144670Y526306D01*
X144774Y526261D01*
X144877Y526213D01*
X144978Y526162D01*
X145077Y526107D01*
X145174Y526049D01*
X145269Y525987D01*
X145362Y525922D01*
X145452Y525854D01*
X145540Y525783D01*
X145626Y525708D01*
X145709Y525631D01*
X145789Y525551D01*
X145866Y525468D01*
X145941Y525382D01*
X146012Y525294D01*
X146080Y525204D01*
X146145Y525111D01*
X146207Y525016D01*
X146265Y524919D01*
X146320Y524820D01*
X146371Y524719D01*
X146419Y524616D01*
X146464Y524512D01*
X146504Y524406D01*
X146541Y524299D01*
X146574Y524191D01*
X146604Y524081D01*
X146629Y523971D01*
X146651Y523860D01*
X146668Y523748D01*
X146682Y523635D01*
X146692Y523522D01*
X146698Y523409D01*
X146700Y523296D01*
X146698Y523183D01*
X146692Y523070D01*
X146682Y522957D01*
X146668Y522844D01*
X146651Y522732D01*
X146629Y522621D01*
X146604Y522511D01*
X146574Y522401D01*
X146541Y522293D01*
X146504Y522186D01*
X146464Y522080D01*
X146419Y521976D01*
X146371Y521873D01*
X146320Y521772D01*
X146265Y521673D01*
X146207Y521576D01*
X146145Y521481D01*
X146080Y521388D01*
X146012Y521298D01*
X145941Y521210D01*
X145866Y521124D01*
X145789Y521041D01*
X145709Y520961D01*
X145626Y520884D01*
X145540Y520809D01*
X145452Y520738D01*
X145362Y520670D01*
X145269Y520605D01*
X145174Y520543D01*
X145077Y520485D01*
X144978Y520430D01*
X144877Y520379D01*
X144774Y520331D01*
X144670Y520286D01*
X144564Y520246D01*
X144457Y520209D01*
X144349Y520176D01*
X144239Y520146D01*
X144129Y520121D01*
X144018Y520099D01*
X143906Y520082D01*
X143793Y520068D01*
X143680Y520058D01*
X143567Y520052D01*
X143454Y520050D01*
X143454Y520051D02*
X140208Y520051D01*
X144103Y520051D02*
X146699Y514858D01*
X151564Y518104D02*
X151566Y518217D01*
X151572Y518330D01*
X151582Y518443D01*
X151596Y518556D01*
X151613Y518668D01*
X151635Y518779D01*
X151660Y518889D01*
X151690Y518999D01*
X151723Y519107D01*
X151760Y519214D01*
X151800Y519320D01*
X151845Y519424D01*
X151893Y519527D01*
X151944Y519628D01*
X151999Y519727D01*
X152057Y519824D01*
X152119Y519919D01*
X152184Y520012D01*
X152252Y520102D01*
X152323Y520190D01*
X152398Y520276D01*
X152475Y520359D01*
X152555Y520439D01*
X152638Y520516D01*
X152724Y520591D01*
X152812Y520662D01*
X152902Y520730D01*
X152995Y520795D01*
X153090Y520857D01*
X153187Y520915D01*
X153286Y520970D01*
X153387Y521021D01*
X153490Y521069D01*
X153594Y521114D01*
X153700Y521154D01*
X153807Y521191D01*
X153915Y521224D01*
X154025Y521254D01*
X154135Y521279D01*
X154246Y521301D01*
X154358Y521318D01*
X154471Y521332D01*
X154584Y521342D01*
X154697Y521348D01*
X154810Y521350D01*
X154923Y521348D01*
X155036Y521342D01*
X155149Y521332D01*
X155262Y521318D01*
X155374Y521301D01*
X155485Y521279D01*
X155595Y521254D01*
X155705Y521224D01*
X155813Y521191D01*
X155920Y521154D01*
X156026Y521114D01*
X156130Y521069D01*
X156233Y521021D01*
X156334Y520970D01*
X156433Y520915D01*
X156530Y520857D01*
X156625Y520795D01*
X156718Y520730D01*
X156808Y520662D01*
X156896Y520591D01*
X156982Y520516D01*
X157065Y520439D01*
X157145Y520359D01*
X157222Y520276D01*
X157297Y520190D01*
X157368Y520102D01*
X157436Y520012D01*
X157501Y519919D01*
X157563Y519824D01*
X157621Y519727D01*
X157676Y519628D01*
X157727Y519527D01*
X157775Y519424D01*
X157820Y519320D01*
X157860Y519214D01*
X157897Y519107D01*
X157930Y518999D01*
X157960Y518889D01*
X157985Y518779D01*
X158007Y518668D01*
X158024Y518556D01*
X158038Y518443D01*
X158048Y518330D01*
X158054Y518217D01*
X158056Y518104D01*
X158054Y517991D01*
X158048Y517878D01*
X158038Y517765D01*
X158024Y517652D01*
X158007Y517540D01*
X157985Y517429D01*
X157960Y517319D01*
X157930Y517209D01*
X157897Y517101D01*
X157860Y516994D01*
X157820Y516888D01*
X157775Y516784D01*
X157727Y516681D01*
X157676Y516580D01*
X157621Y516481D01*
X157563Y516384D01*
X157501Y516289D01*
X157436Y516196D01*
X157368Y516106D01*
X157297Y516018D01*
X157222Y515932D01*
X157145Y515849D01*
X157065Y515769D01*
X156982Y515692D01*
X156896Y515617D01*
X156808Y515546D01*
X156718Y515478D01*
X156625Y515413D01*
X156530Y515351D01*
X156433Y515293D01*
X156334Y515238D01*
X156233Y515187D01*
X156130Y515139D01*
X156026Y515094D01*
X155920Y515054D01*
X155813Y515017D01*
X155705Y514984D01*
X155595Y514954D01*
X155485Y514929D01*
X155374Y514907D01*
X155262Y514890D01*
X155149Y514876D01*
X155036Y514866D01*
X154923Y514860D01*
X154810Y514858D01*
X154697Y514860D01*
X154584Y514866D01*
X154471Y514876D01*
X154358Y514890D01*
X154246Y514907D01*
X154135Y514929D01*
X154025Y514954D01*
X153915Y514984D01*
X153807Y515017D01*
X153700Y515054D01*
X153594Y515094D01*
X153490Y515139D01*
X153387Y515187D01*
X153286Y515238D01*
X153187Y515293D01*
X153090Y515351D01*
X152995Y515413D01*
X152902Y515478D01*
X152812Y515546D01*
X152724Y515617D01*
X152638Y515692D01*
X152555Y515769D01*
X152475Y515849D01*
X152398Y515932D01*
X152323Y516018D01*
X152252Y516106D01*
X152184Y516196D01*
X152119Y516289D01*
X152057Y516384D01*
X151999Y516481D01*
X151944Y516580D01*
X151893Y516681D01*
X151845Y516784D01*
X151800Y516888D01*
X151760Y516994D01*
X151723Y517101D01*
X151690Y517209D01*
X151660Y517319D01*
X151635Y517429D01*
X151613Y517540D01*
X151596Y517652D01*
X151582Y517765D01*
X151572Y517878D01*
X151566Y517991D01*
X151564Y518104D01*
X152214Y523946D02*
X152216Y524047D01*
X152222Y524147D01*
X152232Y524247D01*
X152245Y524347D01*
X152263Y524446D01*
X152284Y524545D01*
X152309Y524642D01*
X152338Y524739D01*
X152371Y524834D01*
X152407Y524928D01*
X152447Y525020D01*
X152490Y525111D01*
X152537Y525200D01*
X152587Y525287D01*
X152641Y525373D01*
X152698Y525456D01*
X152758Y525536D01*
X152821Y525615D01*
X152888Y525691D01*
X152957Y525764D01*
X153029Y525834D01*
X153103Y525902D01*
X153180Y525967D01*
X153260Y526028D01*
X153342Y526087D01*
X153426Y526142D01*
X153512Y526194D01*
X153600Y526243D01*
X153690Y526288D01*
X153782Y526330D01*
X153875Y526368D01*
X153970Y526402D01*
X154065Y526433D01*
X154162Y526460D01*
X154260Y526483D01*
X154359Y526503D01*
X154459Y526518D01*
X154559Y526530D01*
X154659Y526538D01*
X154760Y526542D01*
X154860Y526542D01*
X154961Y526538D01*
X155061Y526530D01*
X155161Y526518D01*
X155261Y526503D01*
X155360Y526483D01*
X155458Y526460D01*
X155555Y526433D01*
X155650Y526402D01*
X155745Y526368D01*
X155838Y526330D01*
X155930Y526288D01*
X156020Y526243D01*
X156108Y526194D01*
X156194Y526142D01*
X156278Y526087D01*
X156360Y526028D01*
X156440Y525967D01*
X156517Y525902D01*
X156591Y525834D01*
X156663Y525764D01*
X156732Y525691D01*
X156799Y525615D01*
X156862Y525536D01*
X156922Y525456D01*
X156979Y525373D01*
X157033Y525287D01*
X157083Y525200D01*
X157130Y525111D01*
X157173Y525020D01*
X157213Y524928D01*
X157249Y524834D01*
X157282Y524739D01*
X157311Y524642D01*
X157336Y524545D01*
X157357Y524446D01*
X157375Y524347D01*
X157388Y524247D01*
X157398Y524147D01*
X157404Y524047D01*
X157406Y523946D01*
X157404Y523845D01*
X157398Y523745D01*
X157388Y523645D01*
X157375Y523545D01*
X157357Y523446D01*
X157336Y523347D01*
X157311Y523250D01*
X157282Y523153D01*
X157249Y523058D01*
X157213Y522964D01*
X157173Y522872D01*
X157130Y522781D01*
X157083Y522692D01*
X157033Y522605D01*
X156979Y522519D01*
X156922Y522436D01*
X156862Y522356D01*
X156799Y522277D01*
X156732Y522201D01*
X156663Y522128D01*
X156591Y522058D01*
X156517Y521990D01*
X156440Y521925D01*
X156360Y521864D01*
X156278Y521805D01*
X156194Y521750D01*
X156108Y521698D01*
X156020Y521649D01*
X155930Y521604D01*
X155838Y521562D01*
X155745Y521524D01*
X155650Y521490D01*
X155555Y521459D01*
X155458Y521432D01*
X155360Y521409D01*
X155261Y521389D01*
X155161Y521374D01*
X155061Y521362D01*
X154961Y521354D01*
X154860Y521350D01*
X154760Y521350D01*
X154659Y521354D01*
X154559Y521362D01*
X154459Y521374D01*
X154359Y521389D01*
X154260Y521409D01*
X154162Y521432D01*
X154065Y521459D01*
X153970Y521490D01*
X153875Y521524D01*
X153782Y521562D01*
X153690Y521604D01*
X153600Y521649D01*
X153512Y521698D01*
X153426Y521750D01*
X153342Y521805D01*
X153260Y521864D01*
X153180Y521925D01*
X153103Y521990D01*
X153029Y522058D01*
X152957Y522128D01*
X152888Y522201D01*
X152821Y522277D01*
X152758Y522356D01*
X152698Y522436D01*
X152641Y522519D01*
X152587Y522605D01*
X152537Y522692D01*
X152490Y522781D01*
X152447Y522872D01*
X152407Y522964D01*
X152371Y523058D01*
X152338Y523153D01*
X152309Y523250D01*
X152284Y523347D01*
X152263Y523446D01*
X152245Y523545D01*
X152232Y523645D01*
X152222Y523745D01*
X152216Y523845D01*
X152214Y523946D01*
D12*
X403100Y612900D02*
X409100Y612900D01*
X403100Y612900D02*
X403100Y580900D01*
X429100Y612900D02*
X435100Y612900D01*
X435100Y580900D01*
D11*
X400685Y591456D02*
X395859Y589848D01*
X395859Y593065D02*
X400685Y591456D01*
X400685Y595849D02*
X395859Y595849D01*
X395859Y597189D01*
X395861Y597260D01*
X395867Y597332D01*
X395876Y597402D01*
X395889Y597472D01*
X395906Y597542D01*
X395927Y597610D01*
X395951Y597677D01*
X395979Y597743D01*
X396010Y597807D01*
X396045Y597870D01*
X396083Y597930D01*
X396124Y597989D01*
X396168Y598045D01*
X396215Y598099D01*
X396264Y598150D01*
X396317Y598198D01*
X396372Y598244D01*
X396429Y598286D01*
X396489Y598326D01*
X396550Y598362D01*
X396614Y598395D01*
X396679Y598424D01*
X396745Y598450D01*
X396813Y598473D01*
X396882Y598492D01*
X396952Y598507D01*
X397022Y598518D01*
X397093Y598526D01*
X397164Y598530D01*
X397236Y598530D01*
X397307Y598526D01*
X397378Y598518D01*
X397448Y598507D01*
X397518Y598492D01*
X397587Y598473D01*
X397655Y598450D01*
X397721Y598424D01*
X397786Y598395D01*
X397850Y598362D01*
X397911Y598326D01*
X397971Y598286D01*
X398028Y598244D01*
X398083Y598198D01*
X398136Y598150D01*
X398185Y598099D01*
X398232Y598045D01*
X398276Y597989D01*
X398317Y597930D01*
X398355Y597870D01*
X398390Y597807D01*
X398421Y597743D01*
X398449Y597677D01*
X398473Y597610D01*
X398494Y597542D01*
X398511Y597472D01*
X398524Y597402D01*
X398533Y597332D01*
X398539Y597260D01*
X398541Y597189D01*
X398540Y597189D02*
X398540Y595849D01*
X398540Y597457D02*
X400685Y598530D01*
X396931Y601271D02*
X395859Y602612D01*
X400685Y602612D01*
X400685Y603952D02*
X400685Y601271D01*
M02*
