G04 EAGLE Gerber RS-274X export*
G75*
%MOMM*%
%FSLAX34Y34*%
%LPD*%
%INSolderpaste Top*%
%IPPOS*%
%AMOC8*
5,1,8,0,0,1.08239X$1,22.5*%
G01*
%ADD10R,1.100000X1.000000*%
%ADD11R,2.400000X4.800000*%
%ADD12R,1.170000X0.250000*%
%ADD13R,1.800000X3.200000*%
%ADD14R,3.200000X1.800000*%
%ADD15R,1.000000X0.900000*%
%ADD16R,1.100000X0.900000*%


D10*
X423300Y317500D03*
X440300Y317500D03*
X182000Y558800D03*
X199000Y558800D03*
X550300Y533400D03*
X567300Y533400D03*
X474100Y444500D03*
X491100Y444500D03*
X385200Y495300D03*
X402200Y495300D03*
X359800Y533400D03*
X376800Y533400D03*
D11*
X393700Y381000D03*
D12*
X364750Y416750D03*
X364750Y410250D03*
X364750Y403750D03*
X364750Y397250D03*
X364750Y390750D03*
X364750Y384250D03*
X364750Y377750D03*
X364750Y371250D03*
X364750Y364750D03*
X364750Y358250D03*
X364750Y351750D03*
X364750Y345250D03*
X422650Y345250D03*
X422650Y351750D03*
X422650Y358250D03*
X422650Y364750D03*
X422650Y371250D03*
X422650Y377750D03*
X422650Y384250D03*
X422650Y390750D03*
X422650Y397250D03*
X422650Y403750D03*
X422650Y410250D03*
X422650Y416750D03*
D13*
X594300Y266700D03*
X650300Y266700D03*
X594300Y660400D03*
X650300Y660400D03*
X307400Y660400D03*
X251400Y660400D03*
X561400Y317500D03*
X505400Y317500D03*
D14*
X279400Y264100D03*
X279400Y320100D03*
D13*
X657800Y584200D03*
X713800Y584200D03*
X472500Y660400D03*
X416500Y660400D03*
X137100Y495300D03*
X193100Y495300D03*
D15*
X410600Y580400D03*
D16*
X419100Y613400D03*
D15*
X427600Y580400D03*
M02*
