G04 EAGLE Gerber RS-274X export*
G75*
%MOMM*%
%FSLAX34Y34*%
%LPD*%
%INSoldermask Bottom*%
%IPNEG*%
%AMOC8*
5,1,8,0,0,1.08239X$1,22.5*%
G01*
%ADD10C,1.203200*%
%ADD11P,1.759533X8X292.500000*%
%ADD12C,0.959600*%


D10*
X152400Y673100D03*
X698500Y457200D03*
X203200Y241300D03*
X152400Y622300D03*
X698500Y241300D03*
X152400Y279400D03*
X698500Y685800D03*
D11*
X190500Y419100D03*
X215900Y419100D03*
X190500Y393700D03*
X215900Y393700D03*
X190500Y368300D03*
X215900Y368300D03*
X215900Y342900D03*
X190500Y342900D03*
X609600Y419100D03*
X635000Y419100D03*
X609600Y393700D03*
X635000Y393700D03*
X609600Y368300D03*
X635000Y368300D03*
X635000Y342900D03*
X609600Y342900D03*
D12*
X352425Y415925D03*
X352425Y406400D03*
X282575Y374650D03*
X346075Y460375D03*
X203200Y473075D03*
X374650Y425450D03*
X619125Y428625D03*
X374650Y336550D03*
X352425Y374650D03*
X342900Y384175D03*
X295275Y358775D03*
X441325Y409575D03*
X177800Y266700D03*
X254000Y228600D03*
X711200Y279400D03*
X698500Y482600D03*
X190500Y622300D03*
X177800Y660400D03*
X558800Y482600D03*
X546100Y635000D03*
X685800Y635000D03*
X609600Y609600D03*
X428625Y457200D03*
X523875Y552450D03*
X444500Y352425D03*
X434975Y374650D03*
X434975Y352425D03*
X415925Y333375D03*
X365125Y425450D03*
X184150Y517525D03*
X482600Y279400D03*
X558800Y279400D03*
X393700Y482600D03*
X454025Y434975D03*
X352425Y384175D03*
X647700Y381000D03*
X339725Y444500D03*
X711200Y558800D03*
X441325Y365125D03*
X527050Y374650D03*
X393700Y406400D03*
M02*
